{
.appVersion = "1342";
DisplayStrings = (
"/a-deva/dha-deva/ba-deva/space/aa-deva/o-deva/au-deva/space/u-deva/uu-deva/space/rVocalic-deva/rrVocalic-deva/space/a-deva/e-deva/ai-deva/space/space/a-deva/ka-deva/ba-deva/va-deva/space/space/kha-deva/ya-deva/ra-deva/sa-deva/rra-deva/space/ga-deva/ta-deva/na-deva/bha-deva/ma-deva/space/space/gha-deva/va-deva/cha-deva/dha-deva/space/i-deva/ii-deva/nga-deva/jha-deva/dda-deva/ha-deva/space/space/ca-deva/ja-deva/nya-deva/space/tta-deva/ttha-deva/ddha-deva/da-deva/space/space/ya-deva/ga-deva/tha-deva/ga-deva/sha-deva/aaMatra-deva \012/pa-deva/pha-deva/nna-deva/ssa-deva/space/space/la-deva/lla-deva/space \012/ka-deva/aaMatra-deva/ka-deva/iiMatra-deva/iMatra-deva/ka-deva/uMatra-deva/uuMatra-deva/rVocalicMatra-deva/rrVocalicMatra-deva/lVocalicMatra-deva/llVocalicMatra-deva \012/eMatra-deva/aiMatra-deva/ka-deva/oMatra-deva/ka-deva/auMatra-deva/oShortMatra-deva/oCandraMatra-deva/anusvara-deva/visarga-deva/candraBindu-deva",
"/ka_ra-deva/k_ka-deva/k_kha-deva/k_ca-deva/k_ja-deva/k_tta-deva/k_nna-deva/k_ta-deva/k_t-deva/k_t_ta-deva/k_t_ya-deva/k_t_ra-deva/k_t_va-deva/k_tha-deva/k_da-deva/k_na-deva/k_pa-deva/k_p_ra-deva/k_pha-deva/k_ma-deva/k_ya-deva/k_ra-deva/k_la-deva/k_va-deva/k_v_ya-deva/k_sha-deva"
);
customParameters = (
{
name = licenseURL;
value = "http://scripts.sil.org/OFL";
},
{
name = license;
value = "This Font Software is licensed under the SIL Open Font License, Version 1.1. This license is available with a FAQ at: http://scripts.sil.org/OFL";
},
{
name = vendorID;
value = SUBY;
},
{
name = panose;
value = (
3,
8,
9,
2,
4,
3,
2,
2,
2,
0
);
},
{
name = unicodeRanges;
value = (
0,
1,
2,
3,
4,
5,
6,
16,
29,
31,
32,
33,
35,
36,
37,
38,
45,
62
);
},
{
name = fsType;
value = (
);
},
{
name = blueScale;
value = 0.03333;
},
{
name = blueShift;
value = 15;
},
{
name = glyphOrder;
value = (
.notdef,
NULL,
CR,
space,
exclam,
quotedbl,
numbersign,
dollar,
percent,
ampersand,
quotesingle,
parenleft,
parenright,
asterisk,
plus,

glyphs = (
{
glyphname = uni25CC;
lastChange = "2020-11-19 15:13:47 +0000";
layers = (
{
hints = (
{
horizontal = 1;
place = "{237, 127}";
type = Stem;
},
{
horizontal = 1;
place = "{462, 128}";
type = Stem;
},
{
place = "{241, 130}";
type = Stem;
},
{
horizontal = 1;
place = "{391, 127}";
type = Stem;
},
{
place = "{90, 130}";
type = Stem;
},
{
place = "{30, 130}";
type = Stem;
},
{
place = "{392, 130}";
type = Stem;
},
{
place = "{452, 130}";
type = Stem;
},
{
horizontal = 1;
place = "{11, 128}";
type = Stem;
},
{
horizontal = 1;
place = "{83, 127}";
type = Stem;
}
);
layerId = "555B79C6-6D98-46E7-9307-77C37975E414";
paths = (
{
closed = 1;
nodes = (
"241 506.67 OFFCURVE",
"247.33 491.17 OFFCURVE",
"260 479.5 CURVE SMOOTH",
"272.67 467.83 OFFCURVE",
"288 462 OFFCURVE",
"306 462 CURVE SMOOTH",
"324.67 462 OFFCURVE",
"340.17 467.83 OFFCURVE",
"352.5 479.5 CURVE SMOOTH",
"364.83 491.17 OFFCURVE",
"371 506.67 OFFCURVE",
"371 526 CURVE SMOOTH",
"371 544.67 OFFCURVE",
"364.83 560 OFFCURVE",
"352.5 572 CURVE SMOOTH",
"340.17 584 OFFCURVE",
"324.67 590 OFFCURVE",
"306 590 CURVE SMOOTH",
"288 590 OFFCURVE",
"272.67 584 OFFCURVE",
"260 572 CURVE SMOOTH",
"247.33 560 OFFCURVE",
"241 544.67 OFFCURVE",
"241 526 CURVE SMOOTH"
);
},
{
closed = 1;
nodes = (
"220 472.67 OFFCURVE",
"213.5 488 OFFCURVE",
"200.5 500 CURVE SMOOTH",
"187.5 512 OFFCURVE",
"172.33 518 OFFCURVE",
"155 518 CURVE SMOOTH",
"136.33 518 OFFCURVE",
"120.83 512 OFFCURVE",
"108.5 500 CURVE SMOOTH",
"96.17 488 OFFCURVE",
"90 472.67 OFFCURVE",
"90 454 CURVE SMOOTH",
"90 435.33 OFFCURVE",
"96.17 420.17 OFFCURVE",
"108.5 408.5 CURVE SMOOTH",
"120.83 396.83 OFFCURVE",
"136.33 391 OFFCURVE",
"155 391 CURVE SMOOTH",
"172.33 391 OFFCURVE",
"187.5 396.83 OFFCURVE",
"200.5 408.5 CURVE SMOOTH",
"213.5 420.17 OFFCURVE",
"220 435.33 OFFCURVE",
"220 454 CURVE SMOOTH"
);
},
{
closed = 1;
nodes = (
"160 319.33 OFFCURVE",
"153.67 334.83 OFFCURVE",
"141 346.5 CURVE SMOOTH",
"128.33 358.17 OFFCURVE",
"113 364 OFFCURVE",
"95 364 CURVE SMOOTH",
"76.33 364 OFFCURVE",
"60.83 358.17 OFFCURVE",
"48.5 346.5 CURVE SMOOTH",
"36.17 334.83 OFFCURVE",
"30 319.33 OFFCURVE",
"30 300 CURVE SMOOTH",
"30 280.67 OFFCURVE",
"36.17 265.33 OFFCURVE",
"48.5 254 CURVE SMOOTH",
"60.83 242.67 OFFCURVE",
"76.33 237 OFFCURVE",
"95 237 CURVE SMOOTH",
"113 237 OFFCURVE",
"128.33 242.67 OFFCURVE",
"141 254 CURVE SMOOTH",
"153.67 265.33 OFFCURVE",
"160 280.67 OFFCURVE",
"160 300 CURVE SMOOTH"
);
},
{
closed = 1;
nodes = (
"392 435.33 OFFCURVE",
"398.5 420.17 OFFCURVE",
"411.5 408.5 CURVE SMOOTH",
"424.5 396.83 OFFCURVE",
"439.67 391 OFFCURVE",
"457 391 CURVE SMOOTH",
"475.67 391 OFFCURVE",
"491.17 396.83 OFFCURVE",
"503.5 408.5 CURVE SMOOTH",
"515.83 420.17 OFFCURVE",
"522 435.33 OFFCURVE",
"522 454 CURVE SMOOTH",
"522 472.67 OFFCURVE",
"515.83 488 OFFCURVE",
"503.5 500 CURVE SMOOTH",
"491.17 512 OFFCURVE",
"475.67 518 OFFCURVE",
"457 518 CURVE SMOOTH",
"439.67 518 OFFCURVE",
"424.5 512 OFFCURVE",
"411.5 500 CURVE SMOOTH",
"398.5 488 OFFCURVE",
"392 472.67 OFFCURVE",
"392 454 CURVE SMOOTH"
);
},
{
closed = 1;
nodes = (
"452 280.67 OFFCURVE",
"458.33 265.33 OFFCURVE",
"471 254 CURVE SMOOTH",
"483.67 242.67 OFFCURVE",
"499 237 OFFCURVE",
"517 237 CURVE SMOOTH",
"535.67 237 OFFCURVE",
"551.17 242.67 OFFCURVE",
"563.5 254 CURVE SMOOTH",
"575.83 265.33 OFFCURVE",
"582 280.67 OFFCURVE",
"582 300 CURVE SMOOTH",
"582 319.33 OFFCURVE",
"575.83 334.83 OFFCURVE",
"563.5 346.5 CURVE SMOOTH",
"551.17 358.17 OFFCURVE",
"535.67 364 OFFCURVE",
"517 364 CURVE SMOOTH",
"499 364 OFFCURVE",
"483.67 358.17 OFFCURVE",
"471 346.5 CURVE SMOOTH",
"458.33 334.83 OFFCURVE",
"452 319.33 OFFCURVE",
"452 300 CURVE SMOOTH"
);
},
{
closed = 1;
nodes = (
"241 56.33 OFFCURVE",
"247.33 41 OFFCURVE",
"260 29 CURVE SMOOTH",
"272.67 17 OFFCURVE",
"288 11 OFFCURVE",
"306 11 CURVE SMOOTH",
"324.67 11 OFFCURVE",
"340.17 17 OFFCURVE",
"352.5 29 CURVE SMOOTH",
"364.83 41 OFFCURVE",
"371 56.33 OFFCURVE",
"371 75 CURVE SMOOTH",
"371 94.33 OFFCURVE",
"364.83 109.83 OFFCURVE",
"352.5 121.5 CURVE SMOOTH",
"340.17 133.17 OFFCURVE",
"324.67 139 OFFCURVE",
"306 139 CURVE SMOOTH",
"288 139 OFFCURVE",
"272.67 133.17 OFFCURVE",
"260 121.5 CURVE SMOOTH",
"247.33 109.83 OFFCURVE",
"241 94.33 OFFCURVE",
"241 75 CURVE SMOOTH"
);
},
{
closed = 1;
nodes = (
"220 165.67 OFFCURVE",
"213.5 180.83 OFFCURVE",
"200.5 192.5 CURVE SMOOTH",
"187.5 204.17 OFFCURVE",
"172.33 210 OFFCURVE",
"155 210 CURVE SMOOTH",
"136.33 210 OFFCURVE",
"120.83 204.17 OFFCURVE",
"108.5 192.5 CURVE SMOOTH",
"96.17 180.83 OFFCURVE",
"90 165.67 OFFCURVE",
"90 147 CURVE SMOOTH",
"90 127.67 OFFCURVE",
"96.17 112.17 OFFCURVE",
"108.5 100.5 CURVE SMOOTH",
"120.83 88.83 OFFCURVE",
"136.33 83 OFFCURVE",
"155 83 CURVE SMOOTH",
"172.33 83 OFFCURVE",
"187.5 88.83 OFFCURVE",
"200.5 100.5 CURVE SMOOTH",
"213.5 112.17 OFFCURVE",
"220 127.67 OFFCURVE",
"220 147 CURVE SMOOTH"
);
},
{
closed = 1;
nodes = (
"392 127.67 OFFCURVE",
"398.5 112.17 OFFCURVE",
"411.5 100.5 CURVE SMOOTH",
"424.5 88.83 OFFCURVE",
"439.67 83 OFFCURVE",
"457 83 CURVE SMOOTH",
"475.67 83 OFFCURVE",
"491.17 88.83 OFFCURVE",
"503.5 100.5 CURVE SMOOTH",
"515.83 112.17 OFFCURVE",
"522 127.67 OFFCURVE",
"522 147 CURVE SMOOTH",
"522 165.67 OFFCURVE",
"515.83 180.83 OFFCURVE",
"503.5 192.5 CURVE SMOOTH",
"491.17 204.17 OFFCURVE",
"475.67 210 OFFCURVE",
"457 210 CURVE SMOOTH",
"439.67 210 OFFCURVE",
"424.5 204.17 OFFCURVE",
"411.5 192.5 CURVE SMOOTH",
"398.5 180.83 OFFCURVE",
"392 165.67 OFFCURVE",
"392 147 CURVE SMOOTH"
);
}
);
width = 612;
},
{
layerId = "B0B60A8F-2DEB-4A58-A43B-60A0DADABD8F";
width = 600;
}
);
note = uni25CC;
unicode = 25CC;
},
{
glyphname = "a-deva";
lastChange = "2020-11-21 11:46:46 +0000";
layers = (
{
layerId = "555B79C6-6D98-46E7-9307-77C37975E414";
paths = (
{
closed = 1;
nodes = (
"786 538 OFFCURVE",
"765 361 OFFCURVE",
"753 174 CURVE SMOOTH",
"748 94 OFFCURVE",
"684 -21 OFFCURVE",
"621 -21 CURVE SMOOTH",
"585 -21 OFFCURVE",
"597 27 OFFCURVE",
"602 63 CURVE SMOOTH",
"609 117 OFFCURVE",
"626 295 OFFCURVE",
"649 541 CURVE",
"786 538 LINE"
);
},
{
closed = 1;
nodes = (
"871 629 OFFCURVE",
"880 622 OFFCURVE",
"875 607 CURVE SMOOTH",
"850 529 LINE SMOOTH",
"843 508 OFFCURVE",
"833 510 OFFCURVE",
"816 510 CURVE",
"595 510 LINE SMOOTH",
"576 510 OFFCURVE",
"569 517 OFFCURVE",
"574 532 CURVE SMOOTH",
"599 610 LINE SMOOTH",
"606 631 OFFCURVE",
"616 629 OFFCURVE",
"648 629 CURVE",
"852 629 LINE SMOOTH"
);
},
{
closed = 1;
nodes = (
"472 395 LINE",
"510 373 OFFCURVE",
"578 350 OFFCURVE",
"639 384 CURVE",
"628 259 LINE",
"520 262 OFFCURVE",
"474 308 OFFCURVE",
"425 346 CURVE"
);
},
{
closed = 1;
nodes = (
"296 502 OFFCURVE",
"291 507 OFFCURVE",
"291 516 CURVE SMOOTH",
"291 541 OFFCURVE",
"370 608 OFFCURVE",
"426 608 CURVE SMOOTH",
"480 608 OFFCURVE",
"538 554 OFFCURVE",
"538 492 CURVE SMOOTH",
"538 419 OFFCURVE",
"457 361 OFFCURVE",
"425 346 CURVE",
"477 328 OFFCURVE",
"522 284 OFFCURVE",
"522 206 CURVE SMOOTH",
"522 121 OFFCURVE",
"441 17 OFFCURVE",
"262 17 CURVE SMOOTH",
"141 17 OFFCURVE",
"45 83 OFFCURVE",
"45 180 CURVE SMOOTH",
"45 278 OFFCURVE",
"149 337 OFFCURVE",
"182 337 CURVE SMOOTH",
"211 337 OFFCURVE",
"169 279 OFFCURVE",
"169 210 CURVE SMOOTH",
"169 168 OFFCURVE",
"175 119 OFFCURVE",
"253 119 CURVE SMOOTH",
"324 119 OFFCURVE",
"380 155 OFFCURVE",
"380 226 CURVE SMOOTH",
"380 269 OFFCURVE",
"365 290 OFFCURVE",
"342 290 CURVE SMOOTH",
"320 290 OFFCURVE",
"305 286 OFFCURVE",
"288 286 CURVE SMOOTH",
"269 286 OFFCURVE",
"264 298 OFFCURVE",
"264 320 CURVE SMOOTH",
"264 373 OFFCURVE",
"268 387 OFFCURVE",
"299 387 CURVE SMOOTH",
"346 387 OFFCURVE",
"403 384 OFFCURVE",
"403 440 CURVE SMOOTH",
"403 477 OFFCURVE",
"400 515 OFFCURVE",
"373 515 CURVE SMOOTH",
"359 515 OFFCURVE",
"320 502 OFFCURVE",
"307 502 CURVE SMOOTH"
);
}
);
width = 816;
},
{
background = {
paths = (
{
closed = 1;
nodes = (
"766 538 OFFCURVE",
"745 361 OFFCURVE",
"733 174 CURVE SMOOTH",
"728 94 OFFCURVE",
"664 -21 OFFCURVE",
"601 -21 CURVE SMOOTH",
"565 -21 OFFCURVE",
"577 27 OFFCURVE",
"582 63 CURVE SMOOTH",
"589 117 OFFCURVE",
"606 295 OFFCURVE",
"629 541 CURVE",
"766 538 LINE"
);
},
{
closed = 1;
nodes = (
"877 630 OFFCURVE",
"886 623 OFFCURVE",
"881 608 CURVE SMOOTH",
"856 530 LINE SMOOTH",
"849 509 OFFCURVE",
"839 511 OFFCURVE",
"822 511 CURVE",
"575 511 LINE SMOOTH",
"556 511 OFFCURVE",
"549 518 OFFCURVE",
"554 533 CURVE SMOOTH",
"579 611 LINE SMOOTH",
"586 632 OFFCURVE",
"596 630 OFFCURVE",
"628 630 CURVE",
"858 630 LINE SMOOTH"
);
},
{
closed = 1;
nodes = (
"452 395 LINE",
"490 373 OFFCURVE",
"558 350 OFFCURVE",
"619 384 CURVE",
"608 259 LINE",
"500 262 OFFCURVE",
"454 308 OFFCURVE",
"405 346 CURVE"
);
},
{
closed = 1;
nodes = (
"276 502 OFFCURVE",
"271 507 OFFCURVE",
"271 516 CURVE SMOOTH",
"271 541 OFFCURVE",
"350 608 OFFCURVE",
"406 608 CURVE SMOOTH",
"460 608 OFFCURVE",
"518 554 OFFCURVE",
"518 492 CURVE SMOOTH",
"518 419 OFFCURVE",
"437 361 OFFCURVE",
"405 346 CURVE",
"457 328 OFFCURVE",
"502 284 OFFCURVE",
"502 206 CURVE SMOOTH",
"502 121 OFFCURVE",
"421 17 OFFCURVE",
"242 17 CURVE SMOOTH",
"121 17 OFFCURVE",
"25 83 OFFCURVE",
"25 180 CURVE SMOOTH",
"25 278 OFFCURVE",
"129 337 OFFCURVE",
"162 337 CURVE SMOOTH",
"191 337 OFFCURVE",
"149 279 OFFCURVE",
"149 210 CURVE SMOOTH",
"149 168 OFFCURVE",
"155 119 OFFCURVE",
"233 119 CURVE SMOOTH",
"304 119 OFFCURVE",
"360 155 OFFCURVE",
"360 226 CURVE SMOOTH",
"360 269 OFFCURVE",
"345 290 OFFCURVE",
"322 290 CURVE SMOOTH",
"300 290 OFFCURVE",
"285 286 OFFCURVE",
"268 286 CURVE SMOOTH",
"249 286 OFFCURVE",
"244 298 OFFCURVE",
"244 320 CURVE SMOOTH",
"244 373 OFFCURVE",
"248 387 OFFCURVE",
"279 387 CURVE SMOOTH",
"326 387 OFFCURVE",
"383 384 OFFCURVE",
"383 440 CURVE SMOOTH",
"383 477 OFFCURVE",
"380 515 OFFCURVE",
"353 515 CURVE SMOOTH",
"339 515 OFFCURVE",
"300 502 OFFCURVE",
"287 502 CURVE SMOOTH"
);
}
);
};
layerId = "B0B60A8F-2DEB-4A58-A43B-60A0DADABD8F";
paths = (
{
closed = 1;
nodes = (
"742 538 OFFCURVE",
"719 361 OFFCURVE",
"708 174 CURVE SMOOTH",
"704 107 OFFCURVE",
"642 -21 OFFCURVE",
"601 -21 CURVE SMOOTH",
"570 -21 OFFCURVE",
"575 14 OFFCURVE",
"581 56 CURVE SMOOTH",
"595 162 OFFCURVE",
"629 541 OFFCURVE",
"629 541 CURVE",
"742 538 LINE"
);
},
{
closed = 1;
nodes = (
"848 606 OFFCURVE",
"855 599 OFFCURVE",
"850 584 CURVE SMOOTH",
"833 531 LINE SMOOTH",
"826 509 OFFCURVE",
"813 512 OFFCURVE",
"784 512 CURVE",
"576 512 LINE SMOOTH",
"557 512 OFFCURVE",
"550 519 OFFCURVE",
"555 534 CURVE SMOOTH",
"571 587 LINE SMOOTH",
"578 609 OFFCURVE",
"591 606 OFFCURVE",
"620 606 CURVE",
"829 606 LINE SMOOTH"
);
},
{
closed = 1;
nodes = (
"289 512 OFFCURVE",
"284 514 OFFCURVE",
"284 521 CURVE SMOOTH",
"284 546 OFFCURVE",
"370 608 OFFCURVE",
"407 608 CURVE SMOOTH",
"449 608 OFFCURVE",
"508 547 OFFCURVE",
"508 487 CURVE SMOOTH",
"508 419 OFFCURVE",
"432 366 OFFCURVE",
"400 351 CURVE",
"450 331 OFFCURVE",
"492 277 OFFCURVE",
"492 211 CURVE SMOOTH",
"492 121 OFFCURVE",
"405 27 OFFCURVE",
"242 27 CURVE SMOOTH",
"121 27 OFFCURVE",
"34 97 OFFCURVE",
"34 183 CURVE SMOOTH",
"34 267 OFFCURVE",
"135 337 OFFCURVE",
"162 337 CURVE SMOOTH",
"191 337 OFFCURVE",
"141 278 OFFCURVE",
"141 199 CURVE SMOOTH",
"141 149 OFFCURVE",
"160 110 OFFCURVE",
"233 110 CURVE SMOOTH",
"313 110 OFFCURVE",
"372 146 OFFCURVE",
"372 226 CURVE SMOOTH",
"372 248 OFFCURVE",
"369 299 OFFCURVE",
"322 299 CURVE SMOOTH",
"300 299 OFFCURVE",
"286 295 OFFCURVE",
"269 295 CURVE SMOOTH",
"257 295 OFFCURVE",
"254 303 OFFCURVE",
"254 320 CURVE SMOOTH",
"254 373 OFFCURVE",
"263 379 OFFCURVE",
"285 379 CURVE SMOOTH",
"347 379 OFFCURVE",
"395 384 OFFCURVE",
"395 440 CURVE SMOOTH",
"395 477 OFFCURVE",
"387 525 OFFCURVE",
"361 525 CURVE SMOOTH",
"347 525 OFFCURVE",
"310 512 OFFCURVE",
"296 512 CURVE SMOOTH"
);
},
{
closed = 1;
nodes = (
"439 393 LINE",
"480 367 OFFCURVE",
"553 345 OFFCURVE",
"619 375 CURVE",
"609 267 LINE",
"510 270 OFFCURVE",
"447 313 OFFCURVE",
"400 351 CURVE"
);
}
);
width = 784;
}
);
unicode = 0905;
},
{
glyphname = "aa-deva";
lastChange = "2020-11-21 11:46:39 +0000";
layers = (
{
layerId = "555B79C6-6D98-46E7-9307-77C37975E414";
paths = (
{
closed = 1;
nodes = (
"1022 538 OFFCURVE",
"1001 361 OFFCURVE",
"989 174 CURVE SMOOTH",
"984 94 OFFCURVE",
"920 -21 OFFCURVE",
"857 -21 CURVE SMOOTH",
"821 -21 OFFCURVE",
"833 27 OFFCURVE",
"838 63 CURVE SMOOTH",
"845 117 OFFCURVE",
"862 295 OFFCURVE",
"885 541 CURVE",
"1022 538 LINE"
);
},
{
closed = 1;
nodes = (
"786 538 OFFCURVE",
"765 361 OFFCURVE",
"753 174 CURVE SMOOTH",
"748 94 OFFCURVE",
"684 -21 OFFCURVE",
"621 -21 CURVE SMOOTH",
"585 -21 OFFCURVE",
"597 27 OFFCURVE",
"602 63 CURVE SMOOTH",
"609 117 OFFCURVE",
"626 295 OFFCURVE",
"649 541 CURVE",
"786 538 LINE"
);
},
{
closed = 1;
nodes = (
"1137 629 OFFCURVE",
"1146 622 OFFCURVE",
"1141 607 CURVE SMOOTH",
"1116 529 LINE SMOOTH",
"1109 508 OFFCURVE",
"1099 510 OFFCURVE",
"1082 510 CURVE",
"595 510 LINE SMOOTH",
"576 510 OFFCURVE",
"569 517 OFFCURVE",
"574 532 CURVE SMOOTH",
"599 610 LINE SMOOTH",
"606 631 OFFCURVE",
"616 629 OFFCURVE",
"648 629 CURVE",
"1118 629 LINE SMOOTH"
);
},
{
closed = 1;
nodes = (
"472 395 LINE",
"510 373 OFFCURVE",
"578 350 OFFCURVE",
"639 384 CURVE",
"628 259 LINE",
"520 262 OFFCURVE",
"474 308 OFFCURVE",
"425 346 CURVE"
);
},
{
closed = 1;
nodes = (
"296 502 OFFCURVE",
"291 507 OFFCURVE",
"291 516 CURVE SMOOTH",
"291 541 OFFCURVE",
"370 608 OFFCURVE",
"426 608 CURVE SMOOTH",
"480 608 OFFCURVE",
"538 554 OFFCURVE",
"538 492 CURVE SMOOTH",
"538 419 OFFCURVE",
"457 361 OFFCURVE",
"425 346 CURVE",
"477 328 OFFCURVE",
"522 284 OFFCURVE",
"522 206 CURVE SMOOTH",
"522 121 OFFCURVE",
"441 17 OFFCURVE",
"262 17 CURVE SMOOTH",
"141 17 OFFCURVE",
"45 83 OFFCURVE",
"45 180 CURVE SMOOTH",
"45 278 OFFCURVE",
"149 337 OFFCURVE",
"182 337 CURVE SMOOTH",
"211 337 OFFCURVE",
"169 279 OFFCURVE",
"169 210 CURVE SMOOTH",
"169 168 OFFCURVE",
"175 119 OFFCURVE",
"253 119 CURVE SMOOTH",
"324 119 OFFCURVE",
"380 155 OFFCURVE",
"380 226 CURVE SMOOTH",
"380 269 OFFCURVE",
"365 290 OFFCURVE",
"342 290 CURVE SMOOTH",
"320 290 OFFCURVE",
"305 286 OFFCURVE",
"288 286 CURVE SMOOTH",
"269 286 OFFCURVE",
"264 298 OFFCURVE",
"264 320 CURVE SMOOTH",
"264 373 OFFCURVE",
"268 387 OFFCURVE",
"299 387 CURVE SMOOTH",
"346 387 OFFCURVE",
"403 384 OFFCURVE",
"403 440 CURVE SMOOTH",
"403 477 OFFCURVE",
"400 515 OFFCURVE",
"373 515 CURVE SMOOTH",
"359 515 OFFCURVE",
"320 502 OFFCURVE",
"307 502 CURVE SMOOTH"
);
}
);
width = 1082;
},
{
background = {
paths = (
{
closed = 1;
nodes = (
"1002 538 OFFCURVE",
"981 361 OFFCURVE",
"969 174 CURVE SMOOTH",
"964 94 OFFCURVE",
"900 -21 OFFCURVE",
"837 -21 CURVE SMOOTH",
"801 -21 OFFCURVE",
"813 27 OFFCURVE",
"818 63 CURVE SMOOTH",
"825 117 OFFCURVE",
"842 295 OFFCURVE",
"865 541 CURVE",
"1002 538 LINE"
);
},
{
closed = 1;
nodes = (
"766 538 OFFCURVE",
"745 361 OFFCURVE",
"733 174 CURVE SMOOTH",
"728 94 OFFCURVE",
"664 -21 OFFCURVE",
"601 -21 CURVE SMOOTH",
"565 -21 OFFCURVE",
"577 27 OFFCURVE",
"582 63 CURVE SMOOTH",
"589 117 OFFCURVE",
"606 295 OFFCURVE",
"629 541 CURVE",
"766 538 LINE"
);
},
{
closed = 1;
nodes = (
"1117 629 OFFCURVE",
"1126 622 OFFCURVE",
"1121 607 CURVE SMOOTH",
"1096 529 LINE SMOOTH",
"1089 508 OFFCURVE",
"1079 510 OFFCURVE",
"1062 510 CURVE",
"575 510 LINE SMOOTH",
"556 510 OFFCURVE",
"549 517 OFFCURVE",
"554 532 CURVE SMOOTH",
"579 610 LINE SMOOTH",
"586 631 OFFCURVE",
"596 629 OFFCURVE",
"628 629 CURVE",
"1098 629 LINE SMOOTH"
);
},
{
closed = 1;
nodes = (
"452 395 LINE",
"490 373 OFFCURVE",
"558 350 OFFCURVE",
"619 384 CURVE",
"608 259 LINE",
"500 262 OFFCURVE",
"454 308 OFFCURVE",
"405 346 CURVE"
);
},
{
closed = 1;
nodes = (
"276 502 OFFCURVE",
"271 507 OFFCURVE",
"271 516 CURVE SMOOTH",
"271 541 OFFCURVE",
"350 608 OFFCURVE",
"406 608 CURVE SMOOTH",
"460 608 OFFCURVE",
"518 554 OFFCURVE",
"518 492 CURVE SMOOTH",
"518 419 OFFCURVE",
"437 361 OFFCURVE",
"405 346 CURVE",
"457 328 OFFCURVE",
"502 284 OFFCURVE",
"502 206 CURVE SMOOTH",
"502 121 OFFCURVE",
"421 17 OFFCURVE",
"242 17 CURVE SMOOTH",
"121 17 OFFCURVE",
"25 83 OFFCURVE",
"25 180 CURVE SMOOTH",
"25 278 OFFCURVE",
"129 337 OFFCURVE",
"162 337 CURVE SMOOTH",
"191 337 OFFCURVE",
"149 279 OFFCURVE",
"149 210 CURVE SMOOTH",
"149 168 OFFCURVE",
"155 119 OFFCURVE",
"233 119 CURVE SMOOTH",
"304 119 OFFCURVE",
"360 155 OFFCURVE",
"360 226 CURVE SMOOTH",
"360 269 OFFCURVE",
"345 290 OFFCURVE",
"322 290 CURVE SMOOTH",
"300 290 OFFCURVE",
"285 286 OFFCURVE",
"268 286 CURVE SMOOTH",
"249 286 OFFCURVE",
"244 298 OFFCURVE",
"244 320 CURVE SMOOTH",
"244 373 OFFCURVE",
"248 387 OFFCURVE",
"279 387 CURVE SMOOTH",
"326 387 OFFCURVE",
"383 384 OFFCURVE",
"383 440 CURVE SMOOTH",
"383 477 OFFCURVE",
"380 515 OFFCURVE",
"353 515 CURVE SMOOTH",
"339 515 OFFCURVE",
"300 502 OFFCURVE",
"287 502 CURVE SMOOTH"
);
}
);
};
layerId = "B0B60A8F-2DEB-4A58-A43B-60A0DADABD8F";
paths = (
{
closed = 1;
nodes = (
"742 538 OFFCURVE",
"719 361 OFFCURVE",
"708 174 CURVE SMOOTH",
"704 107 OFFCURVE",
"642 -21 OFFCURVE",
"601 -21 CURVE SMOOTH",
"570 -21 OFFCURVE",
"575 14 OFFCURVE",
"581 56 CURVE SMOOTH",
"595 162 OFFCURVE",
"629 541 OFFCURVE",
"629 541 CURVE",
"742 538 LINE"
);
},
{
closed = 1;
nodes = (
"1074 606 OFFCURVE",
"1081 599 OFFCURVE",
"1076 584 CURVE SMOOTH",
"1059 531 LINE SMOOTH",
"1052 509 OFFCURVE",
"1039 512 OFFCURVE",
"1010 512 CURVE",
"576 512 LINE SMOOTH",
"557 512 OFFCURVE",
"550 519 OFFCURVE",
"555 534 CURVE SMOOTH",
"571 587 LINE SMOOTH",
"578 609 OFFCURVE",
"591 606 OFFCURVE",
"620 606 CURVE",
"1055 606 LINE SMOOTH"
);
},
{
closed = 1;
nodes = (
"289 512 OFFCURVE",
"284 514 OFFCURVE",
"284 521 CURVE SMOOTH",
"284 546 OFFCURVE",
"370 608 OFFCURVE",
"407 608 CURVE SMOOTH",
"449 608 OFFCURVE",
"508 547 OFFCURVE",
"508 487 CURVE SMOOTH",
"508 419 OFFCURVE",
"432 366 OFFCURVE",
"400 351 CURVE",
"450 331 OFFCURVE",
"492 277 OFFCURVE",
"492 211 CURVE SMOOTH",
"492 121 OFFCURVE",
"405 27 OFFCURVE",
"242 27 CURVE SMOOTH",
"121 27 OFFCURVE",
"34 97 OFFCURVE",
"34 183 CURVE SMOOTH",
"34 267 OFFCURVE",
"135 337 OFFCURVE",
"162 337 CURVE SMOOTH",
"191 337 OFFCURVE",
"141 278 OFFCURVE",
"141 199 CURVE SMOOTH",
"141 149 OFFCURVE",
"160 110 OFFCURVE",
"233 110 CURVE SMOOTH",
"313 110 OFFCURVE",
"372 146 OFFCURVE",
"372 226 CURVE SMOOTH",
"372 248 OFFCURVE",
"369 299 OFFCURVE",
"322 299 CURVE SMOOTH",
"300 299 OFFCURVE",
"286 295 OFFCURVE",
"269 295 CURVE SMOOTH",
"257 295 OFFCURVE",
"254 303 OFFCURVE",
"254 320 CURVE SMOOTH",
"254 373 OFFCURVE",
"263 379 OFFCURVE",
"285 379 CURVE SMOOTH",
"347 379 OFFCURVE",
"395 384 OFFCURVE",
"395 440 CURVE SMOOTH",
"395 477 OFFCURVE",
"387 525 OFFCURVE",
"361 525 CURVE SMOOTH",
"347 525 OFFCURVE",
"310 512 OFFCURVE",
"296 512 CURVE SMOOTH"
);
},
{
closed = 1;
nodes = (
"977 538 OFFCURVE",
"954 361 OFFCURVE",
"943 174 CURVE SMOOTH",
"939 107 OFFCURVE",
"877 -21 OFFCURVE",
"836 -21 CURVE SMOOTH",
"805 -21 OFFCURVE",
"810 14 OFFCURVE",
"816 56 CURVE SMOOTH",
"830 162 OFFCURVE",
"864 541 OFFCURVE",
"864 541 CURVE",
"977 538 LINE"
);
},
{
closed = 1;
nodes = (
"439 393 LINE",
"480 367 OFFCURVE",
"553 345 OFFCURVE",
"619 375 CURVE",
"609 267 LINE",
"510 270 OFFCURVE",
"447 313 OFFCURVE",
"400 351 CURVE"
);
}
);
width = 1010;
}
);
unicode = 0906;
},
{
glyphname = "i-deva";
lastChange = "2020-11-26 12:17:16 +0000";
layers = (
{
guideLines = (
{
position = "{833, 473}";
},
{
locked = 1;
position = "{715, 314}";
}
);
layerId = "555B79C6-6D98-46E7-9307-77C37975E414";
paths = (
{
closed = 1;
nodes = (
"0 629 LINE",
"-32 629 OFFCURVE",
"-42 631 OFFCURVE",
"-49 610 CURVE SMOOTH",
"-74 532 LINE SMOOTH",
"-79 517 OFFCURVE",
"-72 510 OFFCURVE",
"-53 510 CURVE SMOOTH",
"543 510 LINE",
"575 510 OFFCURVE",
"585 508 OFFCURVE",
"592 529 CURVE SMOOTH",
"617 607 LINE SMOOTH",
"622 622 OFFCURVE",
"615 629 OFFCURVE",
"596 629 CURVE SMOOTH"
);
},
{
closed = 1;
nodes = (
"345 541 LINE",
"343 520 OFFCURVE",
"336 446 OFFCURVE",
"332 400 CURVE SMOOTH",
"329 369 OFFCURVE",
"327 363 OFFCURVE",
"348 363 CURVE SMOOTH",
"375 363 OFFCURVE",
"328 363 OFFCURVE",
"373 363 CURVE SMOOTH",
"419 363 OFFCURVE",
"468 416 OFFCURVE",
"472 451 CURVE SMOOTH",
"476 483 OFFCURVE",
"479 514 OFFCURVE",
"482 538 CURVE"
);
},
{
closed = 1;
nodes = (
"401 479 LINE",
"310 471 OFFCURVE",
"240 473 OFFCURVE",
"198 473 CURVE SMOOTH",
"121 473 OFFCURVE",
"63 378 OFFCURVE",
"64 319 CURVE SMOOTH",
"65 224 OFFCURVE",
"165 182 OFFCURVE",
"220 182 CURVE SMOOTH",
"257 182 OFFCURVE",
"306 211 OFFCURVE",
"320 211 CURVE SMOOTH",
"334 211 OFFCURVE",
"353 183 OFFCURVE",
"353 167 CURVE SMOOTH",
"353 138 OFFCURVE",
"202 113 OFFCURVE",
"157 113 CURVE SMOOTH",
"128 113 OFFCURVE",
"120 139 OFFCURVE",
"102 139 CURVE SMOOTH",
"81 139 OFFCURVE",
"49 59 OFFCURVE",
"49 34 CURVE SMOOTH",
"49 12 OFFCURVE",
"73 22 OFFCURVE",
"95 -6 CURVE SMOOTH",
"173 -106 OFFCURVE",
"271 -177 OFFCURVE",
"309 -177 CURVE SMOOTH",
"341 -177 OFFCURVE",
"396 -105 OFFCURVE",
"396 -63 CURVE SMOOTH",
"396 -48 OFFCURVE",
"392 -15 OFFCURVE",
"382 -15 CURVE SMOOTH",
"373 -15 OFFCURVE",
"362 -47 OFFCURVE",
"353 -47 CURVE SMOOTH",
"333 -47 OFFCURVE",
"252 -5 OFFCURVE",
"232 13 CURVE",
"324 13 OFFCURVE",
"492 70 OFFCURVE",
"492 163 CURVE SMOOTH",
"492 227 OFFCURVE",
"440 316 OFFCURVE",
"358 316 CURVE SMOOTH",
"303 316 OFFCURVE",
"262 291 OFFCURVE",
"239 291 CURVE SMOOTH",
"224 291 OFFCURVE",
"204 309 OFFCURVE",
"204 322 CURVE SMOOTH",
"204 336 OFFCURVE",
"224 363 OFFCURVE",
"243 363 CURVE SMOOTH",
"271 363 OFFCURVE",
"331 363 OFFCURVE",
"362 363 CURVE SMOOTH",
"379 363 OFFCURVE",
"389 374 OFFCURVE",
"392 400 CURVE SMOOTH"
);
}
);
width = 543;
},
{
background = {
paths = (
{
closed = 1;
nodes = (
"0 629 LINE",
"-32 629 OFFCURVE",
"-42 631 OFFCURVE",
"-49 610 CURVE SMOOTH",
"-74 532 LINE SMOOTH",
"-79 517 OFFCURVE",
"-72 510 OFFCURVE",
"-53 510 CURVE SMOOTH",
"543 510 LINE",
"575 510 OFFCURVE",
"585 508 OFFCURVE",
"592 529 CURVE SMOOTH",
"617 607 LINE SMOOTH",
"622 622 OFFCURVE",
"615 629 OFFCURVE",
"596 629 CURVE SMOOTH"
);
},
{
closed = 1;
nodes = (
"345 541 LINE",
"343 520 OFFCURVE",
"336 446 OFFCURVE",
"332 400 CURVE SMOOTH",
"329 369 OFFCURVE",
"327 363 OFFCURVE",
"348 363 CURVE SMOOTH",
"375 363 OFFCURVE",
"328 363 OFFCURVE",
"373 363 CURVE SMOOTH",
"419 363 OFFCURVE",
"468 416 OFFCURVE",
"472 451 CURVE SMOOTH",
"476 483 OFFCURVE",
"479 514 OFFCURVE",
"482 538 CURVE"
);
},
{
closed = 1;
nodes = (
"401 479 LINE",
"310 471 OFFCURVE",
"240 473 OFFCURVE",
"198 473 CURVE SMOOTH",
"121 473 OFFCURVE",
"63 378 OFFCURVE",
"64 319 CURVE SMOOTH",
"65 224 OFFCURVE",
"165 182 OFFCURVE",
"220 182 CURVE SMOOTH",
"257 182 OFFCURVE",
"306 211 OFFCURVE",
"320 211 CURVE SMOOTH",
"334 211 OFFCURVE",
"353 183 OFFCURVE",
"353 167 CURVE SMOOTH",
"353 138 OFFCURVE",
"202 113 OFFCURVE",
"157 113 CURVE SMOOTH",
"128 113 OFFCURVE",
"120 139 OFFCURVE",
"102 139 CURVE SMOOTH",
"81 139 OFFCURVE",
"49 59 OFFCURVE",
"49 34 CURVE SMOOTH",
"49 12 OFFCURVE",
"73 22 OFFCURVE",
"95 -6 CURVE SMOOTH",
"173 -106 OFFCURVE",
"271 -177 OFFCURVE",
"309 -177 CURVE SMOOTH",
"341 -177 OFFCURVE",
"396 -105 OFFCURVE",
"396 -63 CURVE SMOOTH",
"396 -48 OFFCURVE",
"392 -15 OFFCURVE",
"382 -15 CURVE SMOOTH",
"373 -15 OFFCURVE",
"362 -47 OFFCURVE",
"353 -47 CURVE SMOOTH",
"333 -47 OFFCURVE",
"252 -5 OFFCURVE",
"232 13 CURVE",
"324 13 OFFCURVE",
"492 70 OFFCURVE",
"492 163 CURVE SMOOTH",
"492 227 OFFCURVE",
"440 316 OFFCURVE",
"358 316 CURVE SMOOTH",
"303 316 OFFCURVE",
"262 291 OFFCURVE",
"239 291 CURVE SMOOTH",
"224 291 OFFCURVE",
"204 309 OFFCURVE",
"204 322 CURVE SMOOTH",
"204 336 OFFCURVE",
"224 363 OFFCURVE",
"243 363 CURVE SMOOTH",
"271 363 OFFCURVE",
"331 363 OFFCURVE",
"362 363 CURVE SMOOTH",
"379 363 OFFCURVE",
"389 374 OFFCURVE",
"392 400 CURVE SMOOTH"
);
}
);
};
layerId = "B0B60A8F-2DEB-4A58-A43B-60A0DADABD8F";
paths = (
{
closed = 1;
nodes = (
"0 606 LINE",
"-29 606 OFFCURVE",
"-42 609 OFFCURVE",
"-49 587 CURVE SMOOTH",
"-65 534 LINE SMOOTH",
"-70 519 OFFCURVE",
"-63 512 OFFCURVE",
"-44 512 CURVE SMOOTH",
"535 512 LINE",
"564 512 OFFCURVE",
"577 509 OFFCURVE",
"584 531 CURVE SMOOTH",
"601 584 LINE SMOOTH",
"606 599 OFFCURVE",
"599 606 OFFCURVE",
"580 606 CURVE SMOOTH"
);
},
{
closed = 1;
nodes = (
"355 541 LINE",
"353 520 OFFCURVE",
"346 456 OFFCURVE",
"342 410 CURVE SMOOTH",
"339 379 OFFCURVE",
"337 373 OFFCURVE",
"358 373 CURVE SMOOTH",
"369 373 OFFCURVE",
"318 373 OFFCURVE",
"363 373 CURVE SMOOTH",
"409 373 OFFCURVE",
"452 416 OFFCURVE",
"456 451 CURVE SMOOTH",
"460 483 OFFCURVE",
"463 514 OFFCURVE",
"466 538 CURVE"
);
},
{
closed = 1;
nodes = (
"401 469 LINE",
"310 461 OFFCURVE",
"240 463 OFFCURVE",
"204 463 CURVE SMOOTH",
"138 463 OFFCURVE",
"75 378 OFFCURVE",
"76 319 CURVE SMOOTH",
"77 242 OFFCURVE",
"164 194 OFFCURVE",
"219 194 CURVE SMOOTH",
"256 194 OFFCURVE",
"306 223 OFFCURVE",
"320 223 CURVE SMOOTH",
"345 223 OFFCURVE",
"365 183 OFFCURVE",
"365 163 CURVE SMOOTH",
"365 125 OFFCURVE",
"202 101 OFFCURVE",
"158 101 CURVE SMOOTH",
"129 101 OFFCURVE",
"118 125 OFFCURVE",
"104 125 CURVE SMOOTH",
"88 125 OFFCURVE",
"61 59 OFFCURVE",
"61 38 CURVE SMOOTH",
"61 19 OFFCURVE",
"76 32 OFFCURVE",
"98 4 CURVE SMOOTH",
"176 -96 OFFCURVE",
"277 -165 OFFCURVE",
"308 -165 CURVE SMOOTH",
"332 -165 OFFCURVE",
"386 -97 OFFCURVE",
"386 -63 CURVE SMOOTH",
"386 -48 OFFCURVE",
"385 -28 OFFCURVE",
"375 -28 CURVE SMOOTH",
"366 -28 OFFCURVE",
"356 -60 OFFCURVE",
"347 -60 CURVE SMOOTH",
"327 -60 OFFCURVE",
"242 -14 OFFCURVE",
"210 21 CURVE",
"302 21 OFFCURVE",
"482 82 OFFCURVE",
"482 163 CURVE SMOOTH",
"482 226 OFFCURVE",
"421 306 OFFCURVE",
"358 306 CURVE SMOOTH",
"308 306 OFFCURVE",
"262 279 OFFCURVE",
"239 279 CURVE SMOOTH",
"224 279 OFFCURVE",
"192 299 OFFCURVE",
"192 322 CURVE SMOOTH",
"192 349 OFFCURVE",
"218 373 OFFCURVE",
"238 373 CURVE SMOOTH",
"271 373 OFFCURVE",
"331 373 OFFCURVE",
"362 373 CURVE SMOOTH",
"379 373 OFFCURVE",
"388 384 OFFCURVE",
"392 410 CURVE SMOOTH"
);
}
);
width = 535;
}
);
unicode = 0907;
},
{
glyphname = "ii-deva";
lastChange = "2020-11-26 12:31:27 +0000";
layers = (
{
background = {
paths = (
{
closed = 1;
nodes = (
"518 541 LINE",
"498 428 OFFCURVE",
"454 340 OFFCURVE",
"508 340 CURVE SMOOTH",
"565 340 OFFCURVE",
"594 338 OFFCURVE",
"604 366 CURVE SMOOTH",
"621 413 OFFCURVE",
"638 510 OFFCURVE",
"642 541 CURVE"
);
},
{
closed = 1;
nodes = (
"296 458 LINE",
"234 458 OFFCURVE",
"168 425 OFFCURVE",
"169 315 CURVE SMOOTH",
"170 164 OFFCURVE",
"294 180 OFFCURVE",
"488 185 CURVE",
"487 134 OFFCURVE",
"413 121 OFFCURVE",
"336 121 CURVE SMOOTH",
"167 121 OFFCURVE",
"164 236 OFFCURVE",
"135 236 CURVE SMOOTH",
"105 236 OFFCURVE",
"69 156 OFFCURVE",
"69 121 CURVE SMOOTH",
"69 82 OFFCURVE",
"90 106 OFFCURVE",
"119 103 CURVE SMOOTH",
"142 101 OFFCURVE",
"185 -120 OFFCURVE",
"354 -128 CURVE SMOOTH",
"454 -133 OFFCURVE",
"505 9 OFFCURVE",
"478 9 CURVE SMOOTH",
"465 9 OFFCURVE",
"407 -35 OFFCURVE",
"381 -35 CURVE SMOOTH",
"360 -35 OFFCURVE",
"364 -32 OFFCURVE",
"306 17 CURVE",
"391 -17 OFFCURVE",
"602 47 OFFCURVE",
"602 187 CURVE SMOOTH",
"602 243 OFFCURVE",
"601 303 OFFCURVE",
"508 303 CURVE SMOOTH",
"453 303 OFFCURVE",
"409 301 OFFCURVE",
"363 302 CURVE SMOOTH",
"319 303 OFFCURVE",
"306 318 OFFCURVE",
"306 339 CURVE SMOOTH",
"306 339 OFFCURVE",
"468 340 OFFCURVE",
"508 340 CURVE SMOOTH",
"555 340 OFFCURVE",
"553 351 OFFCURVE",
"553 377 CURVE SMOOTH",
"554 458 LINE"
);
},
{
closed = 1;
nodes = (
"518 541 LINE",
"498 428 OFFCURVE",
"454 340 OFFCURVE",
"508 340 CURVE SMOOTH",
"565 340 OFFCURVE",
"594 338 OFFCURVE",
"604 366 CURVE SMOOTH",
"621 413 OFFCURVE",
"638 510 OFFCURVE",
"642 541 CURVE"
);
},
{
closed = 1;
nodes = (
"296 458 LINE",
"234 458 OFFCURVE",
"168 425 OFFCURVE",
"169 315 CURVE SMOOTH",
"170 164 OFFCURVE",
"294 180 OFFCURVE",
"488 185 CURVE",
"487 134 OFFCURVE",
"413 121 OFFCURVE",
"336 121 CURVE SMOOTH",
"167 121 OFFCURVE",
"164 236 OFFCURVE",
"135 236 CURVE SMOOTH",
"105 236 OFFCURVE",
"69 156 OFFCURVE",
"69 121 CURVE SMOOTH",
"69 82 OFFCURVE",
"90 106 OFFCURVE",
"119 103 CURVE SMOOTH",
"142 101 OFFCURVE",
"185 -120 OFFCURVE",
"354 -128 CURVE SMOOTH",
"454 -133 OFFCURVE",
"505 9 OFFCURVE",
"478 9 CURVE SMOOTH",
"465 9 OFFCURVE",
"407 -35 OFFCURVE",
"381 -35 CURVE SMOOTH",
"360 -35 OFFCURVE",
"364 -32 OFFCURVE",
"306 17 CURVE",
"391 -17 OFFCURVE",
"602 47 OFFCURVE",
"602 187 CURVE SMOOTH",
"602 243 OFFCURVE",
"601 303 OFFCURVE",
"508 303 CURVE SMOOTH",
"453 303 OFFCURVE",
"409 301 OFFCURVE",
"363 302 CURVE SMOOTH",
"319 303 OFFCURVE",
"306 318 OFFCURVE",
"306 339 CURVE SMOOTH",
"306 339 OFFCURVE",
"468 340 OFFCURVE",
"508 340 CURVE SMOOTH",
"555 340 OFFCURVE",
"553 351 OFFCURVE",
"553 377 CURVE SMOOTH",
"554 458 LINE"
);
}
);
};
layerId = "555B79C6-6D98-46E7-9307-77C37975E414";
paths = (
{
closed = 1;
nodes = (
"543 687 OFFCURVE",
"635 737 OFFCURVE",
"634 771 CURVE SMOOTH",
"633 813 OFFCURVE",
"548 883 OFFCURVE",
"467 883 CURVE SMOOTH",
"341 883 OFFCURVE",
"265 760 OFFCURVE",
"265 607 CURVE",
"399 607 LINE",
"399 704 OFFCURVE",
"423 788 OFFCURVE",
"460 788 CURVE SMOOTH",
"479 788 OFFCURVE",
"507 754 OFFCURVE",
"507 735 CURVE SMOOTH",
"507 722 OFFCURVE",
"477 713 OFFCURVE",
"477 699 CURVE SMOOTH",
"477 691 OFFCURVE",
"495 687 OFFCURVE",
"509 687 CURVE SMOOTH"
);
},
{
closed = 1;
nodes = (
"0 629 LINE",
"-32 629 OFFCURVE",
"-42 631 OFFCURVE",
"-49 610 CURVE SMOOTH",
"-74 532 LINE SMOOTH",
"-79 517 OFFCURVE",
"-72 510 OFFCURVE",
"-53 510 CURVE SMOOTH",
"543 510 LINE",
"575 510 OFFCURVE",
"585 508 OFFCURVE",
"592 529 CURVE SMOOTH",
"617 607 LINE SMOOTH",
"622 622 OFFCURVE",
"615 629 OFFCURVE",
"596 629 CURVE SMOOTH"
);
},
{
closed = 1;
nodes = (
"345 541 LINE",
"343 520 OFFCURVE",
"336 446 OFFCURVE",
"332 400 CURVE SMOOTH",
"329 369 OFFCURVE",
"327 363 OFFCURVE",
"348 363 CURVE SMOOTH",
"375 363 OFFCURVE",
"328 363 OFFCURVE",
"373 363 CURVE SMOOTH",
"419 363 OFFCURVE",
"468 416 OFFCURVE",
"472 451 CURVE SMOOTH",
"476 483 OFFCURVE",
"479 514 OFFCURVE",
"482 538 CURVE"
);
},
{
closed = 1;
nodes = (
"401 479 LINE",
"310 471 OFFCURVE",
"240 473 OFFCURVE",
"198 473 CURVE SMOOTH",
"121 473 OFFCURVE",
"63 378 OFFCURVE",
"64 319 CURVE SMOOTH",
"65 224 OFFCURVE",
"165 182 OFFCURVE",
"220 182 CURVE SMOOTH",
"257 182 OFFCURVE",
"306 211 OFFCURVE",
"320 211 CURVE SMOOTH",
"334 211 OFFCURVE",
"353 183 OFFCURVE",
"353 167 CURVE SMOOTH",
"353 138 OFFCURVE",
"202 113 OFFCURVE",
"157 113 CURVE SMOOTH",
"128 113 OFFCURVE",
"120 139 OFFCURVE",
"102 139 CURVE SMOOTH",
"81 139 OFFCURVE",
"49 59 OFFCURVE",
"49 34 CURVE SMOOTH",
"49 12 OFFCURVE",
"73 22 OFFCURVE",
"95 -6 CURVE SMOOTH",
"173 -106 OFFCURVE",
"271 -177 OFFCURVE",
"309 -177 CURVE SMOOTH",
"341 -177 OFFCURVE",
"396 -105 OFFCURVE",
"396 -63 CURVE SMOOTH",
"396 -48 OFFCURVE",
"392 -15 OFFCURVE",
"382 -15 CURVE SMOOTH",
"373 -15 OFFCURVE",
"362 -47 OFFCURVE",
"353 -47 CURVE SMOOTH",
"333 -47 OFFCURVE",
"252 -5 OFFCURVE",
"232 13 CURVE",
"324 13 OFFCURVE",
"492 70 OFFCURVE",
"492 163 CURVE SMOOTH",
"492 227 OFFCURVE",
"440 316 OFFCURVE",
"358 316 CURVE SMOOTH",
"303 316 OFFCURVE",
"262 291 OFFCURVE",
"239 291 CURVE SMOOTH",
"224 291 OFFCURVE",
"204 309 OFFCURVE",
"204 322 CURVE SMOOTH",
"204 336 OFFCURVE",
"224 363 OFFCURVE",
"243 363 CURVE SMOOTH",
"271 363 OFFCURVE",
"331 363 OFFCURVE",
"362 363 CURVE SMOOTH",
"379 363 OFFCURVE",
"389 374 OFFCURVE",
"392 400 CURVE SMOOTH"
);
}
);
width = 543;
},
{
background = {
paths = (
{
closed = 1;
nodes = (
"543 687 OFFCURVE",
"635 737 OFFCURVE",
"634 771 CURVE SMOOTH",
"633 813 OFFCURVE",
"548 883 OFFCURVE",
"467 883 CURVE SMOOTH",
"341 883 OFFCURVE",
"265 760 OFFCURVE",
"265 607 CURVE",
"399 607 LINE",
"399 704 OFFCURVE",
"423 788 OFFCURVE",
"460 788 CURVE SMOOTH",
"479 788 OFFCURVE",
"507 754 OFFCURVE",
"507 735 CURVE SMOOTH",
"507 722 OFFCURVE",
"477 713 OFFCURVE",
"477 699 CURVE SMOOTH",
"477 691 OFFCURVE",
"495 687 OFFCURVE",
"509 687 CURVE SMOOTH"
);
},
{
closed = 1;
nodes = (
"0 629 LINE",
"-32 629 OFFCURVE",
"-42 631 OFFCURVE",
"-49 610 CURVE SMOOTH",
"-74 532 LINE SMOOTH",
"-79 517 OFFCURVE",
"-72 510 OFFCURVE",
"-53 510 CURVE SMOOTH",
"543 510 LINE",
"575 510 OFFCURVE",
"585 508 OFFCURVE",
"592 529 CURVE SMOOTH",
"617 607 LINE SMOOTH",
"622 622 OFFCURVE",
"615 629 OFFCURVE",
"596 629 CURVE SMOOTH"
);
},
{
closed = 1;
nodes = (
"345 541 LINE",
"343 520 OFFCURVE",
"336 446 OFFCURVE",
"332 400 CURVE SMOOTH",
"329 369 OFFCURVE",
"327 363 OFFCURVE",
"348 363 CURVE SMOOTH",
"375 363 OFFCURVE",
"328 363 OFFCURVE",
"373 363 CURVE SMOOTH",
"419 363 OFFCURVE",
"468 416 OFFCURVE",
"472 451 CURVE SMOOTH",
"476 483 OFFCURVE",
"479 514 OFFCURVE",
"482 538 CURVE"
);
},
{
closed = 1;
nodes = (
"401 479 LINE",
"310 471 OFFCURVE",
"240 473 OFFCURVE",
"198 473 CURVE SMOOTH",
"121 473 OFFCURVE",
"63 378 OFFCURVE",
"64 319 CURVE SMOOTH",
"65 224 OFFCURVE",
"165 182 OFFCURVE",
"220 182 CURVE SMOOTH",
"257 182 OFFCURVE",
"306 211 OFFCURVE",
"320 211 CURVE SMOOTH",
"334 211 OFFCURVE",
"353 183 OFFCURVE",
"353 167 CURVE SMOOTH",
"353 138 OFFCURVE",
"202 113 OFFCURVE",
"157 113 CURVE SMOOTH",
"128 113 OFFCURVE",
"120 139 OFFCURVE",
"102 139 CURVE SMOOTH",
"81 139 OFFCURVE",
"49 59 OFFCURVE",
"49 34 CURVE SMOOTH",
"49 12 OFFCURVE",
"73 22 OFFCURVE",
"95 -6 CURVE SMOOTH",
"173 -106 OFFCURVE",
"271 -177 OFFCURVE",
"309 -177 CURVE SMOOTH",
"341 -177 OFFCURVE",
"396 -105 OFFCURVE",
"396 -63 CURVE SMOOTH",
"396 -48 OFFCURVE",
"392 -15 OFFCURVE",
"382 -15 CURVE SMOOTH",
"373 -15 OFFCURVE",
"362 -47 OFFCURVE",
"353 -47 CURVE SMOOTH",
"333 -47 OFFCURVE",
"252 -5 OFFCURVE",
"232 13 CURVE",
"324 13 OFFCURVE",
"492 70 OFFCURVE",
"492 163 CURVE SMOOTH",
"492 227 OFFCURVE",
"440 316 OFFCURVE",
"358 316 CURVE SMOOTH",
"303 316 OFFCURVE",
"262 291 OFFCURVE",
"239 291 CURVE SMOOTH",
"224 291 OFFCURVE",
"204 309 OFFCURVE",
"204 322 CURVE SMOOTH",
"204 336 OFFCURVE",
"224 363 OFFCURVE",
"243 363 CURVE SMOOTH",
"271 363 OFFCURVE",
"331 363 OFFCURVE",
"362 363 CURVE SMOOTH",
"379 363 OFFCURVE",
"389 374 OFFCURVE",
"392 400 CURVE SMOOTH"
);
}
);
};
layerId = "B0B60A8F-2DEB-4A58-A43B-60A0DADABD8F";
paths = (
{
closed = 1;
nodes = (
"0 606 LINE",
"-29 606 OFFCURVE",
"-42 609 OFFCURVE",
"-49 587 CURVE SMOOTH",
"-65 534 LINE SMOOTH",
"-70 519 OFFCURVE",
"-63 512 OFFCURVE",
"-44 512 CURVE SMOOTH",
"543 512 LINE",
"572 512 OFFCURVE",
"585 509 OFFCURVE",
"592 531 CURVE SMOOTH",
"609 584 LINE SMOOTH",
"614 599 OFFCURVE",
"607 606 OFFCURVE",
"588 606 CURVE SMOOTH"
);
},
{
closed = 1;
nodes = (
"355 541 LINE",
"353 520 OFFCURVE",
"346 456 OFFCURVE",
"342 410 CURVE SMOOTH",
"339 379 OFFCURVE",
"337 373 OFFCURVE",
"358 373 CURVE SMOOTH",
"369 373 OFFCURVE",
"318 373 OFFCURVE",
"363 373 CURVE SMOOTH",
"409 373 OFFCURVE",
"452 416 OFFCURVE",
"456 451 CURVE SMOOTH",
"460 483 OFFCURVE",
"463 514 OFFCURVE",
"466 538 CURVE"
);
},
{
closed = 1;
nodes = (
"401 469 LINE",
"310 461 OFFCURVE",
"240 463 OFFCURVE",
"204 463 CURVE SMOOTH",
"138 463 OFFCURVE",
"75 378 OFFCURVE",
"76 319 CURVE SMOOTH",
"77 242 OFFCURVE",
"164 194 OFFCURVE",
"219 194 CURVE SMOOTH",
"256 194 OFFCURVE",
"306 223 OFFCURVE",
"320 223 CURVE SMOOTH",
"345 223 OFFCURVE",
"365 183 OFFCURVE",
"365 163 CURVE SMOOTH",
"365 125 OFFCURVE",
"202 101 OFFCURVE",
"158 101 CURVE SMOOTH",
"129 101 OFFCURVE",
"118 125 OFFCURVE",
"104 125 CURVE SMOOTH",
"88 125 OFFCURVE",
"61 59 OFFCURVE",
"61 38 CURVE SMOOTH",
"61 19 OFFCURVE",
"76 32 OFFCURVE",
"98 4 CURVE SMOOTH",
"176 -96 OFFCURVE",
"277 -165 OFFCURVE",
"308 -165 CURVE SMOOTH",
"332 -165 OFFCURVE",
"386 -97 OFFCURVE",
"386 -63 CURVE SMOOTH",
"386 -48 OFFCURVE",
"385 -28 OFFCURVE",
"375 -28 CURVE SMOOTH",
"366 -28 OFFCURVE",
"356 -60 OFFCURVE",
"347 -60 CURVE SMOOTH",
"327 -60 OFFCURVE",
"242 -14 OFFCURVE",
"210 21 CURVE",
"302 21 OFFCURVE",
"482 82 OFFCURVE",
"482 163 CURVE SMOOTH",
"482 226 OFFCURVE",
"421 306 OFFCURVE",
"358 306 CURVE SMOOTH",
"308 306 OFFCURVE",
"262 279 OFFCURVE",
"239 279 CURVE SMOOTH",
"224 279 OFFCURVE",
"192 299 OFFCURVE",
"192 322 CURVE SMOOTH",
"192 349 OFFCURVE",
"218 373 OFFCURVE",
"238 373 CURVE SMOOTH",
"271 373 OFFCURVE",
"331 373 OFFCURVE",
"362 373 CURVE SMOOTH",
"379 373 OFFCURVE",
"388 384 OFFCURVE",
"392 410 CURVE SMOOTH"
);
},
{
closed = 1;
nodes = (
"543 697 OFFCURVE",
"622 744 OFFCURVE",
"621 771 CURVE SMOOTH",
"620 804 OFFCURVE",
"537 873 OFFCURVE",
"464 873 CURVE SMOOTH",
"350 873 OFFCURVE",
"275 750 OFFCURVE",
"275 597 CURVE",
"384 597 LINE",
"384 706 OFFCURVE",
"414 798 OFFCURVE",
"456 798 CURVE SMOOTH",
"487 798 OFFCURVE",
"516 757 OFFCURVE",
"516 738 CURVE SMOOTH",
"516 725 OFFCURVE",
"488 717 OFFCURVE",
"488 707 CURVE SMOOTH",
"488 701 OFFCURVE",
"495 697 OFFCURVE",
"509 697 CURVE SMOOTH"
);
}
);
width = 543;
}
);
unicode = 0908;
},
{
glyphname = "u-deva";
lastChange = "2020-11-21 11:08:47 +0000";
layers = (
{
background = {
paths = (
{
closed = 1;
nodes = (
"447 -39 OFFCURVE",
"586 58 OFFCURVE",
"586 213 CURVE SMOOTH",
"586 302 OFFCURVE",
"530 332 OFFCURVE",
"516 338 CURVE",
"561 371 OFFCURVE",
"581 414 OFFCURVE",
"581 446 CURVE SMOOTH",
"581 532 OFFCURVE",
"501 625 OFFCURVE",
"421 625 CURVE SMOOTH",
"364 625 OFFCURVE",
"279 547 OFFCURVE",
"279 496 CURVE SMOOTH",
"279 488 OFFCURVE",
"283 483 OFFCURVE",
"291 483 CURVE SMOOTH",
"307 483 OFFCURVE",
"361 513 OFFCURVE",
"379 513 CURVE SMOOTH",
"400 513 OFFCURVE",
"440 462 OFFCURVE",
"440 435 CURVE SMOOTH",
"440 406 OFFCURVE",
"407 389 OFFCURVE",
"365 378 CURVE SMOOTH",
"317 365 OFFCURVE",
"290 367 OFFCURVE",
"290 346 CURVE SMOOTH",
"290 320 OFFCURVE",
"308 246 OFFCURVE",
"334 246 CURVE SMOOTH",
"351 246 OFFCURVE",
"375 264 OFFCURVE",
"397 264 CURVE SMOOTH",
"418 264 OFFCURVE",
"438 221 OFFCURVE",
"438 177 CURVE SMOOTH",
"438 115 OFFCURVE",
"344 88 OFFCURVE",
"290 88 CURVE SMOOTH",
"211 88 OFFCURVE",
"179 187 OFFCURVE",
"179 281 CURVE SMOOTH",
"179 363 OFFCURVE",
"198 408 OFFCURVE",
"198 445 CURVE SMOOTH",
"198 458 OFFCURVE",
"197 468 OFFCURVE",
"184 468 CURVE SMOOTH",
"156 468 OFFCURVE",
"37 350 OFFCURVE",
"37 215 CURVE SMOOTH",
"37 81 OFFCURVE",
"131 -30 OFFCURVE",
"285 -35 CURVE SMOOTH"
);
}
);
};
layerId = "555B79C6-6D98-46E7-9307-77C37975E414";
paths = (
{
closed = 1;
nodes = (
"0 629 LINE",
"-32 629 OFFCURVE",
"-42 631 OFFCURVE",
"-49 610 CURVE SMOOTH",
"-74 532 LINE SMOOTH",
"-79 517 OFFCURVE",
"-72 510 OFFCURVE",
"-53 510 CURVE SMOOTH",
"641 510 LINE",
"673 510 OFFCURVE",
"683 508 OFFCURVE",
"690 529 CURVE SMOOTH",
"715 607 LINE SMOOTH",
"720 622 OFFCURVE",
"713 629 OFFCURVE",
"694 629 CURVE SMOOTH"
);
},
{
closed = 1;
nodes = (
"378 511 LINE",
"423 511 OFFCURVE",
"435 462 OFFCURVE",
"435 438 CURVE SMOOTH",
"435 402 OFFCURVE",
"411 390 OFFCURVE",
"365 378 CURVE SMOOTH",
"317 365 OFFCURVE",
"290 367 OFFCURVE",
"290 346 CURVE SMOOTH",
"290 320 OFFCURVE",
"308 246 OFFCURVE",
"334 246 CURVE SMOOTH",
"351 246 OFFCURVE",
"377 264 OFFCURVE",
"396 264 CURVE SMOOTH",
"414 264 OFFCURVE",
"438 229 OFFCURVE",
"438 179 CURVE SMOOTH",
"438 133 OFFCURVE",
"375 88 OFFCURVE",
"293 88 CURVE SMOOTH",
"228 88 OFFCURVE",
"187 150 OFFCURVE",
"187 235 CURVE SMOOTH",
"187 299 OFFCURVE",
"208 350 OFFCURVE",
"179 350 CURVE SMOOTH",
"146 350 OFFCURVE",
"62 267 OFFCURVE",
"62 163 CURVE SMOOTH",
"62 44 OFFCURVE",
"182 -24 OFFCURVE",
"294 -24 CURVE SMOOTH",
"466 -24 OFFCURVE",
"586 84 OFFCURVE",
"586 215 CURVE SMOOTH",
"586 273 OFFCURVE",
"544 322 OFFCURVE",
"508 338 CURVE",
"536 356 OFFCURVE",
"578 395 OFFCURVE",
"578 449 CURVE SMOOTH",
"578 492 OFFCURVE",
"562 519 OFFCURVE",
"550 533 CURVE"
);
}
);
width = 636;
},
{
background = {
paths = (
{
closed = 1;
nodes = (
"0 629 LINE",
"-32 629 OFFCURVE",
"-42 631 OFFCURVE",
"-49 610 CURVE SMOOTH",
"-74 532 LINE SMOOTH",
"-79 517 OFFCURVE",
"-72 510 OFFCURVE",
"-53 510 CURVE SMOOTH",
"641 510 LINE",
"673 510 OFFCURVE",
"683 508 OFFCURVE",
"690 529 CURVE SMOOTH",
"715 607 LINE SMOOTH",
"720 622 OFFCURVE",
"713 629 OFFCURVE",
"694 629 CURVE SMOOTH"
);
},
{
closed = 1;
nodes = (
"378 511 LINE",
"423 511 OFFCURVE",
"435 462 OFFCURVE",
"435 438 CURVE SMOOTH",
"435 402 OFFCURVE",
"411 390 OFFCURVE",
"365 378 CURVE SMOOTH",
"317 365 OFFCURVE",
"290 367 OFFCURVE",
"290 346 CURVE SMOOTH",
"290 320 OFFCURVE",
"308 246 OFFCURVE",
"334 246 CURVE SMOOTH",
"351 246 OFFCURVE",
"377 264 OFFCURVE",
"396 264 CURVE SMOOTH",
"414 264 OFFCURVE",
"438 229 OFFCURVE",
"438 179 CURVE SMOOTH",
"438 133 OFFCURVE",
"375 88 OFFCURVE",
"293 88 CURVE SMOOTH",
"228 88 OFFCURVE",
"187 150 OFFCURVE",
"187 235 CURVE SMOOTH",
"187 299 OFFCURVE",
"208 350 OFFCURVE",
"179 350 CURVE SMOOTH",
"146 350 OFFCURVE",
"62 267 OFFCURVE",
"62 163 CURVE SMOOTH",
"62 44 OFFCURVE",
"182 -24 OFFCURVE",
"294 -24 CURVE SMOOTH",
"466 -24 OFFCURVE",
"586 84 OFFCURVE",
"586 215 CURVE SMOOTH",
"586 273 OFFCURVE",
"544 322 OFFCURVE",
"508 338 CURVE",
"536 356 OFFCURVE",
"578 395 OFFCURVE",
"578 449 CURVE SMOOTH",
"578 492 OFFCURVE",
"562 519 OFFCURVE",
"550 533 CURVE"
);
}
);
};
layerId = "B0B60A8F-2DEB-4A58-A43B-60A0DADABD8F";
paths = (
{
closed = 1;
nodes = (
"388 512 LINE",
"433 512 OFFCURVE",
"446 462 OFFCURVE",
"446 438 CURVE SMOOTH",
"446 398 OFFCURVE",
"422 381 OFFCURVE",
"365 367 CURVE SMOOTH",
"320 356 OFFCURVE",
"304 353 OFFCURVE",
"304 336 CURVE SMOOTH",
"304 307 OFFCURVE",
"323 259 OFFCURVE",
"340 259 CURVE SMOOTH",
"355 259 OFFCURVE",
"381 275 OFFCURVE",
"399 275 CURVE SMOOTH",
"423 275 OFFCURVE",
"449 230 OFFCURVE",
"449 183 CURVE SMOOTH",
"449 123 OFFCURVE",
"383 77 OFFCURVE",
"301 77 CURVE SMOOTH",
"232 77 OFFCURVE",
"177 120 OFFCURVE",
"177 235 CURVE SMOOTH",
"177 299 OFFCURVE",
"197 341 OFFCURVE",
"173 341 CURVE SMOOTH",
"146 341 OFFCURVE",
"72 254 OFFCURVE",
"72 167 CURVE SMOOTH",
"72 56 OFFCURVE",
"173 -13 OFFCURVE",
"292 -13 CURVE SMOOTH",
"448 -13 OFFCURVE",
"576 87 OFFCURVE",
"576 210 CURVE SMOOTH",
"576 269 OFFCURVE",
"529 318 OFFCURVE",
"495 338 CURVE",
"523 356 OFFCURVE",
"568 395 OFFCURVE",
"568 449 CURVE SMOOTH",
"568 490 OFFCURVE",
"552 519 OFFCURVE",
"540 533 CURVE"
);
},
{
closed = 1;
nodes = (
"0 606 LINE",
"-29 606 OFFCURVE",
"-42 609 OFFCURVE",
"-49 587 CURVE SMOOTH",
"-65 534 LINE SMOOTH",
"-70 519 OFFCURVE",
"-63 512 OFFCURVE",
"-44 512 CURVE SMOOTH",
"620 512 LINE",
"649 512 OFFCURVE",
"662 509 OFFCURVE",
"669 531 CURVE SMOOTH",
"686 584 LINE SMOOTH",
"691 599 OFFCURVE",
"684 606 OFFCURVE",
"665 606 CURVE SMOOTH"
);
}
);
width = 641;
}
);
unicode = 0909;
},
{
glyphname = "uu-deva";
lastChange = "2020-11-21 11:17:41 +0000";
layers = (
{
layerId = "555B79C6-6D98-46E7-9307-77C37975E414";
paths = (
{
closed = 1;
nodes = (
"0 629 LINE",
"-32 629 OFFCURVE",
"-42 631 OFFCURVE",
"-49 610 CURVE SMOOTH",
"-74 532 LINE SMOOTH",
"-79 517 OFFCURVE",
"-72 510 OFFCURVE",
"-53 510 CURVE SMOOTH",
"881 510 LINE",
"913 510 OFFCURVE",
"923 508 OFFCURVE",
"930 529 CURVE SMOOTH",
"955 607 LINE SMOOTH",
"960 622 OFFCURVE",
"953 629 OFFCURVE",
"934 629 CURVE SMOOTH"
);
},
{
closed = 1;
nodes = (
"378 511 LINE",
"423 511 OFFCURVE",
"435 462 OFFCURVE",
"435 438 CURVE SMOOTH",
"435 402 OFFCURVE",
"411 390 OFFCURVE",
"365 378 CURVE SMOOTH",
"317 365 OFFCURVE",
"290 367 OFFCURVE",
"290 346 CURVE SMOOTH",
"290 320 OFFCURVE",
"308 246 OFFCURVE",
"334 246 CURVE SMOOTH",
"351 246 OFFCURVE",
"377 264 OFFCURVE",
"396 264 CURVE SMOOTH",
"414 264 OFFCURVE",
"438 229 OFFCURVE",
"438 179 CURVE SMOOTH",
"438 133 OFFCURVE",
"375 88 OFFCURVE",
"293 88 CURVE SMOOTH",
"228 88 OFFCURVE",
"187 150 OFFCURVE",
"187 235 CURVE SMOOTH",
"187 299 OFFCURVE",
"208 350 OFFCURVE",
"179 350 CURVE SMOOTH",
"146 350 OFFCURVE",
"62 267 OFFCURVE",
"62 163 CURVE SMOOTH",
"62 44 OFFCURVE",
"182 -24 OFFCURVE",
"294 -24 CURVE SMOOTH",
"466 -24 OFFCURVE",
"586 84 OFFCURVE",
"586 215 CURVE SMOOTH",
"586 273 OFFCURVE",
"544 322 OFFCURVE",
"508 338 CURVE",
"536 356 OFFCURVE",
"578 395 OFFCURVE",
"578 449 CURVE SMOOTH",
"578 492 OFFCURVE",
"562 519 OFFCURVE",
"550 533 CURVE"
);
},
{
closed = 1;
nodes = (
"778 90 OFFCURVE",
"840 187 OFFCURVE",
"840 265 CURVE SMOOTH",
"840 374 OFFCURVE",
"755 437 OFFCURVE",
"666 437 CURVE SMOOTH",
"585 437 OFFCURVE",
"483 372 OFFCURVE",
"462 357 CURVE",
"531 244 LINE",
"558 267 OFFCURVE",
"648 333 OFFCURVE",
"683 333 CURVE SMOOTH",
"713 333 OFFCURVE",
"735 300 OFFCURVE",
"735 275 CURVE SMOOTH",
"735 247 OFFCURVE",
"690 205 OFFCURVE",
"674 205 CURVE SMOOTH",
"661 205 OFFCURVE",
"637 234 OFFCURVE",
"625 234 CURVE SMOOTH",
"617 234 OFFCURVE",
"616 219 OFFCURVE",
"616 211 CURVE SMOOTH",
"616 169 OFFCURVE",
"691 90 OFFCURVE",
"736 90 CURVE SMOOTH"
);
}
);
width = 881;
},
{
background = {
paths = (
{
closed = 1;
nodes = (
"54 629 LINE",
"22 629 OFFCURVE",
"12 631 OFFCURVE",
"5 610 CURVE SMOOTH",
"-20 532 LINE SMOOTH",
"-25 517 OFFCURVE",
"-18 510 OFFCURVE",
"1 510 CURVE SMOOTH",
"881 510 LINE",
"913 510 OFFCURVE",
"923 508 OFFCURVE",
"930 529 CURVE SMOOTH",
"955 607 LINE SMOOTH",
"960 622 OFFCURVE",
"953 629 OFFCURVE",
"934 629 CURVE SMOOTH"
);
},
{
closed = 1;
nodes = (
"378 511 LINE",
"423 511 OFFCURVE",
"435 462 OFFCURVE",
"435 438 CURVE SMOOTH",
"435 402 OFFCURVE",
"411 390 OFFCURVE",
"365 378 CURVE SMOOTH",
"317 365 OFFCURVE",
"290 367 OFFCURVE",
"290 346 CURVE SMOOTH",
"290 320 OFFCURVE",
"308 246 OFFCURVE",
"334 246 CURVE SMOOTH",
"351 246 OFFCURVE",
"377 264 OFFCURVE",
"396 264 CURVE SMOOTH",
"414 264 OFFCURVE",
"438 229 OFFCURVE",
"438 179 CURVE SMOOTH",
"438 133 OFFCURVE",
"375 88 OFFCURVE",
"293 88 CURVE SMOOTH",
"228 88 OFFCURVE",
"187 150 OFFCURVE",
"187 235 CURVE SMOOTH",
"187 299 OFFCURVE",
"208 350 OFFCURVE",
"179 350 CURVE SMOOTH",
"146 350 OFFCURVE",
"62 267 OFFCURVE",
"62 163 CURVE SMOOTH",
"62 44 OFFCURVE",
"182 -24 OFFCURVE",
"294 -24 CURVE SMOOTH",
"466 -24 OFFCURVE",
"586 84 OFFCURVE",
"586 215 CURVE SMOOTH",
"586 273 OFFCURVE",
"544 322 OFFCURVE",
"508 338 CURVE",
"536 356 OFFCURVE",
"578 395 OFFCURVE",
"578 449 CURVE SMOOTH",
"578 492 OFFCURVE",
"562 519 OFFCURVE",
"550 533 CURVE"
);
},
{
closed = 1;
nodes = (
"778 90 OFFCURVE",
"840 187 OFFCURVE",
"840 265 CURVE SMOOTH",
"840 374 OFFCURVE",
"755 437 OFFCURVE",
"666 437 CURVE SMOOTH",
"585 437 OFFCURVE",
"483 372 OFFCURVE",
"462 357 CURVE",
"531 244 LINE",
"558 267 OFFCURVE",
"648 333 OFFCURVE",
"683 333 CURVE SMOOTH",
"713 333 OFFCURVE",
"735 300 OFFCURVE",
"735 275 CURVE SMOOTH",
"735 247 OFFCURVE",
"690 205 OFFCURVE",
"674 205 CURVE SMOOTH",
"661 205 OFFCURVE",
"637 234 OFFCURVE",
"625 234 CURVE SMOOTH",
"617 234 OFFCURVE",
"616 219 OFFCURVE",
"616 211 CURVE SMOOTH",
"616 169 OFFCURVE",
"691 90 OFFCURVE",
"736 90 CURVE SMOOTH"
);
}
);
};
layerId = "B0B60A8F-2DEB-4A58-A43B-60A0DADABD8F";
paths = (
{
closed = 1;
nodes = (
"767 100 OFFCURVE",
"829 187 OFFCURVE",
"829 265 CURVE SMOOTH",
"829 374 OFFCURVE",
"734 427 OFFCURVE",
"665 427 CURVE SMOOTH",
"584 427 OFFCURVE",
"492 362 OFFCURVE",
"471 347 CURVE",
"524 260 LINE",
"551 283 OFFCURVE",
"649 347 OFFCURVE",
"684 347 CURVE SMOOTH",
"719 347 OFFCURVE",
"744 303 OFFCURVE",
"744 276 CURVE SMOOTH",
"744 245 OFFCURVE",
"699 195 OFFCURVE",
"683 195 CURVE SMOOTH",
"670 195 OFFCURVE",
"649 218 OFFCURVE",
"640 218 CURVE SMOOTH",
"632 218 OFFCURVE",
"630 208 OFFCURVE",
"630 198 CURVE SMOOTH",
"630 163 OFFCURVE",
"699 100 OFFCURVE",
"736 100 CURVE SMOOTH"
);
},
{
closed = 1;
nodes = (
"391 512 LINE",
"436 512 OFFCURVE",
"449 462 OFFCURVE",
"449 438 CURVE SMOOTH",
"449 398 OFFCURVE",
"422 381 OFFCURVE",
"365 367 CURVE SMOOTH",
"320 356 OFFCURVE",
"304 353 OFFCURVE",
"304 336 CURVE SMOOTH",
"304 307 OFFCURVE",
"323 259 OFFCURVE",
"340 259 CURVE SMOOTH",
"355 259 OFFCURVE",
"381 275 OFFCURVE",
"399 275 CURVE SMOOTH",
"423 275 OFFCURVE",
"449 230 OFFCURVE",
"449 183 CURVE SMOOTH",
"449 123 OFFCURVE",
"383 77 OFFCURVE",
"301 77 CURVE SMOOTH",
"232 77 OFFCURVE",
"177 120 OFFCURVE",
"177 235 CURVE SMOOTH",
"177 299 OFFCURVE",
"197 341 OFFCURVE",
"173 341 CURVE SMOOTH",
"146 341 OFFCURVE",
"72 254 OFFCURVE",
"72 167 CURVE SMOOTH",
"72 56 OFFCURVE",
"173 -13 OFFCURVE",
"292 -13 CURVE SMOOTH",
"448 -13 OFFCURVE",
"576 95 OFFCURVE",
"576 200 CURVE SMOOTH",
"576 263 OFFCURVE",
"523 318 OFFCURVE",
"489 338 CURVE",
"522 356 OFFCURVE",
"568 395 OFFCURVE",
"568 449 CURVE SMOOTH",
"568 490 OFFCURVE",
"552 519 OFFCURVE",
"540 533 CURVE"
);
},
{
closed = 1;
nodes = (
"0 606 LINE",
"-29 606 OFFCURVE",
"-42 609 OFFCURVE",
"-49 587 CURVE SMOOTH",
"-65 534 LINE SMOOTH",
"-70 519 OFFCURVE",
"-63 512 OFFCURVE",
"-44 512 CURVE SMOOTH",
"882 512 LINE",
"911 512 OFFCURVE",
"924 509 OFFCURVE",
"931 531 CURVE SMOOTH",
"948 584 LINE SMOOTH",
"953 599 OFFCURVE",
"946 606 OFFCURVE",
"927 606 CURVE SMOOTH"
);
}
);
width = 600;
}
);
unicode = 090A;
},
{
glyphname = "rVocalic-deva";
lastChange = "2020-11-21 15:27:16 +0000";
layers = (
{
layerId = "555B79C6-6D98-46E7-9307-77C37975E414";
paths = (
{
closed = 1;
nodes = (
"344 541 LINE",
"321 295 OFFCURVE",
"304 117 OFFCURVE",
"297 63 CURVE SMOOTH",
"292 27 OFFCURVE",
"283 -23 OFFCURVE",
"322 -23 CURVE SMOOTH",
"386 -23 OFFCURVE",
"443 107 OFFCURVE",
"448 174 CURVE SMOOTH",
"462 361 OFFCURVE",
"468 396 OFFCURVE",
"481 538 CURVE"
);
},
{
closed = 1;
nodes = (
"0 629 LINE",
"-14 629 OFFCURVE",
"-24 627 OFFCURVE",
"-29 610 CURVE SMOOTH",
"-54 532 LINE SMOOTH",
"-59 517 OFFCURVE",
"-52 510 OFFCURVE",
"-33 510 CURVE SMOOTH",
"796 510 LINE",
"828 510 OFFCURVE",
"838 508 OFFCURVE",
"845 529 CURVE SMOOTH",
"870 607 LINE SMOOTH",
"875 622 OFFCURVE",
"868 629 OFFCURVE",
"849 629 CURVE SMOOTH"
);
},
{
closed = 1;
nodes = (
"432 238 LINE",
"432 336 OFFCURVE",
"262 480 OFFCURVE",
"175 480 CURVE SMOOTH",
"119 480 OFFCURVE",
"62 392 OFFCURVE",
"62 346 CURVE SMOOTH",
"62 334 OFFCURVE",
"69 318 OFFCURVE",
"76 318 CURVE SMOOTH",
"85 318 OFFCURVE",
"98 347 OFFCURVE",
"113 347 CURVE SMOOTH",
"165 347 OFFCURVE",
"323 320 OFFCURVE",
"319 274 CURVE SMOOTH",
"317 256 OFFCURVE",
"317 246 OFFCURVE",
"316 238 CURVE"
);
},
{
closed = 1;
nodes = (
"170 27 OFFCURVE",
"380 168 OFFCURVE",
"448 276 CURVE",
"319 274 LINE",
"280 249 OFFCURVE",
"131 169 OFFCURVE",
"96 169 CURVE SMOOTH",
"83 169 OFFCURVE",
"74 187 OFFCURVE",
"62 187 CURVE SMOOTH",
"56 187 OFFCURVE",
"55 180 OFFCURVE",
"55 175 CURVE SMOOTH",
"55 123 OFFCURVE",
"95 27 OFFCURVE",
"129 27 CURVE SMOOTH"
);
},
{
closed = 1;
nodes = (
"475 237 OFFCURVE",
"541 275 OFFCURVE",
"571 305 CURVE",
"609 276 OFFCURVE",
"636 231 OFFCURVE",
"636 214 CURVE SMOOTH",
"636 186 OFFCURVE",
"572 157 OFFCURVE",
"560 157 CURVE SMOOTH",
"548 158 OFFCURVE",
"536 176 OFFCURVE",
"524 176 CURVE SMOOTH",
"520 176 OFFCURVE",
"517 165 OFFCURVE",
"517 159 CURVE SMOOTH",
"517 102 OFFCURVE",
"556 33 OFFCURVE",
"598 33 CURVE SMOOTH",
"631 33 OFFCURVE",
"739 126 OFFCURVE",
"739 206 CURVE SMOOTH",
"739 274 OFFCURVE",
"657 353 OFFCURVE",
"645 361 CURVE",
"657 371 OFFCURVE",
"671 387 OFFCURVE",
"671 395 CURVE SMOOTH",
"671 411 OFFCURVE",
"620 463 OFFCURVE",
"603 463 CURVE SMOOTH",
"595 463 OFFCURVE",
"585 450 OFFCURVE",
"575 439 CURVE SMOOTH",
"553 414 OFFCURVE",
"467 366 OFFCURVE",
"446 353 CURVE",
"434 207 LINE"
);
}
);
width = 796;
},
{
background = {
paths = (
{
closed = 1;
nodes = (
"344 541 LINE",
"321 295 OFFCURVE",
"304 117 OFFCURVE",
"297 63 CURVE SMOOTH",
"292 27 OFFCURVE",
"283 -23 OFFCURVE",
"322 -23 CURVE SMOOTH",
"386 -23 OFFCURVE",
"443 107 OFFCURVE",
"448 174 CURVE SMOOTH",
"462 361 OFFCURVE",
"468 396 OFFCURVE",
"481 538 CURVE"
);
},
{
closed = 1;
nodes = (
"0 629 LINE",
"-14 629 OFFCURVE",
"-24 627 OFFCURVE",
"-29 610 CURVE SMOOTH",
"-54 532 LINE SMOOTH",
"-59 517 OFFCURVE",
"-52 510 OFFCURVE",
"-33 510 CURVE SMOOTH",
"796 510 LINE",
"828 510 OFFCURVE",
"838 508 OFFCURVE",
"845 529 CURVE SMOOTH",
"870 607 LINE SMOOTH",
"875 622 OFFCURVE",
"868 629 OFFCURVE",
"849 629 CURVE SMOOTH"
);
},
{
closed = 1;
nodes = (
"432 238 LINE",
"432 336 OFFCURVE",
"262 480 OFFCURVE",
"175 480 CURVE SMOOTH",
"119 480 OFFCURVE",
"62 392 OFFCURVE",
"62 346 CURVE SMOOTH",
"62 334 OFFCURVE",
"69 318 OFFCURVE",
"76 318 CURVE SMOOTH",
"85 318 OFFCURVE",
"98 347 OFFCURVE",
"113 347 CURVE SMOOTH",
"165 347 OFFCURVE",
"323 320 OFFCURVE",
"319 274 CURVE SMOOTH",
"317 256 OFFCURVE",
"317 246 OFFCURVE",
"316 238 CURVE"
);
},
{
closed = 1;
nodes = (
"170 27 OFFCURVE",
"380 168 OFFCURVE",
"448 276 CURVE",
"319 274 LINE",
"280 249 OFFCURVE",
"131 169 OFFCURVE",
"96 169 CURVE SMOOTH",
"83 169 OFFCURVE",
"74 187 OFFCURVE",
"62 187 CURVE SMOOTH",
"56 187 OFFCURVE",
"55 180 OFFCURVE",
"55 175 CURVE SMOOTH",
"55 123 OFFCURVE",
"95 27 OFFCURVE",
"129 27 CURVE SMOOTH"
);
},
{
closed = 1;
nodes = (
"475 237 OFFCURVE",
"541 275 OFFCURVE",
"571 305 CURVE",
"609 276 OFFCURVE",
"636 231 OFFCURVE",
"636 214 CURVE SMOOTH",
"636 186 OFFCURVE",
"572 157 OFFCURVE",
"560 157 CURVE SMOOTH",
"548 158 OFFCURVE",
"536 176 OFFCURVE",
"524 176 CURVE SMOOTH",
"520 176 OFFCURVE",
"517 165 OFFCURVE",
"517 159 CURVE SMOOTH",
"517 102 OFFCURVE",
"556 33 OFFCURVE",
"598 33 CURVE SMOOTH",
"631 33 OFFCURVE",
"739 126 OFFCURVE",
"739 206 CURVE SMOOTH",
"739 274 OFFCURVE",
"657 353 OFFCURVE",
"645 361 CURVE",
"657 371 OFFCURVE",
"671 387 OFFCURVE",
"671 395 CURVE SMOOTH",
"671 411 OFFCURVE",
"620 463 OFFCURVE",
"603 463 CURVE SMOOTH",
"595 463 OFFCURVE",
"585 450 OFFCURVE",
"575 439 CURVE SMOOTH",
"553 414 OFFCURVE",
"467 366 OFFCURVE",
"446 353 CURVE",
"434 207 LINE"
);
}
);
};
layerId = "B0B60A8F-2DEB-4A58-A43B-60A0DADABD8F";
paths = (
{
closed = 1;
nodes = (
"0 606 LINE",
"-29 606 OFFCURVE",
"-42 609 OFFCURVE",
"-49 587 CURVE SMOOTH",
"-65 534 LINE SMOOTH",
"-70 519 OFFCURVE",
"-63 512 OFFCURVE",
"-44 512 CURVE SMOOTH",
"760 512 LINE",
"789 512 OFFCURVE",
"802 509 OFFCURVE",
"809 531 CURVE SMOOTH",
"826 584 LINE SMOOTH",
"831 599 OFFCURVE",
"824 606 OFFCURVE",
"805 606 CURVE SMOOTH"
);
},
{
closed = 1;
nodes = (
"344 541 LINE",
"344 541 OFFCURVE",
"310 162 OFFCURVE",
"296 56 CURVE SMOOTH",
"290 14 OFFCURVE",
"285 -21 OFFCURVE",
"316 -21 CURVE SMOOTH",
"357 -21 OFFCURVE",
"419 107 OFFCURVE",
"423 174 CURVE SMOOTH",
"434 361 OFFCURVE",
"457 538 OFFCURVE",
"457 538 CURVE"
);
},
{
closed = 1;
nodes = (
"412 238 LINE",
"412 336 OFFCURVE",
"245 461 OFFCURVE",
"175 461 CURVE SMOOTH",
"127 461 OFFCURVE",
"76 390 OFFCURVE",
"76 352 CURVE SMOOTH",
"76 344 OFFCURVE",
"78 328 OFFCURVE",
"85 328 CURVE SMOOTH",
"94 328 OFFCURVE",
"103 353 OFFCURVE",
"118 353 CURVE SMOOTH",
"170 353 OFFCURVE",
"323 323 OFFCURVE",
"319 273 CURVE SMOOTH",
"318 255 OFFCURVE",
"317 247 OFFCURVE",
"316 238 CURVE"
);
},
{
closed = 1;
nodes = (
"174 40 OFFCURVE",
"346 164 OFFCURVE",
"422 263 CURVE",
"319 266 LINE",
"280 241 OFFCURVE",
"143 159 OFFCURVE",
"108 159 CURVE SMOOTH",
"95 159 OFFCURVE",
"88 175 OFFCURVE",
"76 175 CURVE SMOOTH",
"70 175 OFFCURVE",
"69 168 OFFCURVE",
"69 163 CURVE SMOOTH",
"69 111 OFFCURVE",
"105 40 OFFCURVE",
"133 40 CURVE SMOOTH"
);
},
{
closed = 1;
nodes = (
"455 235 OFFCURVE",
"541 286 OFFCURVE",
"571 316 CURVE",
"609 287 OFFCURVE",
"647 237 OFFCURVE",
"647 214 CURVE SMOOTH",
"647 181 OFFCURVE",
"582 148 OFFCURVE",
"570 148 CURVE SMOOTH",
"558 149 OFFCURVE",
"545 168 OFFCURVE",
"536 168 CURVE SMOOTH",
"529 168 OFFCURVE",
"527 157 OFFCURVE",
"527 147 CURVE SMOOTH",
"527 103 OFFCURVE",
"566 43 OFFCURVE",
"598 43 CURVE SMOOTH",
"631 43 OFFCURVE",
"729 135 OFFCURVE",
"729 206 CURVE SMOOTH",
"729 274 OFFCURVE",
"644 352 OFFCURVE",
"632 360 CURVE",
"644 370 OFFCURVE",
"661 387 OFFCURVE",
"661 395 CURVE SMOOTH",
"661 408 OFFCURVE",
"620 450 OFFCURVE",
"606 450 CURVE SMOOTH",
"598 450 OFFCURVE",
"585 436 OFFCURVE",
"575 425 CURVE SMOOTH",
"553 400 OFFCURVE",
"447 339 OFFCURVE",
"426 327 CURVE",
"414 206 LINE"
);
}
);
width = 760;
}
);
unicode = 090B;
},
{
glyphname = "rrVocalic-deva";
lastChange = "2020-11-21 16:04:38 +0000";
layers = (
{
background = {
paths = (
{
closed = 1;
nodes = (
"344 541 LINE",
"321 295 OFFCURVE",
"304 117 OFFCURVE",
"297 63 CURVE SMOOTH",
"292 27 OFFCURVE",
"283 -23 OFFCURVE",
"322 -23 CURVE SMOOTH",
"386 -23 OFFCURVE",
"443 107 OFFCURVE",
"448 174 CURVE SMOOTH",
"462 361 OFFCURVE",
"468 396 OFFCURVE",
"481 538 CURVE"
);
},
{
closed = 1;
nodes = (
"0 630 LINE",
"-14 630 OFFCURVE",
"-24 628 OFFCURVE",
"-29 611 CURVE SMOOTH",
"-54 533 LINE SMOOTH",
"-59 518 OFFCURVE",
"-52 511 OFFCURVE",
"-33 511 CURVE SMOOTH",
"796 511 LINE",
"828 511 OFFCURVE",
"838 509 OFFCURVE",
"845 530 CURVE SMOOTH",
"870 608 LINE SMOOTH",
"875 623 OFFCURVE",
"868 630 OFFCURVE",
"849 630 CURVE SMOOTH"
);
},
{
closed = 1;
nodes = (
"432 238 LINE",
"432 336 OFFCURVE",
"262 480 OFFCURVE",
"175 480 CURVE SMOOTH",
"119 480 OFFCURVE",
"62 392 OFFCURVE",
"62 346 CURVE SMOOTH",
"62 334 OFFCURVE",
"69 318 OFFCURVE",
"76 318 CURVE SMOOTH",
"85 318 OFFCURVE",
"98 347 OFFCURVE",
"113 347 CURVE SMOOTH",
"165 347 OFFCURVE",
"323 320 OFFCURVE",
"319 274 CURVE SMOOTH",
"317 256 OFFCURVE",
"317 246 OFFCURVE",
"316 238 CURVE"
);
},
{
closed = 1;
nodes = (
"170 27 OFFCURVE",
"380 168 OFFCURVE",
"448 276 CURVE",
"319 274 LINE",
"280 249 OFFCURVE",
"131 169 OFFCURVE",
"96 169 CURVE SMOOTH",
"83 169 OFFCURVE",
"74 187 OFFCURVE",
"62 187 CURVE SMOOTH",
"56 187 OFFCURVE",
"55 180 OFFCURVE",
"55 175 CURVE SMOOTH",
"55 123 OFFCURVE",
"95 27 OFFCURVE",
"129 27 CURVE SMOOTH"
);
},
{
closed = 1;
nodes = (
"475 237 OFFCURVE",
"541 275 OFFCURVE",
"571 305 CURVE",
"609 276 OFFCURVE",
"636 231 OFFCURVE",
"636 214 CURVE SMOOTH",
"636 186 OFFCURVE",
"572 157 OFFCURVE",
"560 157 CURVE SMOOTH",
"548 158 OFFCURVE",
"536 176 OFFCURVE",
"524 176 CURVE SMOOTH",
"520 176 OFFCURVE",
"517 165 OFFCURVE",
"517 159 CURVE SMOOTH",
"517 102 OFFCURVE",
"556 33 OFFCURVE",
"598 33 CURVE SMOOTH",
"631 33 OFFCURVE",
"739 126 OFFCURVE",
"739 206 CURVE SMOOTH",
"739 274 OFFCURVE",
"657 353 OFFCURVE",
"645 361 CURVE",
"657 371 OFFCURVE",
"671 387 OFFCURVE",
"671 395 CURVE SMOOTH",
"671 411 OFFCURVE",
"620 463 OFFCURVE",
"603 463 CURVE SMOOTH",
"595 463 OFFCURVE",
"585 450 OFFCURVE",
"575 439 CURVE SMOOTH",
"553 414 OFFCURVE",
"467 366 OFFCURVE",
"446 353 CURVE",
"434 207 LINE"
);
}
);
};
layerId = "555B79C6-6D98-46E7-9307-77C37975E414";
paths = (
{
closed = 1;
nodes = (
"344 541 LINE",
"321 295 OFFCURVE",
"304 117 OFFCURVE",
"297 63 CURVE SMOOTH",
"292 27 OFFCURVE",
"283 -23 OFFCURVE",
"322 -23 CURVE SMOOTH",
"386 -23 OFFCURVE",
"443 107 OFFCURVE",
"448 174 CURVE SMOOTH",
"462 361 OFFCURVE",
"468 396 OFFCURVE",
"481 538 CURVE"
);
},
{
closed = 1;
nodes = (
"0 629 LINE",
"-14 629 OFFCURVE",
"-24 627 OFFCURVE",
"-29 610 CURVE SMOOTH",
"-54 532 LINE SMOOTH",
"-59 517 OFFCURVE",
"-52 510 OFFCURVE",
"-33 510 CURVE SMOOTH",
"816 510 LINE",
"848 510 OFFCURVE",
"858 508 OFFCURVE",
"865 529 CURVE SMOOTH",
"890 607 LINE SMOOTH",
"895 622 OFFCURVE",
"888 629 OFFCURVE",
"869 629 CURVE SMOOTH"
);
},
{
closed = 1;
nodes = (
"432 238 LINE",
"432 336 OFFCURVE",
"262 480 OFFCURVE",
"175 480 CURVE SMOOTH",
"119 480 OFFCURVE",
"62 392 OFFCURVE",
"62 346 CURVE SMOOTH",
"62 334 OFFCURVE",
"69 318 OFFCURVE",
"76 318 CURVE SMOOTH",
"85 318 OFFCURVE",
"98 347 OFFCURVE",
"113 347 CURVE SMOOTH",
"165 347 OFFCURVE",
"323 320 OFFCURVE",
"319 274 CURVE SMOOTH",
"317 256 OFFCURVE",
"317 246 OFFCURVE",
"316 238 CURVE"
);
},
{
closed = 1;
nodes = (
"170 27 OFFCURVE",
"380 168 OFFCURVE",
"448 276 CURVE",
"319 274 LINE",
"280 249 OFFCURVE",
"131 169 OFFCURVE",
"96 169 CURVE SMOOTH",
"83 169 OFFCURVE",
"74 187 OFFCURVE",
"62 187 CURVE SMOOTH",
"56 187 OFFCURVE",
"55 180 OFFCURVE",
"55 175 CURVE SMOOTH",
"55 123 OFFCURVE",
"95 27 OFFCURVE",
"129 27 CURVE SMOOTH"
);
},
{
closed = 1;
nodes = (
"475 237 OFFCURVE",
"536 271 OFFCURVE",
"566 301 CURVE",
"576 295 OFFCURVE",
"587 285 OFFCURVE",
"595 275 CURVE",
"547 240 OFFCURVE",
"513 197 OFFCURVE",
"513 155 CURVE SMOOTH",
"513 83 OFFCURVE",
"594 9 OFFCURVE",
"656 9 CURVE SMOOTH",
"718 9 OFFCURVE",
"765 81 OFFCURVE",
"765 123 CURVE SMOOTH",
"765 133 OFFCURVE",
"762 138 OFFCURVE",
"756 138 CURVE SMOOTH",
"743 138 OFFCURVE",
"716 117 OFFCURVE",
"688 117 CURVE SMOOTH",
"665 117 OFFCURVE",
"621 138 OFFCURVE",
"621 158 CURVE SMOOTH",
"621 198 OFFCURVE",
"718 241 OFFCURVE",
"718 262 CURVE SMOOTH",
"718 282 OFFCURVE",
"671 342 OFFCURVE",
"645 361 CURVE",
"657 371 OFFCURVE",
"671 387 OFFCURVE",
"671 395 CURVE SMOOTH",
"671 411 OFFCURVE",
"620 463 OFFCURVE",
"603 463 CURVE SMOOTH",
"595 463 OFFCURVE",
"586 451 OFFCURVE",
"575 439 CURVE SMOOTH",
"552 414 OFFCURVE",
"467 366 OFFCURVE",
"446 353 CURVE",
"434 207 LINE"
);
}
);
width = 816;
},
{
background = {
paths = (
{
closed = 1;
nodes = (
"344 541 LINE",
"321 295 OFFCURVE",
"304 117 OFFCURVE",
"297 63 CURVE SMOOTH",
"292 27 OFFCURVE",
"283 -23 OFFCURVE",
"322 -23 CURVE SMOOTH",
"386 -23 OFFCURVE",
"443 107 OFFCURVE",
"448 174 CURVE SMOOTH",
"462 361 OFFCURVE",
"468 396 OFFCURVE",
"481 538 CURVE"
);
},
{
closed = 1;
nodes = (
"0 629 LINE",
"-14 629 OFFCURVE",
"-24 627 OFFCURVE",
"-29 610 CURVE SMOOTH",
"-54 532 LINE SMOOTH",
"-59 517 OFFCURVE",
"-52 510 OFFCURVE",
"-33 510 CURVE SMOOTH",
"816 510 LINE",
"848 510 OFFCURVE",
"858 508 OFFCURVE",
"865 529 CURVE SMOOTH",
"890 607 LINE SMOOTH",
"895 622 OFFCURVE",
"888 629 OFFCURVE",
"869 629 CURVE SMOOTH"
);
},
{
closed = 1;
nodes = (
"432 238 LINE",
"432 336 OFFCURVE",
"262 480 OFFCURVE",
"175 480 CURVE SMOOTH",
"119 480 OFFCURVE",
"62 392 OFFCURVE",
"62 346 CURVE SMOOTH",
"62 334 OFFCURVE",
"69 318 OFFCURVE",
"76 318 CURVE SMOOTH",
"85 318 OFFCURVE",
"98 347 OFFCURVE",
"113 347 CURVE SMOOTH",
"165 347 OFFCURVE",
"323 320 OFFCURVE",
"319 274 CURVE SMOOTH",
"317 256 OFFCURVE",
"317 246 OFFCURVE",
"316 238 CURVE"
);
},
{
closed = 1;
nodes = (
"170 27 OFFCURVE",
"380 168 OFFCURVE",
"448 276 CURVE",
"319 274 LINE",
"280 249 OFFCURVE",
"131 169 OFFCURVE",
"96 169 CURVE SMOOTH",
"83 169 OFFCURVE",
"74 187 OFFCURVE",
"62 187 CURVE SMOOTH",
"56 187 OFFCURVE",
"55 180 OFFCURVE",
"55 175 CURVE SMOOTH",
"55 123 OFFCURVE",
"95 27 OFFCURVE",
"129 27 CURVE SMOOTH"
);
},
{
closed = 1;
nodes = (
"475 237 OFFCURVE",
"536 271 OFFCURVE",
"566 301 CURVE",
"576 295 OFFCURVE",
"587 285 OFFCURVE",
"595 275 CURVE",
"547 240 OFFCURVE",
"513 197 OFFCURVE",
"513 155 CURVE SMOOTH",
"513 83 OFFCURVE",
"594 9 OFFCURVE",
"656 9 CURVE SMOOTH",
"718 9 OFFCURVE",
"765 81 OFFCURVE",
"765 123 CURVE SMOOTH",
"765 133 OFFCURVE",
"762 138 OFFCURVE",
"756 138 CURVE SMOOTH",
"743 138 OFFCURVE",
"716 117 OFFCURVE",
"688 117 CURVE SMOOTH",
"665 117 OFFCURVE",
"621 138 OFFCURVE",
"621 158 CURVE SMOOTH",
"621 198 OFFCURVE",
"718 241 OFFCURVE",
"718 262 CURVE SMOOTH",
"718 282 OFFCURVE",
"671 342 OFFCURVE",
"645 361 CURVE",
"657 371 OFFCURVE",
"671 387 OFFCURVE",
"671 395 CURVE SMOOTH",
"671 411 OFFCURVE",
"620 463 OFFCURVE",
"603 463 CURVE SMOOTH",
"595 463 OFFCURVE",
"586 451 OFFCURVE",
"575 439 CURVE SMOOTH",
"552 414 OFFCURVE",
"467 366 OFFCURVE",
"446 353 CURVE",
"434 207 LINE"
);
}
);
};
layerId = "B0B60A8F-2DEB-4A58-A43B-60A0DADABD8F";
paths = (
{
closed = 1;
nodes = (
"0 606 LINE",
"-29 606 OFFCURVE",
"-42 609 OFFCURVE",
"-49 587 CURVE SMOOTH",
"-65 534 LINE SMOOTH",
"-70 519 OFFCURVE",
"-63 512 OFFCURVE",
"-44 512 CURVE SMOOTH",
"780 512 LINE",
"809 512 OFFCURVE",
"822 509 OFFCURVE",
"829 531 CURVE SMOOTH",
"846 584 LINE SMOOTH",
"851 599 OFFCURVE",
"844 606 OFFCURVE",
"825 606 CURVE SMOOTH"
);
},
{
closed = 1;
nodes = (
"344 541 LINE",
"344 541 OFFCURVE",
"310 162 OFFCURVE",
"296 56 CURVE SMOOTH",
"290 14 OFFCURVE",
"285 -21 OFFCURVE",
"316 -21 CURVE SMOOTH",
"357 -21 OFFCURVE",
"419 107 OFFCURVE",
"423 174 CURVE SMOOTH",
"434 361 OFFCURVE",
"457 538 OFFCURVE",
"457 538 CURVE"
);
},
{
closed = 1;
nodes = (
"412 238 LINE",
"412 336 OFFCURVE",
"245 461 OFFCURVE",
"175 461 CURVE SMOOTH",
"127 461 OFFCURVE",
"76 390 OFFCURVE",
"76 352 CURVE SMOOTH",
"76 344 OFFCURVE",
"78 328 OFFCURVE",
"85 328 CURVE SMOOTH",
"94 328 OFFCURVE",
"103 353 OFFCURVE",
"118 353 CURVE SMOOTH",
"170 353 OFFCURVE",
"323 323 OFFCURVE",
"319 273 CURVE SMOOTH",
"318 255 OFFCURVE",
"317 247 OFFCURVE",
"316 238 CURVE"
);
},
{
closed = 1;
nodes = (
"174 40 OFFCURVE",
"346 164 OFFCURVE",
"422 263 CURVE",
"319 266 LINE",
"280 241 OFFCURVE",
"143 159 OFFCURVE",
"108 159 CURVE SMOOTH",
"95 159 OFFCURVE",
"88 175 OFFCURVE",
"76 175 CURVE SMOOTH",
"70 175 OFFCURVE",
"69 168 OFFCURVE",
"69 163 CURVE SMOOTH",
"69 111 OFFCURVE",
"105 40 OFFCURVE",
"133 40 CURVE SMOOTH"
);
},
{
closed = 1;
nodes = (
"455 236 OFFCURVE",
"538 283 OFFCURVE",
"568 313 CURVE",
"578 307 OFFCURVE",
"601 283 OFFCURVE",
"609 273 CURVE",
"561 238 OFFCURVE",
"523 197 OFFCURVE",
"523 155 CURVE SMOOTH",
"523 83 OFFCURVE",
"607 19 OFFCURVE",
"656 19 CURVE SMOOTH",
"695 19 OFFCURVE",
"750 80 OFFCURVE",
"750 116 CURVE SMOOTH",
"750 126 OFFCURVE",
"747 130 OFFCURVE",
"742 130 CURVE SMOOTH",
"731 130 OFFCURVE",
"712 108 OFFCURVE",
"687 108 CURVE SMOOTH",
"671 108 OFFCURVE",
"611 128 OFFCURVE",
"611 158 CURVE SMOOTH",
"611 198 OFFCURVE",
"708 251 OFFCURVE",
"708 264 CURVE SMOOTH",
"708 286 OFFCURVE",
"643 352 OFFCURVE",
"632 360 CURVE",
"644 370 OFFCURVE",
"660 386 OFFCURVE",
"660 394 CURVE SMOOTH",
"660 407 OFFCURVE",
"620 450 OFFCURVE",
"606 450 CURVE SMOOTH",
"598 450 OFFCURVE",
"586 437 OFFCURVE",
"575 425 CURVE SMOOTH",
"552 400 OFFCURVE",
"447 340 OFFCURVE",
"426 327 CURVE",
"414 206 LINE"
);
}
);
width = 780;
}
);
unicode = 0960;
},
{
glyphname = "e-deva";
lastChange = "2020-11-21 11:39:35 +0000";
layers = (
{
background = {
paths = (
{
closed = 1;
nodes = (
"251 538 OFFCURVE",
"230 361 OFFCURVE",
"218 174 CURVE SMOOTH",
"213 94 OFFCURVE",
"149 -21 OFFCURVE",
"86 -21 CURVE SMOOTH",
"50 -21 OFFCURVE",
"62 27 OFFCURVE",
"67 63 CURVE SMOOTH",
"74 117 OFFCURVE",
"91 295 OFFCURVE",
"114 541 CURVE",
"251 538 LINE"
);
}
);
};
layerId = "555B79C6-6D98-46E7-9307-77C37975E414";
paths = (
{
closed = 1;
nodes = (
"0 629 LINE",
"-15 629 OFFCURVE",
"-25 627 OFFCURVE",
"-30 610 CURVE SMOOTH",
"-55 532 LINE SMOOTH",
"-60 517 OFFCURVE",
"-53 510 OFFCURVE",
"-34 510 CURVE SMOOTH",
"600 510 LINE",
"632 510 OFFCURVE",
"642 508 OFFCURVE",
"649 529 CURVE SMOOTH",
"674 607 LINE SMOOTH",
"679 622 OFFCURVE",
"672 629 OFFCURVE",
"653 629 CURVE SMOOTH"
);
},
{
closed = 1;
nodes = (
"425 512 OFFCURVE",
"424 484 OFFCURVE",
"421 449 CURVE SMOOTH",
"415 381 OFFCURVE",
"384 324 OFFCURVE",
"367 324 CURVE SMOOTH",
"355 324 OFFCURVE",
"337 341 OFFCURVE",
"328 341 CURVE SMOOTH",
"320 341 OFFCURVE",
"319 327 OFFCURVE",
"319 318 CURVE SMOOTH",
"319 287 OFFCURVE",
"387 211 OFFCURVE",
"449 211 CURVE SMOOTH",
"490 211 OFFCURVE",
"532 311 OFFCURVE",
"536 425 CURVE SMOOTH",
"537 454 OFFCURVE",
"537 497 OFFCURVE",
"535 531 CURVE",
"535 531 OFFCURVE",
"440 531 OFFCURVE",
"425 531 CURVE"
);
},
{
closed = 1;
nodes = (
"198 339 OFFCURVE",
"211 445 OFFCURVE",
"222 540 CURVE",
"84 540 LINE",
"77 467 OFFCURVE",
"64 354 OFFCURVE",
"64 308 CURVE SMOOTH",
"64 254 OFFCURVE",
"80 220 OFFCURVE",
"116 182 CURVE SMOOTH",
"187 106 OFFCURVE",
"359 9 OFFCURVE",
"359 -29 CURVE SMOOTH",
"359 -40 OFFCURVE",
"338 -57 OFFCURVE",
"338 -66 CURVE SMOOTH",
"338 -73 OFFCURVE",
"351 -75 OFFCURVE",
"363 -75 CURVE SMOOTH",
"411 -75 OFFCURVE",
"478 21 OFFCURVE",
"478 72 CURVE SMOOTH",
"478 120 OFFCURVE",
"284 206 OFFCURVE",
"229 250 CURVE SMOOTH",
"204 269 OFFCURVE",
"198 284 OFFCURVE",
"198 315 CURVE SMOOTH"
);
}
);
width = 600;
},
{
background = {
paths = (
{
closed = 1;
nodes = (
"0 629 LINE",
"-15 629 OFFCURVE",
"-25 627 OFFCURVE",
"-30 610 CURVE SMOOTH",
"-55 532 LINE SMOOTH",
"-60 517 OFFCURVE",
"-53 510 OFFCURVE",
"-34 510 CURVE SMOOTH",
"600 510 LINE",
"632 510 OFFCURVE",
"642 508 OFFCURVE",
"649 529 CURVE SMOOTH",
"674 607 LINE SMOOTH",
"679 622 OFFCURVE",
"672 629 OFFCURVE",
"653 629 CURVE SMOOTH"
);
},
{
closed = 1;
nodes = (
"425 512 OFFCURVE",
"424 484 OFFCURVE",
"421 449 CURVE SMOOTH",
"415 381 OFFCURVE",
"384 324 OFFCURVE",
"367 324 CURVE SMOOTH",
"355 324 OFFCURVE",
"337 341 OFFCURVE",
"328 341 CURVE SMOOTH",
"320 341 OFFCURVE",
"319 327 OFFCURVE",
"319 318 CURVE SMOOTH",
"319 287 OFFCURVE",
"387 211 OFFCURVE",
"449 211 CURVE SMOOTH",
"490 211 OFFCURVE",
"532 311 OFFCURVE",
"536 425 CURVE SMOOTH",
"537 454 OFFCURVE",
"537 497 OFFCURVE",
"535 531 CURVE",
"535 531 OFFCURVE",
"440 531 OFFCURVE",
"425 531 CURVE"
);
},
{
closed = 1;
nodes = (
"198 339 OFFCURVE",
"211 445 OFFCURVE",
"222 540 CURVE",
"84 540 LINE",
"77 467 OFFCURVE",
"64 354 OFFCURVE",
"64 308 CURVE SMOOTH",
"64 254 OFFCURVE",
"80 220 OFFCURVE",
"116 182 CURVE SMOOTH",
"187 106 OFFCURVE",
"359 9 OFFCURVE",
"359 -29 CURVE SMOOTH",
"359 -40 OFFCURVE",
"338 -57 OFFCURVE",
"338 -66 CURVE SMOOTH",
"338 -73 OFFCURVE",
"351 -75 OFFCURVE",
"363 -75 CURVE SMOOTH",
"411 -75 OFFCURVE",
"478 21 OFFCURVE",
"478 72 CURVE SMOOTH",
"478 120 OFFCURVE",
"284 206 OFFCURVE",
"229 250 CURVE SMOOTH",
"204 269 OFFCURVE",
"198 284 OFFCURVE",
"198 315 CURVE SMOOTH"
);
}
);
};
layerId = "B0B60A8F-2DEB-4A58-A43B-60A0DADABD8F";
paths = (
{
closed = 1;
nodes = (
"435 512 OFFCURVE",
"434 484 OFFCURVE",
"431 449 CURVE SMOOTH",
"425 381 OFFCURVE",
"393 322 OFFCURVE",
"374 322 CURVE SMOOTH",
"358 322 OFFCURVE",
"344 336 OFFCURVE",
"337 336 CURVE SMOOTH",
"331 336 OFFCURVE",
"329 328 OFFCURVE",
"329 317 CURVE SMOOTH",
"329 282 OFFCURVE",
"398 221 OFFCURVE",
"442 221 CURVE SMOOTH",
"482 221 OFFCURVE",
"522 326 OFFCURVE",
"526 425 CURVE SMOOTH",
"527 454 OFFCURVE",
"527 497 OFFCURVE",
"525 531 CURVE",
"525 531 OFFCURVE",
"450 531 OFFCURVE",
"435 531 CURVE"
);
},
{
closed = 1;
nodes = (
"186 339 OFFCURVE",
"199 445 OFFCURVE",
"210 540 CURVE",
"97 540 LINE",
"90 467 OFFCURVE",
"77 354 OFFCURVE",
"77 308 CURVE SMOOTH",
"77 263 OFFCURVE",
"91 221 OFFCURVE",
"130 183 CURVE SMOOTH",
"199 116 OFFCURVE",
"365 21 OFFCURVE",
"365 -17 CURVE SMOOTH",
"365 -28 OFFCURVE",
"345 -47 OFFCURVE",
"345 -56 CURVE SMOOTH",
"345 -63 OFFCURVE",
"356 -65 OFFCURVE",
"366 -65 CURVE SMOOTH",
"407 -65 OFFCURVE",
"465 21 OFFCURVE",
"465 67 CURVE SMOOTH",
"465 109 OFFCURVE",
"272 200 OFFCURVE",
"217 244 CURVE SMOOTH",
"192 263 OFFCURVE",
"186 284 OFFCURVE",
"186 315 CURVE SMOOTH"
);
},
{
closed = 1;
nodes = (
"0 606 LINE",
"-29 606 OFFCURVE",
"-42 609 OFFCURVE",
"-49 587 CURVE SMOOTH",
"-65 534 LINE SMOOTH",
"-70 519 OFFCURVE",
"-63 512 OFFCURVE",
"-44 512 CURVE SMOOTH",
"580 512 LINE",
"609 512 OFFCURVE",
"622 509 OFFCURVE",
"629 531 CURVE SMOOTH",
"646 584 LINE SMOOTH",
"651 599 OFFCURVE",
"644 606 OFFCURVE",
"625 606 CURVE SMOOTH"
);
}
);
width = 580;
}
);
unicode = 090F;
},
{
glyphname = "ai-deva";
lastChange = "2020-11-21 11:59:46 +0000";
layers = (
{
layerId = "555B79C6-6D98-46E7-9307-77C37975E414";
paths = (
{
closed = 1;
nodes = (
"515 616 LINE",
"515 714 OFFCURVE",
"341 870 OFFCURVE",
"254 870 CURVE SMOOTH",
"198 870 OFFCURVE",
"141 782 OFFCURVE",
"141 736 CURVE SMOOTH",
"141 724 OFFCURVE",
"148 708 OFFCURVE",
"155 708 CURVE SMOOTH",
"164 708 OFFCURVE",
"177 737 OFFCURVE",
"192 737 CURVE SMOOTH",
"244 737 OFFCURVE",
"403 701 OFFCURVE",
"403 643 CURVE SMOOTH",
"403 635 OFFCURVE",
"401 624 OFFCURVE",
"399 616 CURVE"
);
},
{
closed = 1;
nodes = (
"0 629 LINE",
"-15 629 OFFCURVE",
"-25 627 OFFCURVE",
"-30 610 CURVE SMOOTH",
"-55 532 LINE SMOOTH",
"-60 517 OFFCURVE",
"-53 510 OFFCURVE",
"-34 510 CURVE SMOOTH",
"600 510 LINE",
"632 510 OFFCURVE",
"642 508 OFFCURVE",
"649 529 CURVE SMOOTH",
"674 607 LINE SMOOTH",
"679 622 OFFCURVE",
"672 629 OFFCURVE",
"653 629 CURVE SMOOTH"
);
},
{
closed = 1;
nodes = (
"425 512 OFFCURVE",
"424 484 OFFCURVE",
"421 449 CURVE SMOOTH",
"415 381 OFFCURVE",
"384 324 OFFCURVE",
"367 324 CURVE SMOOTH",
"355 324 OFFCURVE",
"337 341 OFFCURVE",
"328 341 CURVE SMOOTH",
"320 341 OFFCURVE",
"319 327 OFFCURVE",
"319 318 CURVE SMOOTH",
"319 287 OFFCURVE",
"387 211 OFFCURVE",
"449 211 CURVE SMOOTH",
"490 211 OFFCURVE",
"532 311 OFFCURVE",
"536 425 CURVE SMOOTH",
"537 454 OFFCURVE",
"537 497 OFFCURVE",
"535 531 CURVE",
"535 531 OFFCURVE",
"440 531 OFFCURVE",
"425 531 CURVE"
);
},
{
closed = 1;
nodes = (
"198 339 OFFCURVE",
"211 445 OFFCURVE",
"222 540 CURVE",
"84 540 LINE",
"77 467 OFFCURVE",
"64 354 OFFCURVE",
"64 308 CURVE SMOOTH",
"64 254 OFFCURVE",
"80 220 OFFCURVE",
"116 182 CURVE SMOOTH",
"187 106 OFFCURVE",
"359 9 OFFCURVE",
"359 -29 CURVE SMOOTH",
"359 -40 OFFCURVE",
"338 -57 OFFCURVE",
"338 -66 CURVE SMOOTH",
"338 -73 OFFCURVE",
"351 -75 OFFCURVE",
"363 -75 CURVE SMOOTH",
"411 -75 OFFCURVE",
"478 21 OFFCURVE",
"478 72 CURVE SMOOTH",
"478 120 OFFCURVE",
"284 206 OFFCURVE",
"229 250 CURVE SMOOTH",
"204 269 OFFCURVE",
"198 284 OFFCURVE",
"198 315 CURVE SMOOTH"
);
}
);
width = 600;
},
{
background = {
paths = (
{
closed = 1;
nodes = (
"515 616 LINE",
"515 714 OFFCURVE",
"341 870 OFFCURVE",
"254 870 CURVE SMOOTH",
"198 870 OFFCURVE",
"141 782 OFFCURVE",
"141 736 CURVE SMOOTH",
"141 724 OFFCURVE",
"148 708 OFFCURVE",
"155 708 CURVE SMOOTH",
"164 708 OFFCURVE",
"177 737 OFFCURVE",
"192 737 CURVE SMOOTH",
"244 737 OFFCURVE",
"403 701 OFFCURVE",
"403 643 CURVE SMOOTH",
"403 635 OFFCURVE",
"401 624 OFFCURVE",
"399 616 CURVE"
);
},
{
closed = 1;
nodes = (
"0 629 LINE",
"-15 629 OFFCURVE",
"-25 627 OFFCURVE",
"-30 610 CURVE SMOOTH",
"-55 532 LINE SMOOTH",
"-60 517 OFFCURVE",
"-53 510 OFFCURVE",
"-34 510 CURVE SMOOTH",
"600 510 LINE",
"632 510 OFFCURVE",
"642 508 OFFCURVE",
"649 529 CURVE SMOOTH",
"674 607 LINE SMOOTH",
"679 622 OFFCURVE",
"672 629 OFFCURVE",
"653 629 CURVE SMOOTH"
);
},
{
closed = 1;
nodes = (
"425 512 OFFCURVE",
"424 484 OFFCURVE",
"421 449 CURVE SMOOTH",
"415 381 OFFCURVE",
"384 324 OFFCURVE",
"367 324 CURVE SMOOTH",
"355 324 OFFCURVE",
"337 341 OFFCURVE",
"328 341 CURVE SMOOTH",
"320 341 OFFCURVE",
"319 327 OFFCURVE",
"319 318 CURVE SMOOTH",
"319 287 OFFCURVE",
"387 211 OFFCURVE",
"449 211 CURVE SMOOTH",
"490 211 OFFCURVE",
"532 311 OFFCURVE",
"536 425 CURVE SMOOTH",
"537 454 OFFCURVE",
"537 497 OFFCURVE",
"535 531 CURVE",
"535 531 OFFCURVE",
"440 531 OFFCURVE",
"425 531 CURVE"
);
},
{
closed = 1;
nodes = (
"198 339 OFFCURVE",
"211 445 OFFCURVE",
"222 540 CURVE",
"84 540 LINE",
"77 467 OFFCURVE",
"64 354 OFFCURVE",
"64 308 CURVE SMOOTH",
"64 254 OFFCURVE",
"80 220 OFFCURVE",
"116 182 CURVE SMOOTH",
"187 106 OFFCURVE",
"359 9 OFFCURVE",
"359 -29 CURVE SMOOTH",
"359 -40 OFFCURVE",
"338 -57 OFFCURVE",
"338 -66 CURVE SMOOTH",
"338 -73 OFFCURVE",
"351 -75 OFFCURVE",
"363 -75 CURVE SMOOTH",
"411 -75 OFFCURVE",
"478 21 OFFCURVE",
"478 72 CURVE SMOOTH",
"478 120 OFFCURVE",
"284 206 OFFCURVE",
"229 250 CURVE SMOOTH",
"204 269 OFFCURVE",
"198 284 OFFCURVE",
"198 315 CURVE SMOOTH"
);
}
);
};
layerId = "B0B60A8F-2DEB-4A58-A43B-60A0DADABD8F";
paths = (
{
closed = 1;
nodes = (
"0 606 LINE",
"-29 606 OFFCURVE",
"-42 609 OFFCURVE",
"-49 587 CURVE SMOOTH",
"-65 534 LINE SMOOTH",
"-70 519 OFFCURVE",
"-63 512 OFFCURVE",
"-44 512 CURVE SMOOTH",
"620 512 LINE",
"649 512 OFFCURVE",
"662 509 OFFCURVE",
"669 531 CURVE SMOOTH",
"686 584 LINE SMOOTH",
"691 599 OFFCURVE",
"684 606 OFFCURVE",
"665 606 CURVE SMOOTH"
);
},
{
closed = 1;
nodes = (
"435 512 OFFCURVE",
"434 484 OFFCURVE",
"431 449 CURVE SMOOTH",
"425 381 OFFCURVE",
"393 322 OFFCURVE",
"374 322 CURVE SMOOTH",
"358 322 OFFCURVE",
"344 336 OFFCURVE",
"337 336 CURVE SMOOTH",
"331 336 OFFCURVE",
"329 328 OFFCURVE",
"329 317 CURVE SMOOTH",
"329 282 OFFCURVE",
"398 221 OFFCURVE",
"442 221 CURVE SMOOTH",
"482 221 OFFCURVE",
"522 326 OFFCURVE",
"526 425 CURVE SMOOTH",
"527 454 OFFCURVE",
"527 497 OFFCURVE",
"525 531 CURVE",
"525 531 OFFCURVE",
"450 531 OFFCURVE",
"435 531 CURVE"
);
},
{
closed = 1;
nodes = (
"186 339 OFFCURVE",
"199 445 OFFCURVE",
"210 540 CURVE",
"97 540 LINE",
"90 467 OFFCURVE",
"77 354 OFFCURVE",
"77 308 CURVE SMOOTH",
"77 263 OFFCURVE",
"91 221 OFFCURVE",
"130 183 CURVE SMOOTH",
"199 116 OFFCURVE",
"365 21 OFFCURVE",
"365 -17 CURVE SMOOTH",
"365 -28 OFFCURVE",
"345 -47 OFFCURVE",
"345 -56 CURVE SMOOTH",
"345 -63 OFFCURVE",
"356 -65 OFFCURVE",
"366 -65 CURVE SMOOTH",
"407 -65 OFFCURVE",
"465 21 OFFCURVE",
"465 67 CURVE SMOOTH",
"465 109 OFFCURVE",
"272 200 OFFCURVE",
"217 244 CURVE SMOOTH",
"192 263 OFFCURVE",
"186 284 OFFCURVE",
"186 315 CURVE SMOOTH"
);
},
{
closed = 1;
nodes = (
"509 599 LINE",
"509 696 OFFCURVE",
"330 842 OFFCURVE",
"253 842 CURVE SMOOTH",
"213 842 OFFCURVE",
"164 777 OFFCURVE",
"164 731 CURVE SMOOTH",
"164 719 OFFCURVE",
"171 707 OFFCURVE",
"178 707 CURVE SMOOTH",
"187 707 OFFCURVE",
"197 736 OFFCURVE",
"212 736 CURVE SMOOTH",
"257 736 OFFCURVE",
"411 699 OFFCURVE",
"411 642 CURVE SMOOTH",
"411 629 OFFCURVE",
"405 607 OFFCURVE",
"403 599 CURVE"
);
}
);
width = 600;
}
);
unicode = 0910;
},
{
glyphname = "o-deva";
lastChange = "2020-11-21 11:46:25 +0000";
layers = (
{
layerId = "555B79C6-6D98-46E7-9307-77C37975E414";
paths = (
{
closed = 1;
nodes = (
"1022 538 OFFCURVE",
"1001 361 OFFCURVE",
"989 174 CURVE SMOOTH",
"984 94 OFFCURVE",
"920 -21 OFFCURVE",
"857 -21 CURVE SMOOTH",
"821 -21 OFFCURVE",
"833 27 OFFCURVE",
"838 63 CURVE SMOOTH",
"845 117 OFFCURVE",
"862 295 OFFCURVE",
"885 541 CURVE",
"1022 538 LINE"
);
},
{
closed = 1;
nodes = (
"786 538 OFFCURVE",
"765 361 OFFCURVE",
"753 174 CURVE SMOOTH",
"748 94 OFFCURVE",
"684 -21 OFFCURVE",
"621 -21 CURVE SMOOTH",
"585 -21 OFFCURVE",
"597 27 OFFCURVE",
"602 63 CURVE SMOOTH",
"609 117 OFFCURVE",
"626 295 OFFCURVE",
"649 541 CURVE",
"786 538 LINE"
);
},
{
closed = 1;
nodes = (
"1137 629 OFFCURVE",
"1146 622 OFFCURVE",
"1141 607 CURVE SMOOTH",
"1116 529 LINE SMOOTH",
"1109 508 OFFCURVE",
"1099 510 OFFCURVE",
"1082 510 CURVE",
"595 510 LINE SMOOTH",
"576 510 OFFCURVE",
"569 517 OFFCURVE",
"574 532 CURVE SMOOTH",
"599 610 LINE SMOOTH",
"606 631 OFFCURVE",
"616 629 OFFCURVE",
"648 629 CURVE",
"1118 629 LINE SMOOTH"
);
},
{
closed = 1;
nodes = (
"472 395 LINE",
"510 373 OFFCURVE",
"578 350 OFFCURVE",
"639 384 CURVE",
"628 259 LINE",
"520 262 OFFCURVE",
"474 308 OFFCURVE",
"425 346 CURVE"
);
},
{
closed = 1;
nodes = (
"296 502 OFFCURVE",
"291 507 OFFCURVE",
"291 516 CURVE SMOOTH",
"291 541 OFFCURVE",
"370 608 OFFCURVE",
"426 608 CURVE SMOOTH",
"480 608 OFFCURVE",
"538 554 OFFCURVE",
"538 492 CURVE SMOOTH",
"538 419 OFFCURVE",
"457 361 OFFCURVE",
"425 346 CURVE",
"477 328 OFFCURVE",
"522 284 OFFCURVE",
"522 206 CURVE SMOOTH",
"522 121 OFFCURVE",
"441 17 OFFCURVE",
"262 17 CURVE SMOOTH",
"141 17 OFFCURVE",
"45 83 OFFCURVE",
"45 180 CURVE SMOOTH",
"45 278 OFFCURVE",
"149 337 OFFCURVE",
"182 337 CURVE SMOOTH",
"211 337 OFFCURVE",
"169 279 OFFCURVE",
"169 210 CURVE SMOOTH",
"169 168 OFFCURVE",
"175 119 OFFCURVE",
"253 119 CURVE SMOOTH",
"324 119 OFFCURVE",
"380 155 OFFCURVE",
"380 226 CURVE SMOOTH",
"380 269 OFFCURVE",
"365 290 OFFCURVE",
"342 290 CURVE SMOOTH",
"320 290 OFFCURVE",
"305 286 OFFCURVE",
"288 286 CURVE SMOOTH",
"269 286 OFFCURVE",
"264 298 OFFCURVE",
"264 320 CURVE SMOOTH",
"264 373 OFFCURVE",
"268 387 OFFCURVE",
"299 387 CURVE SMOOTH",
"346 387 OFFCURVE",
"403 384 OFFCURVE",
"403 440 CURVE SMOOTH",
"403 477 OFFCURVE",
"400 515 OFFCURVE",
"373 515 CURVE SMOOTH",
"359 515 OFFCURVE",
"320 502 OFFCURVE",
"307 502 CURVE SMOOTH"
);
},
{
closed = 1;
nodes = (
"899 624 OFFCURVE",
"901 635 OFFCURVE",
"901 643 CURVE SMOOTH",
"901 701 OFFCURVE",
"742 737 OFFCURVE",
"690 737 CURVE SMOOTH",
"675 737 OFFCURVE",
"662 708 OFFCURVE",
"653 708 CURVE SMOOTH",
"646 708 OFFCURVE",
"639 724 OFFCURVE",
"639 736 CURVE SMOOTH",
"639 782 OFFCURVE",
"696 870 OFFCURVE",
"752 870 CURVE SMOOTH",
"839 870 OFFCURVE",
"1013 714 OFFCURVE",
"1013 616 CURVE",
"897 616 LINE"
);
}
);
width = 1082;
},
{
background = {
paths = (
{
closed = 1;
nodes = (
"1002 538 OFFCURVE",
"981 361 OFFCURVE",
"969 174 CURVE SMOOTH",
"964 94 OFFCURVE",
"900 -21 OFFCURVE",
"837 -21 CURVE SMOOTH",
"801 -21 OFFCURVE",
"813 27 OFFCURVE",
"818 63 CURVE SMOOTH",
"825 117 OFFCURVE",
"842 295 OFFCURVE",
"865 541 CURVE",
"1002 538 LINE"
);
},
{
closed = 1;
nodes = (
"766 538 OFFCURVE",
"745 361 OFFCURVE",
"733 174 CURVE SMOOTH",
"728 94 OFFCURVE",
"664 -21 OFFCURVE",
"601 -21 CURVE SMOOTH",
"565 -21 OFFCURVE",
"577 27 OFFCURVE",
"582 63 CURVE SMOOTH",
"589 117 OFFCURVE",
"606 295 OFFCURVE",
"629 541 CURVE",
"766 538 LINE"
);
},
{
closed = 1;
nodes = (
"1117 629 OFFCURVE",
"1126 622 OFFCURVE",
"1121 607 CURVE SMOOTH",
"1096 529 LINE SMOOTH",
"1089 508 OFFCURVE",
"1079 510 OFFCURVE",
"1062 510 CURVE",
"575 510 LINE SMOOTH",
"556 510 OFFCURVE",
"549 517 OFFCURVE",
"554 532 CURVE SMOOTH",
"579 610 LINE SMOOTH",
"586 631 OFFCURVE",
"596 629 OFFCURVE",
"628 629 CURVE",
"1098 629 LINE SMOOTH"
);
},
{
closed = 1;
nodes = (
"452 395 LINE",
"490 373 OFFCURVE",
"558 350 OFFCURVE",
"619 384 CURVE",
"608 259 LINE",
"500 262 OFFCURVE",
"454 308 OFFCURVE",
"405 346 CURVE"
);
},
{
closed = 1;
nodes = (
"276 502 OFFCURVE",
"271 507 OFFCURVE",
"271 516 CURVE SMOOTH",
"271 541 OFFCURVE",
"350 608 OFFCURVE",
"406 608 CURVE SMOOTH",
"460 608 OFFCURVE",
"518 554 OFFCURVE",
"518 492 CURVE SMOOTH",
"518 419 OFFCURVE",
"437 361 OFFCURVE",
"405 346 CURVE",
"457 328 OFFCURVE",
"502 284 OFFCURVE",
"502 206 CURVE SMOOTH",
"502 121 OFFCURVE",
"421 17 OFFCURVE",
"242 17 CURVE SMOOTH",
"121 17 OFFCURVE",
"25 83 OFFCURVE",
"25 180 CURVE SMOOTH",
"25 278 OFFCURVE",
"129 337 OFFCURVE",
"162 337 CURVE SMOOTH",
"191 337 OFFCURVE",
"149 279 OFFCURVE",
"149 210 CURVE SMOOTH",
"149 168 OFFCURVE",
"155 119 OFFCURVE",
"233 119 CURVE SMOOTH",
"304 119 OFFCURVE",
"360 155 OFFCURVE",
"360 226 CURVE SMOOTH",
"360 269 OFFCURVE",
"345 290 OFFCURVE",
"322 290 CURVE SMOOTH",
"300 290 OFFCURVE",
"285 286 OFFCURVE",
"268 286 CURVE SMOOTH",
"249 286 OFFCURVE",
"244 298 OFFCURVE",
"244 320 CURVE SMOOTH",
"244 373 OFFCURVE",
"248 387 OFFCURVE",
"279 387 CURVE SMOOTH",
"326 387 OFFCURVE",
"383 384 OFFCURVE",
"383 440 CURVE SMOOTH",
"383 477 OFFCURVE",
"380 515 OFFCURVE",
"353 515 CURVE SMOOTH",
"339 515 OFFCURVE",
"300 502 OFFCURVE",
"287 502 CURVE SMOOTH"
);
},
{
closed = 1;
nodes = (
"879 624 OFFCURVE",
"881 635 OFFCURVE",
"881 643 CURVE SMOOTH",
"881 701 OFFCURVE",
"722 737 OFFCURVE",
"670 737 CURVE SMOOTH",
"655 737 OFFCURVE",
"642 708 OFFCURVE",
"633 708 CURVE SMOOTH",
"626 708 OFFCURVE",
"619 724 OFFCURVE",
"619 736 CURVE SMOOTH",
"619 782 OFFCURVE",
"676 870 OFFCURVE",
"732 870 CURVE SMOOTH",
"819 870 OFFCURVE",
"993 714 OFFCURVE",
"993 616 CURVE",
"877 616 LINE"
);
}
);
};
layerId = "B0B60A8F-2DEB-4A58-A43B-60A0DADABD8F";
paths = (
{
closed = 1;
nodes = (
"742 538 OFFCURVE",
"719 361 OFFCURVE",
"708 174 CURVE SMOOTH",
"704 107 OFFCURVE",
"642 -21 OFFCURVE",
"601 -21 CURVE SMOOTH",
"570 -21 OFFCURVE",
"575 14 OFFCURVE",
"581 56 CURVE SMOOTH",
"595 162 OFFCURVE",
"629 541 OFFCURVE",
"629 541 CURVE",
"742 538 LINE"
);
},
{
closed = 1;
nodes = (
"1074 606 OFFCURVE",
"1081 599 OFFCURVE",
"1076 584 CURVE SMOOTH",
"1059 531 LINE SMOOTH",
"1052 509 OFFCURVE",
"1039 512 OFFCURVE",
"1010 512 CURVE",
"576 512 LINE SMOOTH",
"557 512 OFFCURVE",
"550 519 OFFCURVE",
"555 534 CURVE SMOOTH",
"571 587 LINE SMOOTH",
"578 609 OFFCURVE",
"591 606 OFFCURVE",
"620 606 CURVE",
"1055 606 LINE SMOOTH"
);
},
{
closed = 1;
nodes = (
"439 393 LINE",
"480 367 OFFCURVE",
"553 345 OFFCURVE",
"619 375 CURVE",
"609 267 LINE",
"510 270 OFFCURVE",
"447 313 OFFCURVE",
"400 351 CURVE"
);
},
{
closed = 1;
nodes = (
"289 512 OFFCURVE",
"284 514 OFFCURVE",
"284 521 CURVE SMOOTH",
"284 546 OFFCURVE",
"370 608 OFFCURVE",
"407 608 CURVE SMOOTH",
"449 608 OFFCURVE",
"508 547 OFFCURVE",
"508 487 CURVE SMOOTH",
"508 419 OFFCURVE",
"432 366 OFFCURVE",
"400 351 CURVE",
"450 331 OFFCURVE",
"492 277 OFFCURVE",
"492 211 CURVE SMOOTH",
"492 121 OFFCURVE",
"405 27 OFFCURVE",
"242 27 CURVE SMOOTH",
"121 27 OFFCURVE",
"34 97 OFFCURVE",
"34 183 CURVE SMOOTH",
"34 267 OFFCURVE",
"135 337 OFFCURVE",
"162 337 CURVE SMOOTH",
"191 337 OFFCURVE",
"141 278 OFFCURVE",
"141 199 CURVE SMOOTH",
"141 149 OFFCURVE",
"160 110 OFFCURVE",
"233 110 CURVE SMOOTH",
"313 110 OFFCURVE",
"372 146 OFFCURVE",
"372 226 CURVE SMOOTH",
"372 248 OFFCURVE",
"369 299 OFFCURVE",
"322 299 CURVE SMOOTH",
"300 299 OFFCURVE",
"286 295 OFFCURVE",
"269 295 CURVE SMOOTH",
"257 295 OFFCURVE",
"254 303 OFFCURVE",
"254 320 CURVE SMOOTH",
"254 373 OFFCURVE",
"263 379 OFFCURVE",
"285 379 CURVE SMOOTH",
"347 379 OFFCURVE",
"395 384 OFFCURVE",
"395 440 CURVE SMOOTH",
"395 477 OFFCURVE",
"387 525 OFFCURVE",
"361 525 CURVE SMOOTH",
"347 525 OFFCURVE",
"310 512 OFFCURVE",
"296 512 CURVE SMOOTH"
);
},
{
closed = 1;
nodes = (
"977 538 OFFCURVE",
"954 361 OFFCURVE",
"943 174 CURVE SMOOTH",
"939 107 OFFCURVE",
"877 -21 OFFCURVE",
"836 -21 CURVE SMOOTH",
"805 -21 OFFCURVE",
"810 14 OFFCURVE",
"816 56 CURVE SMOOTH",
"830 162 OFFCURVE",
"864 541 OFFCURVE",
"864 541 CURVE",
"977 538 LINE"
);
},
{
closed = 1;
nodes = (
"875 607 OFFCURVE",
"881 629 OFFCURVE",
"881 642 CURVE SMOOTH",
"881 699 OFFCURVE",
"727 736 OFFCURVE",
"682 736 CURVE SMOOTH",
"667 736 OFFCURVE",
"657 707 OFFCURVE",
"648 707 CURVE SMOOTH",
"641 707 OFFCURVE",
"634 719 OFFCURVE",
"634 731 CURVE SMOOTH",
"634 777 OFFCURVE",
"683 842 OFFCURVE",
"723 842 CURVE SMOOTH",
"800 842 OFFCURVE",
"979 696 OFFCURVE",
"979 599 CURVE",
"873 599 LINE"
);
}
);
width = 1010;
}
);
unicode = 0913;
},
{
glyphname = "au-deva";
lastChange = "2020-11-21 10:42:39 +0000";
layers = (
{
layerId = "555B79C6-6D98-46E7-9307-77C37975E414";
paths = (
{
closed = 1;
nodes = (
"1022 538 OFFCURVE",
"1001 361 OFFCURVE",
"989 174 CURVE SMOOTH",
"984 94 OFFCURVE",
"920 -21 OFFCURVE",
"857 -21 CURVE SMOOTH",
"821 -21 OFFCURVE",
"833 27 OFFCURVE",
"838 63 CURVE SMOOTH",
"845 117 OFFCURVE",
"862 295 OFFCURVE",
"885 541 CURVE",
"1022 538 LINE"
);
},
{
closed = 1;
nodes = (
"786 538 OFFCURVE",
"765 361 OFFCURVE",
"753 174 CURVE SMOOTH",
"748 94 OFFCURVE",
"684 -21 OFFCURVE",
"621 -21 CURVE SMOOTH",
"585 -21 OFFCURVE",
"597 27 OFFCURVE",
"602 63 CURVE SMOOTH",
"609 117 OFFCURVE",
"626 295 OFFCURVE",
"649 541 CURVE",
"786 538 LINE"
);
},
{
closed = 1;
nodes = (
"1137 629 OFFCURVE",
"1146 622 OFFCURVE",
"1141 607 CURVE SMOOTH",
"1116 529 LINE SMOOTH",
"1109 508 OFFCURVE",
"1099 510 OFFCURVE",
"1082 510 CURVE",
"595 510 LINE SMOOTH",
"576 510 OFFCURVE",
"569 517 OFFCURVE",
"574 532 CURVE SMOOTH",
"599 610 LINE SMOOTH",
"606 631 OFFCURVE",
"616 629 OFFCURVE",
"648 629 CURVE",
"1118 629 LINE SMOOTH"
);
},
{
closed = 1;
nodes = (
"472 395 LINE",
"510 373 OFFCURVE",
"578 350 OFFCURVE",
"639 384 CURVE",
"628 259 LINE",
"520 262 OFFCURVE",
"474 308 OFFCURVE",
"425 346 CURVE"
);
},
{
closed = 1;
nodes = (
"296 502 OFFCURVE",
"291 507 OFFCURVE",
"291 516 CURVE SMOOTH",
"291 541 OFFCURVE",
"370 608 OFFCURVE",
"426 608 CURVE SMOOTH",
"480 608 OFFCURVE",
"538 554 OFFCURVE",
"538 492 CURVE SMOOTH",
"538 419 OFFCURVE",
"457 361 OFFCURVE",
"425 346 CURVE",
"477 328 OFFCURVE",
"522 284 OFFCURVE",
"522 206 CURVE SMOOTH",
"522 121 OFFCURVE",
"441 17 OFFCURVE",
"262 17 CURVE SMOOTH",
"141 17 OFFCURVE",
"45 83 OFFCURVE",
"45 180 CURVE SMOOTH",
"45 278 OFFCURVE",
"149 337 OFFCURVE",
"182 337 CURVE SMOOTH",
"211 337 OFFCURVE",
"169 279 OFFCURVE",
"169 210 CURVE SMOOTH",
"169 168 OFFCURVE",
"175 119 OFFCURVE",
"253 119 CURVE SMOOTH",
"324 119 OFFCURVE",
"380 155 OFFCURVE",
"380 226 CURVE SMOOTH",
"380 269 OFFCURVE",
"365 290 OFFCURVE",
"342 290 CURVE SMOOTH",
"320 290 OFFCURVE",
"305 286 OFFCURVE",
"288 286 CURVE SMOOTH",
"269 286 OFFCURVE",
"264 298 OFFCURVE",
"264 320 CURVE SMOOTH",
"264 373 OFFCURVE",
"268 387 OFFCURVE",
"299 387 CURVE SMOOTH",
"346 387 OFFCURVE",
"403 384 OFFCURVE",
"403 440 CURVE SMOOTH",
"403 477 OFFCURVE",
"400 515 OFFCURVE",
"373 515 CURVE SMOOTH",
"359 515 OFFCURVE",
"320 502 OFFCURVE",
"307 502 CURVE SMOOTH"
);
},
{
closed = 1;
nodes = (
"887 624 OFFCURVE",
"889 632 OFFCURVE",
"889 636 CURVE SMOOTH",
"889 675 OFFCURVE",
"754 681 OFFCURVE",
"732 681 CURVE SMOOTH",
"717 681 OFFCURVE",
"708 652 OFFCURVE",
"696 652 CURVE SMOOTH",
"689 652 OFFCURVE",
"684 669 OFFCURVE",
"684 681 CURVE SMOOTH",
"684 712 OFFCURVE",
"724 781 OFFCURVE",
"759 781 CURVE SMOOTH",
"822 781 OFFCURVE",
"958 674 OFFCURVE",
"958 616 CURVE",
"883 616 LINE"
);
},
{
closed = 1;
nodes = (
"945 620 OFFCURVE",
"919 669 OFFCURVE",
"908 684 CURVE",
"925 698 LINE",
"862 787 OFFCURVE",
"765 832 OFFCURVE",
"728 832 CURVE SMOOTH",
"713 832 OFFCURVE",
"697 803 OFFCURVE",
"688 803 CURVE SMOOTH",
"681 803 OFFCURVE",
"676 820 OFFCURVE",
"676 832 CURVE SMOOTH",
"676 871 OFFCURVE",
"743 942 OFFCURVE",
"786 942 CURVE SMOOTH",
"875 942 OFFCURVE",
"1030 723 OFFCURVE",
"1030 616 CURVE",
"944 616 LINE"
);
}
);
width = 1082;
},
{
background = {
paths = (
{
closed = 1;
nodes = (
"877 624 OFFCURVE",
"879 632 OFFCURVE",
"879 636 CURVE SMOOTH",
"879 675 OFFCURVE",
"744 681 OFFCURVE",
"722 681 CURVE SMOOTH",
"707 681 OFFCURVE",
"698 652 OFFCURVE",
"686 652 CURVE SMOOTH",
"679 652 OFFCURVE",
"674 669 OFFCURVE",
"674 681 CURVE SMOOTH",
"674 712 OFFCURVE",
"714 781 OFFCURVE",
"749 781 CURVE SMOOTH",
"812 781 OFFCURVE",
"948 674 OFFCURVE",
"948 616 CURVE",
"873 616 LINE"
);
},
{
closed = 1;
nodes = (
"935 620 OFFCURVE",
"909 669 OFFCURVE",
"898 684 CURVE",
"915 698 LINE",
"852 787 OFFCURVE",
"755 832 OFFCURVE",
"718 832 CURVE SMOOTH",
"703 832 OFFCURVE",
"687 803 OFFCURVE",
"678 803 CURVE SMOOTH",
"671 803 OFFCURVE",
"666 820 OFFCURVE",
"666 832 CURVE SMOOTH",
"666 871 OFFCURVE",
"733 942 OFFCURVE",
"776 942 CURVE SMOOTH",
"865 942 OFFCURVE",
"1020 723 OFFCURVE",
"1020 616 CURVE",
"934 616 LINE"
);
},
{
closed = 1;
nodes = (
"1002 538 OFFCURVE",
"981 361 OFFCURVE",
"969 174 CURVE SMOOTH",
"964 94 OFFCURVE",
"900 -21 OFFCURVE",
"837 -21 CURVE SMOOTH",
"801 -21 OFFCURVE",
"813 27 OFFCURVE",
"818 63 CURVE SMOOTH",
"825 117 OFFCURVE",
"842 295 OFFCURVE",
"865 541 CURVE",
"1002 538 LINE"
);
},
{
closed = 1;
nodes = (
"766 538 OFFCURVE",
"745 361 OFFCURVE",
"733 174 CURVE SMOOTH",
"728 94 OFFCURVE",
"664 -21 OFFCURVE",
"601 -21 CURVE SMOOTH",
"565 -21 OFFCURVE",
"577 27 OFFCURVE",
"582 63 CURVE SMOOTH",
"589 117 OFFCURVE",
"606 295 OFFCURVE",
"629 541 CURVE",
"766 538 LINE"
);
},
{
closed = 1;
nodes = (
"1117 629 OFFCURVE",
"1126 622 OFFCURVE",
"1121 607 CURVE SMOOTH",
"1096 529 LINE SMOOTH",
"1089 508 OFFCURVE",
"1079 510 OFFCURVE",
"1062 510 CURVE",
"575 510 LINE SMOOTH",
"556 510 OFFCURVE",
"549 517 OFFCURVE",
"554 532 CURVE SMOOTH",
"579 610 LINE SMOOTH",
"586 631 OFFCURVE",
"596 629 OFFCURVE",
"628 629 CURVE",
"1098 629 LINE SMOOTH"
);
},
{
closed = 1;
nodes = (
"452 395 LINE",
"490 373 OFFCURVE",
"558 350 OFFCURVE",
"619 384 CURVE",
"608 259 LINE",
"500 262 OFFCURVE",
"454 308 OFFCURVE",
"405 346 CURVE"
);
},
{
closed = 1;
nodes = (
"276 502 OFFCURVE",
"271 507 OFFCURVE",
"271 516 CURVE SMOOTH",
"271 541 OFFCURVE",
"350 608 OFFCURVE",
"406 608 CURVE SMOOTH",
"460 608 OFFCURVE",
"518 554 OFFCURVE",
"518 492 CURVE SMOOTH",
"518 419 OFFCURVE",
"437 361 OFFCURVE",
"405 346 CURVE",
"457 328 OFFCURVE",
"502 284 OFFCURVE",
"502 206 CURVE SMOOTH",
"502 121 OFFCURVE",
"421 17 OFFCURVE",
"242 17 CURVE SMOOTH",
"121 17 OFFCURVE",
"25 83 OFFCURVE",
"25 180 CURVE SMOOTH",
"25 278 OFFCURVE",
"129 337 OFFCURVE",
"162 337 CURVE SMOOTH",
"191 337 OFFCURVE",
"149 279 OFFCURVE",
"149 210 CURVE SMOOTH",
"149 168 OFFCURVE",
"155 119 OFFCURVE",
"233 119 CURVE SMOOTH",
"304 119 OFFCURVE",
"360 155 OFFCURVE",
"360 226 CURVE SMOOTH",
"360 269 OFFCURVE",
"345 290 OFFCURVE",
"322 290 CURVE SMOOTH",
"300 290 OFFCURVE",
"285 286 OFFCURVE",
"268 286 CURVE SMOOTH",
"249 286 OFFCURVE",
"244 298 OFFCURVE",
"244 320 CURVE SMOOTH",
"244 373 OFFCURVE",
"248 387 OFFCURVE",
"279 387 CURVE SMOOTH",
"326 387 OFFCURVE",
"383 384 OFFCURVE",
"383 440 CURVE SMOOTH",
"383 477 OFFCURVE",
"380 515 OFFCURVE",
"353 515 CURVE SMOOTH",
"339 515 OFFCURVE",
"300 502 OFFCURVE",
"287 502 CURVE SMOOTH"
);
},
{
closed = 1;
nodes = (
"875 607 OFFCURVE",
"881 629 OFFCURVE",
"881 642 CURVE SMOOTH",
"881 699 OFFCURVE",
"725 736 OFFCURVE",
"680 736 CURVE SMOOTH",
"665 736 OFFCURVE",
"652 698 OFFCURVE",
"643 698 CURVE SMOOTH",
"636 698 OFFCURVE",
"629 714 OFFCURVE",
"629 726 CURVE SMOOTH",
"629 772 OFFCURVE",
"685 850 OFFCURVE",
"732 850 CURVE SMOOTH",
"809 850 OFFCURVE",
"979 697 OFFCURVE",
"979 599 CURVE",
"873 599 LINE"
);
}
);
};
layerId = "B0B60A8F-2DEB-4A58-A43B-60A0DADABD8F";
paths = (
{
closed = 1;
nodes = (
"742 538 OFFCURVE",
"719 361 OFFCURVE",
"708 174 CURVE SMOOTH",
"704 107 OFFCURVE",
"642 -21 OFFCURVE",
"601 -21 CURVE SMOOTH",
"570 -21 OFFCURVE",
"575 14 OFFCURVE",
"581 56 CURVE SMOOTH",
"595 162 OFFCURVE",
"629 541 OFFCURVE",
"629 541 CURVE",
"742 538 LINE"
);
},
{
closed = 1;
nodes = (
"1074 606 OFFCURVE",
"1081 599 OFFCURVE",
"1076 584 CURVE SMOOTH",
"1059 531 LINE SMOOTH",
"1052 509 OFFCURVE",
"1039 512 OFFCURVE",
"1010 512 CURVE",
"576 512 LINE SMOOTH",
"557 512 OFFCURVE",
"550 519 OFFCURVE",
"555 534 CURVE SMOOTH",
"571 587 LINE SMOOTH",
"578 609 OFFCURVE",
"591 606 OFFCURVE",
"620 606 CURVE",
"1055 606 LINE SMOOTH"
);
},
{
closed = 1;
nodes = (
"439 393 LINE",
"480 367 OFFCURVE",
"553 345 OFFCURVE",
"619 375 CURVE",
"609 265 LINE",
"510 268 OFFCURVE",
"447 313 OFFCURVE",
"400 351 CURVE"
);
},
{
closed = 1;
nodes = (
"289 512 OFFCURVE",
"284 514 OFFCURVE",
"284 521 CURVE SMOOTH",
"284 546 OFFCURVE",
"370 608 OFFCURVE",
"407 608 CURVE SMOOTH",
"449 608 OFFCURVE",
"508 547 OFFCURVE",
"508 487 CURVE SMOOTH",
"508 419 OFFCURVE",
"432 366 OFFCURVE",
"400 351 CURVE",
"450 331 OFFCURVE",
"492 277 OFFCURVE",
"492 211 CURVE SMOOTH",
"492 121 OFFCURVE",
"405 27 OFFCURVE",
"242 27 CURVE SMOOTH",
"121 27 OFFCURVE",
"34 97 OFFCURVE",
"34 183 CURVE SMOOTH",
"34 267 OFFCURVE",
"135 337 OFFCURVE",
"162 337 CURVE SMOOTH",
"191 337 OFFCURVE",
"141 278 OFFCURVE",
"141 199 CURVE SMOOTH",
"141 149 OFFCURVE",
"160 110 OFFCURVE",
"233 110 CURVE SMOOTH",
"313 110 OFFCURVE",
"372 146 OFFCURVE",
"372 226 CURVE SMOOTH",
"372 248 OFFCURVE",
"369 299 OFFCURVE",
"322 299 CURVE SMOOTH",
"300 299 OFFCURVE",
"286 295 OFFCURVE",
"269 295 CURVE SMOOTH",
"257 295 OFFCURVE",
"254 303 OFFCURVE",
"254 320 CURVE SMOOTH",
"254 373 OFFCURVE",
"263 379 OFFCURVE",
"285 379 CURVE SMOOTH",
"347 379 OFFCURVE",
"395 384 OFFCURVE",
"395 440 CURVE SMOOTH",
"395 477 OFFCURVE",
"387 525 OFFCURVE",
"361 525 CURVE SMOOTH",
"347 525 OFFCURVE",
"310 512 OFFCURVE",
"296 512 CURVE SMOOTH"
);
},
{
closed = 1;
nodes = (
"977 538 OFFCURVE",
"954 361 OFFCURVE",
"943 174 CURVE SMOOTH",
"939 107 OFFCURVE",
"877 -21 OFFCURVE",
"836 -21 CURVE SMOOTH",
"805 -21 OFFCURVE",
"810 14 OFFCURVE",
"816 56 CURVE SMOOTH",
"830 162 OFFCURVE",
"864 541 OFFCURVE",
"864 541 CURVE",
"977 538 LINE"
);
},
{
closed = 1;
nodes = (
"866 607 OFFCURVE",
"870 619 OFFCURVE",
"870 630 CURVE SMOOTH",
"870 670 OFFCURVE",
"744 682 OFFCURVE",
"722 682 CURVE SMOOTH",
"705 682 OFFCURVE",
"696 654 OFFCURVE",
"686 654 CURVE SMOOTH",
"678 654 OFFCURVE",
"675 668 OFFCURVE",
"675 682 CURVE SMOOTH",
"675 713 OFFCURVE",
"710 769 OFFCURVE",
"738 769 CURVE SMOOTH",
"797 769 OFFCURVE",
"936 657 OFFCURVE",
"936 599 CURVE",
"862 599 LINE"
);
},
{
closed = 1;
nodes = (
"921 603 OFFCURVE",
"911 641 OFFCURVE",
"900 656 CURVE",
"923 676 LINE",
"867 761 OFFCURVE",
"755 836 OFFCURVE",
"718 836 CURVE SMOOTH",
"703 836 OFFCURVE",
"690 809 OFFCURVE",
"680 809 CURVE SMOOTH",
"672 809 OFFCURVE",
"671 824 OFFCURVE",
"671 833 CURVE SMOOTH",
"671 870 OFFCURVE",
"727 930 OFFCURVE",
"760 930 CURVE SMOOTH",
"845 930 OFFCURVE",
"994 706 OFFCURVE",
"994 599 CURVE",
"920 599 LINE"
);
}
);
width = 1010;
}
);
unicode = 0914;
},
{
glyphname = "aaMatra-deva";
lastChange = "2020-11-23 12:56:50 +0000";
layers = (
{
layerId = "555B79C6-6D98-46E7-9307-77C37975E414";
paths = (
{
closed = 1;
nodes = (
"0 629 LINE",
"-15 629 OFFCURVE",
"-25 627 OFFCURVE",
"-30 610 CURVE SMOOTH",
"-55 532 LINE SMOOTH",
"-60 517 OFFCURVE",
"-53 510 OFFCURVE",
"-34 510 CURVE SMOOTH",
"280 510 LINE",
"312 510 OFFCURVE",
"322 508 OFFCURVE",
"329 529 CURVE SMOOTH",
"354 607 LINE SMOOTH",
"359 622 OFFCURVE",
"352 629 OFFCURVE",
"333 629 CURVE SMOOTH"
);
},
{
closed = 1;
nodes = (
"87 541 LINE",
"64 295 OFFCURVE",
"47 117 OFFCURVE",
"40 63 CURVE SMOOTH",
"35 27 OFFCURVE",
"26 -23 OFFCURVE",
"65 -23 CURVE SMOOTH",
"122 -23 OFFCURVE",
"186 95 OFFCURVE",
"191 174 CURVE SMOOTH",
"203 361 OFFCURVE",
"211 396 OFFCURVE",
"224 538 CURVE"
);
}
);
width = 280;
},
{
background = {
paths = (
{
closed = 1;
nodes = (
"0 629 LINE",
"-15 629 OFFCURVE",
"-25 627 OFFCURVE",
"-30 610 CURVE SMOOTH",
"-55 532 LINE SMOOTH",
"-60 517 OFFCURVE",
"-53 510 OFFCURVE",
"-34 510 CURVE SMOOTH",
"280 510 LINE",
"312 510 OFFCURVE",
"322 508 OFFCURVE",
"329 529 CURVE SMOOTH",
"354 607 LINE SMOOTH",
"359 622 OFFCURVE",
"352 629 OFFCURVE",
"333 629 CURVE SMOOTH"
);
},
{
closed = 1;
nodes = (
"87 541 LINE",
"64 295 OFFCURVE",
"47 117 OFFCURVE",
"40 63 CURVE SMOOTH",
"35 27 OFFCURVE",
"26 -23 OFFCURVE",
"65 -23 CURVE SMOOTH",
"122 -23 OFFCURVE",
"186 95 OFFCURVE",
"191 174 CURVE SMOOTH",
"203 361 OFFCURVE",
"211 396 OFFCURVE",
"224 538 CURVE"
);
}
);
};
layerId = "B0B60A8F-2DEB-4A58-A43B-60A0DADABD8F";
paths = (
{
closed = 1;
nodes = (
"0 606 LINE",
"-19 606 OFFCURVE",
"-31 609 OFFCURVE",
"-38 587 CURVE SMOOTH",
"-54 534 LINE SMOOTH",
"-59 519 OFFCURVE",
"-53 512 OFFCURVE",
"-34 512 CURVE SMOOTH",
"221 512 LINE",
"250 512 OFFCURVE",
"263 509 OFFCURVE",
"270 531 CURVE SMOOTH",
"287 584 LINE SMOOTH",
"292 599 OFFCURVE",
"285 606 OFFCURVE",
"266 606 CURVE SMOOTH"
);
},
{
closed = 1;
nodes = (
"67 541 LINE",
"67 541 OFFCURVE",
"33 162 OFFCURVE",
"19 56 CURVE SMOOTH",
"13 14 OFFCURVE",
"8 -23 OFFCURVE",
"39 -23 CURVE SMOOTH",
"80 -23 OFFCURVE",
"142 107 OFFCURVE",
"146 174 CURVE SMOOTH",
"157 361 OFFCURVE",
"180 538 OFFCURVE",
"180 538 CURVE"
);
}
);
width = 221;
}
);
unicode = 093E;
},
{
glyphname = "iMatra-deva";
lastChange = "2020-11-26 14:16:44 +0000";
layers = (
{
layerId = "555B79C6-6D98-46E7-9307-77C37975E414";
paths = (
{
closed = 1;
nodes = (
"198 704 OFFCURVE",
"178 860 OFFCURVE",
"329 860 CURVE SMOOTH",
"455 860 OFFCURVE",
"686 737 OFFCURVE",
"686 703 CURVE SMOOTH",
"686 695 OFFCURVE",
"680 680 OFFCURVE",
"680 672 CURVE SMOOTH",
"680 667 OFFCURVE",
"682 661 OFFCURVE",
"694 661 CURVE SMOOTH",
"736 661 OFFCURVE",
"801 753 OFFCURVE",
"799 804 CURVE SMOOTH",
"797 873 OFFCURVE",
"501 992 OFFCURVE",
"332 992 CURVE SMOOTH",
"161 992 OFFCURVE",
"38 845 OFFCURVE",
"86 605 CURVE",
"235 605 LINE"
);
},
{
closed = 1;
nodes = (
"0 629 LINE",
"-15 629 OFFCURVE",
"-25 627 OFFCURVE",
"-30 610 CURVE SMOOTH",
"-55 532 LINE SMOOTH",
"-60 517 OFFCURVE",
"-53 510 OFFCURVE",
"-34 510 CURVE SMOOTH",
"283 510 LINE",
"315 510 OFFCURVE",
"325 508 OFFCURVE",
"332 529 CURVE SMOOTH",
"357 607 LINE SMOOTH",
"362 622 OFFCURVE",
"355 629 OFFCURVE",
"336 629 CURVE SMOOTH"
);
},
{
closed = 1;
nodes = (
"87 541 LINE",
"64 295 OFFCURVE",
"47 117 OFFCURVE",
"40 63 CURVE SMOOTH",
"35 27 OFFCURVE",
"26 -23 OFFCURVE",
"65 -23 CURVE SMOOTH",
"122 -23 OFFCURVE",
"186 95 OFFCURVE",
"191 174 CURVE SMOOTH",
"203 361 OFFCURVE",
"211 396 OFFCURVE",
"224 538 CURVE"
);
}
);
width = 283;
},
{
background = {
paths = (
{
closed = 1;
nodes = (
"198 704 OFFCURVE",
"178 860 OFFCURVE",
"329 860 CURVE SMOOTH",
"455 860 OFFCURVE",
"686 737 OFFCURVE",
"686 703 CURVE SMOOTH",
"686 695 OFFCURVE",
"680 680 OFFCURVE",
"680 672 CURVE SMOOTH",
"680 667 OFFCURVE",
"682 661 OFFCURVE",
"694 661 CURVE SMOOTH",
"736 661 OFFCURVE",
"801 753 OFFCURVE",
"799 804 CURVE SMOOTH",
"797 873 OFFCURVE",
"501 992 OFFCURVE",
"332 992 CURVE SMOOTH",
"161 992 OFFCURVE",
"38 845 OFFCURVE",
"86 605 CURVE",
"235 605 LINE"
);
},
{
closed = 1;
nodes = (
"0 629 LINE",
"-15 629 OFFCURVE",
"-25 627 OFFCURVE",
"-30 610 CURVE SMOOTH",
"-55 532 LINE SMOOTH",
"-60 517 OFFCURVE",
"-53 510 OFFCURVE",
"-34 510 CURVE SMOOTH",
"283 510 LINE",
"315 510 OFFCURVE",
"325 508 OFFCURVE",
"332 529 CURVE SMOOTH",
"357 607 LINE SMOOTH",
"362 622 OFFCURVE",
"355 629 OFFCURVE",
"336 629 CURVE SMOOTH"
);
},
{
closed = 1;
nodes = (
"87 541 LINE",
"64 295 OFFCURVE",
"47 117 OFFCURVE",
"40 63 CURVE SMOOTH",
"35 27 OFFCURVE",
"26 -23 OFFCURVE",
"65 -23 CURVE SMOOTH",
"122 -23 OFFCURVE",
"186 95 OFFCURVE",
"191 174 CURVE SMOOTH",
"203 361 OFFCURVE",
"211 396 OFFCURVE",
"224 538 CURVE"
);
}
);
};
layerId = "B0B60A8F-2DEB-4A58-A43B-60A0DADABD8F";
paths = (
{
closed = 1;
nodes = (
"0 606 LINE",
"-19 606 OFFCURVE",
"-31 609 OFFCURVE",
"-38 587 CURVE SMOOTH",
"-54 534 LINE SMOOTH",
"-59 519 OFFCURVE",
"-53 512 OFFCURVE",
"-34 512 CURVE SMOOTH",
"273 512 LINE",
"302 512 OFFCURVE",
"315 509 OFFCURVE",
"322 531 CURVE SMOOTH",
"339 584 LINE SMOOTH",
"344 599 OFFCURVE",
"337 606 OFFCURVE",
"318 606 CURVE SMOOTH"
);
},
{
closed = 1;
nodes = (
"99 541 LINE",
"99 541 OFFCURVE",
"65 162 OFFCURVE",
"51 56 CURVE SMOOTH",
"45 14 OFFCURVE",
"40 -23 OFFCURVE",
"71 -23 CURVE SMOOTH",
"112 -23 OFFCURVE",
"174 107 OFFCURVE",
"178 174 CURVE SMOOTH",
"189 361 OFFCURVE",
"212 538 OFFCURVE",
"212 538 CURVE"
);
},
{
closed = 1;
nodes = (
"180 729 OFFCURVE",
"174 873 OFFCURVE",
"329 873 CURVE SMOOTH",
"455 873 OFFCURVE",
"691 749 OFFCURVE",
"691 715 CURVE SMOOTH",
"691 707 OFFCURVE",
"685 691 OFFCURVE",
"685 681 CURVE SMOOTH",
"685 676 OFFCURVE",
"688 672 OFFCURVE",
"696 672 CURVE SMOOTH",
"721 672 OFFCURVE",
"791 749 OFFCURVE",
"789 801 CURVE SMOOTH",
"787 860 OFFCURVE",
"489 981 OFFCURVE",
"336 981 CURVE SMOOTH",
"166 981 OFFCURVE",
"52 836 OFFCURVE",
"98 595 CURVE",
"225 595 LINE"
);
}
);
width = 273;
}
);
unicode = 093F;
},
{
glyphname = "iiMatra-deva";
lastChange = "2020-11-26 14:16:08 +0000";
layers = (
{
layerId = "555B79C6-6D98-46E7-9307-77C37975E414";
paths = (
{
closed = 1;
nodes = (
"235 605 LINE",
"241 795 OFFCURVE",
"-89 997 OFFCURVE",
"-269 997 CURVE SMOOTH",
"-416 997 OFFCURVE",
"-520 836 OFFCURVE",
"-520 761 CURVE SMOOTH",
"-520 710 OFFCURVE",
"-411 663 OFFCURVE",
"-371 663 CURVE SMOOTH",
"-357 663 OFFCURVE",
"-353 671 OFFCURVE",
"-353 675 CURVE SMOOTH",
"-353 687 OFFCURVE",
"-371 699 OFFCURVE",
"-371 711 CURVE SMOOTH",
"-371 761 OFFCURVE",
"-324 869 OFFCURVE",
"-257 869 CURVE SMOOTH",
"-151 869 OFFCURVE",
"86 742 OFFCURVE",
"72 605 CURVE"
);
},
{
closed = 1;
nodes = (
"0 629 LINE",
"-15 629 OFFCURVE",
"-25 627 OFFCURVE",
"-30 610 CURVE SMOOTH",
"-55 532 LINE SMOOTH",
"-60 517 OFFCURVE",
"-53 510 OFFCURVE",
"-34 510 CURVE SMOOTH",
"283 510 LINE",
"315 510 OFFCURVE",
"325 508 OFFCURVE",
"332 529 CURVE SMOOTH",
"357 607 LINE SMOOTH",
"362 622 OFFCURVE",
"355 629 OFFCURVE",
"336 629 CURVE SMOOTH"
);
},
{
closed = 1;
nodes = (
"87 541 LINE",
"64 295 OFFCURVE",
"47 117 OFFCURVE",
"40 63 CURVE SMOOTH",
"35 27 OFFCURVE",
"26 -23 OFFCURVE",
"65 -23 CURVE SMOOTH",
"122 -23 OFFCURVE",
"186 95 OFFCURVE",
"191 174 CURVE SMOOTH",
"203 361 OFFCURVE",
"211 396 OFFCURVE",
"224 538 CURVE"
);
}
);
width = 283;
},
{
background = {
paths = (
{
closed = 1;
nodes = (
"235 605 LINE",
"241 795 OFFCURVE",
"-89 997 OFFCURVE",
"-269 997 CURVE SMOOTH",
"-416 997 OFFCURVE",
"-520 836 OFFCURVE",
"-520 761 CURVE SMOOTH",
"-520 710 OFFCURVE",
"-411 663 OFFCURVE",
"-371 663 CURVE SMOOTH",
"-357 663 OFFCURVE",
"-353 671 OFFCURVE",
"-353 675 CURVE SMOOTH",
"-353 687 OFFCURVE",
"-371 699 OFFCURVE",
"-371 711 CURVE SMOOTH",
"-371 761 OFFCURVE",
"-324 869 OFFCURVE",
"-257 869 CURVE SMOOTH",
"-151 869 OFFCURVE",
"86 742 OFFCURVE",
"72 605 CURVE"
);
},
{
closed = 1;
nodes = (
"0 629 LINE",
"-15 629 OFFCURVE",
"-25 627 OFFCURVE",
"-30 610 CURVE SMOOTH",
"-55 532 LINE SMOOTH",
"-60 517 OFFCURVE",
"-53 510 OFFCURVE",
"-34 510 CURVE SMOOTH",
"283 510 LINE",
"315 510 OFFCURVE",
"325 508 OFFCURVE",
"332 529 CURVE SMOOTH",
"357 607 LINE SMOOTH",
"362 622 OFFCURVE",
"355 629 OFFCURVE",
"336 629 CURVE SMOOTH"
);
},
{
closed = 1;
nodes = (
"87 541 LINE",
"64 295 OFFCURVE",
"47 117 OFFCURVE",
"40 63 CURVE SMOOTH",
"35 27 OFFCURVE",
"26 -23 OFFCURVE",
"65 -23 CURVE SMOOTH",
"122 -23 OFFCURVE",
"186 95 OFFCURVE",
"191 174 CURVE SMOOTH",
"203 361 OFFCURVE",
"211 396 OFFCURVE",
"224 538 CURVE"
);
}
);
};
layerId = "B0B60A8F-2DEB-4A58-A43B-60A0DADABD8F";
paths = (
{
closed = 1;
nodes = (
"205 600 LINE",
"211 790 OFFCURVE",
"-94 988 OFFCURVE",
"-265 988 CURVE SMOOTH",
"-398 988 OFFCURVE",
"-508 840 OFFCURVE",
"-508 765 CURVE SMOOTH",
"-508 730 OFFCURVE",
"-411 679 OFFCURVE",
"-381 679 CURVE SMOOTH",
"-367 679 OFFCURVE",
"-363 687 OFFCURVE",
"-363 691 CURVE SMOOTH",
"-363 703 OFFCURVE",
"-381 715 OFFCURVE",
"-381 727 CURVE SMOOTH",
"-381 782 OFFCURVE",
"-329 881 OFFCURVE",
"-257 881 CURVE SMOOTH",
"-151 881 OFFCURVE",
"93 749 OFFCURVE",
"77 600 CURVE"
);
},
{
closed = 1;
nodes = (
"0 606 LINE",
"-19 606 OFFCURVE",
"-31 609 OFFCURVE",
"-38 587 CURVE SMOOTH",
"-54 534 LINE SMOOTH",
"-59 519 OFFCURVE",
"-53 512 OFFCURVE",
"-34 512 CURVE SMOOTH",
"221 512 LINE",
"250 512 OFFCURVE",
"263 509 OFFCURVE",
"270 531 CURVE SMOOTH",
"287 584 LINE SMOOTH",
"292 599 OFFCURVE",
"285 606 OFFCURVE",
"266 606 CURVE SMOOTH"
);
},
{
closed = 1;
nodes = (
"80 541 LINE",
"80 541 OFFCURVE",
"46 162 OFFCURVE",
"32 56 CURVE SMOOTH",
"26 14 OFFCURVE",
"21 -23 OFFCURVE",
"52 -23 CURVE SMOOTH",
"93 -23 OFFCURVE",
"155 107 OFFCURVE",
"159 174 CURVE SMOOTH",
"170 361 OFFCURVE",
"193 538 OFFCURVE",
"193 538 CURVE"
);
}
);
width = 221;
}
);
unicode = 0940;
},
{
glyphname = "oMatra-deva";
lastChange = "2020-11-19 15:19:55 +0000";
layers = (
{
layerId = "555B79C6-6D98-46E7-9307-77C37975E414";
paths = (
{
closed = 1;
nodes = (
"0 629 LINE",
"-15 629 OFFCURVE",
"-25 627 OFFCURVE",
"-30 610 CURVE SMOOTH",
"-55 532 LINE SMOOTH",
"-60 517 OFFCURVE",
"-53 510 OFFCURVE",
"-34 510 CURVE SMOOTH",
"283 510 LINE",
"315 510 OFFCURVE",
"325 508 OFFCURVE",
"332 529 CURVE SMOOTH",
"357 607 LINE SMOOTH",
"362 622 OFFCURVE",
"355 629 OFFCURVE",
"336 629 CURVE SMOOTH"
);
},
{
closed = 1;
nodes = (
"87 541 LINE",
"64 295 OFFCURVE",
"47 117 OFFCURVE",
"40 63 CURVE SMOOTH",
"35 27 OFFCURVE",
"26 -23 OFFCURVE",
"65 -23 CURVE SMOOTH",
"122 -23 OFFCURVE",
"186 95 OFFCURVE",
"191 174 CURVE SMOOTH",
"203 361 OFFCURVE",
"211 396 OFFCURVE",
"224 538 CURVE"
);
},
{
closed = 1;
nodes = (
"223 616 LINE",
"223 714 OFFCURVE",
"-6 930 OFFCURVE",
"-93 930 CURVE SMOOTH",
"-149 930 OFFCURVE",
"-217 820 OFFCURVE",
"-217 774 CURVE SMOOTH",
"-217 760 OFFCURVE",
"-212 746 OFFCURVE",
"-203 746 CURVE SMOOTH",
"-192 746 OFFCURVE",
"-181 775 OFFCURVE",
"-166 775 CURVE SMOOTH",
"-114 775 OFFCURVE",
"91 701 OFFCURVE",
"91 643 CURVE SMOOTH",
"91 635 OFFCURVE",
"89 624 OFFCURVE",
"87 616 CURVE"
);
}
);
width = 283;
},
{
layerId = "B0B60A8F-2DEB-4A58-A43B-60A0DADABD8F";
width = 600;
}
);
unicode = 094B;
},
{
glyphname = "auMatra-deva";
lastChange = "2020-11-19 15:19:55 +0000";
layers = (
{
background = {
paths = (
{
closed = 1;
nodes = (
"0 629 LINE",
"-15 629 OFFCURVE",
"-25 627 OFFCURVE",
"-30 610 CURVE SMOOTH",
"-55 532 LINE SMOOTH",
"-60 517 OFFCURVE",
"-53 510 OFFCURVE",
"-34 510 CURVE SMOOTH",
"283 510 LINE",
"315 510 OFFCURVE",
"325 508 OFFCURVE",
"332 529 CURVE SMOOTH",
"357 607 LINE SMOOTH",
"362 622 OFFCURVE",
"355 629 OFFCURVE",
"336 629 CURVE SMOOTH"
);
},
{
closed = 1;
nodes = (
"87 541 LINE",
"64 295 OFFCURVE",
"47 117 OFFCURVE",
"40 63 CURVE SMOOTH",
"35 27 OFFCURVE",
"26 -23 OFFCURVE",
"65 -23 CURVE SMOOTH",
"122 -23 OFFCURVE",
"186 95 OFFCURVE",
"191 174 CURVE SMOOTH",
"203 361 OFFCURVE",
"211 396 OFFCURVE",
"224 538 CURVE"
);
},
{
closed = 1;
nodes = (
"263 616 LINE",
"263 714 OFFCURVE",
"34 930 OFFCURVE",
"-53 930 CURVE SMOOTH",
"-109 930 OFFCURVE",
"-177 820 OFFCURVE",
"-177 774 CURVE SMOOTH",
"-177 760 OFFCURVE",
"-172 746 OFFCURVE",
"-163 746 CURVE SMOOTH",
"-152 746 OFFCURVE",
"-141 775 OFFCURVE",
"-126 775 CURVE SMOOTH",
"-74 775 OFFCURVE",
"131 701 OFFCURVE",
"131 643 CURVE SMOOTH",
"131 635 OFFCURVE",
"129 624 OFFCURVE",
"127 616 CURVE"
);
}
);
};
layerId = "555B79C6-6D98-46E7-9307-77C37975E414";
paths = (
{
closed = 1;
nodes = (
"0 629 LINE",
"-15 629 OFFCURVE",
"-25 627 OFFCURVE",
"-30 610 CURVE SMOOTH",
"-55 532 LINE SMOOTH",
"-60 517 OFFCURVE",
"-53 510 OFFCURVE",
"-34 510 CURVE SMOOTH",
"283 510 LINE",
"315 510 OFFCURVE",
"325 508 OFFCURVE",
"332 529 CURVE SMOOTH",
"357 607 LINE SMOOTH",
"362 622 OFFCURVE",
"355 629 OFFCURVE",
"336 629 CURVE SMOOTH"
);
},
{
closed = 1;
nodes = (
"87 541 LINE",
"64 295 OFFCURVE",
"47 117 OFFCURVE",
"40 63 CURVE SMOOTH",
"35 27 OFFCURVE",
"26 -23 OFFCURVE",
"65 -23 CURVE SMOOTH",
"122 -23 OFFCURVE",
"186 95 OFFCURVE",
"191 174 CURVE SMOOTH",
"203 361 OFFCURVE",
"211 396 OFFCURVE",
"224 538 CURVE"
);
},
{
closed = 1;
nodes = (
"170 616 LINE",
"170 674 OFFCURVE",
"-52 846 OFFCURVE",
"-127 846 CURVE SMOOTH",
"-174 846 OFFCURVE",
"-216 756 OFFCURVE",
"-216 722 CURVE SMOOTH",
"-216 704 OFFCURVE",
"-211 691 OFFCURVE",
"-204 691 CURVE SMOOTH",
"-192 691 OFFCURVE",
"-181 720 OFFCURVE",
"-166 720 CURVE SMOOTH",
"-126 720 OFFCURVE",
"70 668 OFFCURVE",
"70 629 CURVE SMOOTH",
"70 622 OFFCURVE",
"69 618 OFFCURVE",
"69 616 CURVE"
);
},
{
closed = 1;
nodes = (
"246 616 LINE",
"246 716 OFFCURVE",
"52 1045 OFFCURVE",
"-52 1045 CURVE SMOOTH",
"-107 1045 OFFCURVE",
"-183 961 OFFCURVE",
"-183 917 CURVE SMOOTH",
"-183 903 OFFCURVE",
"-180 893 OFFCURVE",
"-173 893 CURVE SMOOTH",
"-163 893 OFFCURVE",
"-140 919 OFFCURVE",
"-129 919 CURVE SMOOTH",
"-92 919 OFFCURVE",
"74 787 OFFCURVE",
"137 698 CURVE",
"113 679 LINE",
"124 664 OFFCURVE",
"157 620 OFFCURVE",
"156 616 CURVE"
);
}
);
width = 283;
},
{
layerId = "B0B60A8F-2DEB-4A58-A43B-60A0DADABD8F";
width = 600;
}
);
unicode = 094C;
},
{
glyphname = "ka-deva";
lastChange = "2021-04-05 06:42:27 +0000";
layers = (
{
background = {
paths = (
{
closed = 1;
nodes = (
"178 463 OFFCURVE",
"52 350 OFFCURVE",
"52 231 CURVE SMOOTH",
"52 113 OFFCURVE",
"138 49 OFFCURVE",
"257 49 CURVE SMOOTH",
"353 49 OFFCURVE",
"423 85 OFFCURVE",
"464 128 CURVE",
"464 128 OFFCURVE",
"425 245 OFFCURVE",
"425 245 CURVE",
"406 223 OFFCURVE",
"339 161 OFFCURVE",
"280 161 CURVE SMOOTH",
"233 161 OFFCURVE",
"180 210 OFFCURVE",
"180 260 CURVE SMOOTH",
"180 300 OFFCURVE",
"239 358 OFFCURVE",
"291 358 CURVE SMOOTH",
"333 358 OFFCURVE",
"390 338 OFFCURVE",
"435 322 CURVE",
"447 449 LINE",
"440 451 OFFCURVE",
"381 463 OFFCURVE",
"313 463 CURVE SMOOTH"
);
},
{
closed = 1;
nodes = (
"663 616 LINE",
"663 714 OFFCURVE",
"434 930 OFFCURVE",
"347 930 CURVE SMOOTH",
"291 930 OFFCURVE",
"223 820 OFFCURVE",
"223 774 CURVE SMOOTH",
"223 760 OFFCURVE",
"228 746 OFFCURVE",
"237 746 CURVE SMOOTH",
"248 746 OFFCURVE",
"259 775 OFFCURVE",
"274 775 CURVE SMOOTH",
"326 775 OFFCURVE",
"531 701 OFFCURVE",
"531 643 CURVE SMOOTH",
"531 635 OFFCURVE",
"529 624 OFFCURVE",
"527 616 CURVE"
);
},
{
closed = 1;
nodes = (
"564 -149 OFFCURVE",
"550 -130 OFFCURVE",
"541 -130 CURVE SMOOTH",
"528 -130 OFFCURVE",
"525 -172 OFFCURVE",
"505 -172 CURVE SMOOTH",
"487 -172 OFFCURVE",
"373 -149 OFFCURVE",
"373 -107 CURVE SMOOTH",
"373 -75 OFFCURVE",
"434 -20 OFFCURVE",
"458 2 CURVE",
"457 17 OFFCURVE",
"399 36 OFFCURVE",
"385 40 CURVE",
"309 7 OFFCURVE",
"240 -58 OFFCURVE",
"240 -125 CURVE SMOOTH",
"240 -238 OFFCURVE",
"429 -316 OFFCURVE",
"479 -316 CURVE SMOOTH",
"528 -316 OFFCURVE",
"564 -228 OFFCURVE",
"564 -179 CURVE SMOOTH"
);
}
);
};
guideLines = (
{
position = "{833, 473}";
}
);
layerId = "555B79C6-6D98-46E7-9307-77C37975E414";
paths = (
{
closed = 1;
nodes = (
"0 629 LINE",
"-15 629 OFFCURVE",
"-25 627 OFFCURVE",
"-30 610 CURVE SMOOTH",
"-55 532 LINE SMOOTH",
"-60 517 OFFCURVE",
"-53 510 OFFCURVE",
"-34 510 CURVE SMOOTH",
"930 510 LINE",
"962 510 OFFCURVE",
"972 508 OFFCURVE",
"979 529 CURVE SMOOTH",
"1004 607 LINE SMOOTH",
"1009 622 OFFCURVE",
"1002 629 OFFCURVE",
"983 629 CURVE SMOOTH"
);
},
{
closed = 1;
nodes = (
"168 463 OFFCURVE",
"46 352 OFFCURVE",
"46 235 CURVE SMOOTH",
"46 126 OFFCURVE",
"135 60 OFFCURVE",
"242 60 CURVE SMOOTH",
"340 60 OFFCURVE",
"413 113 OFFCURVE",
"454 156 CURVE",
"454 156 OFFCURVE",
"415 273 OFFCURVE",
"415 273 CURVE",
"396 251 OFFCURVE",
"329 172 OFFCURVE",
"273 172 CURVE SMOOTH",
"222 172 OFFCURVE",
"174 223 OFFCURVE",
"174 264 CURVE SMOOTH",
"174 292 OFFCURVE",
"221 358 OFFCURVE",
"284 358 CURVE SMOOTH",
"320 358 OFFCURVE",
"385 336 OFFCURVE",
"425 322 CURVE",
"437 449 LINE",
"430 451 OFFCURVE",
"371 463 OFFCURVE",
"303 463 CURVE SMOOTH"
);
},
{
closed = 1;
nodes = (
"435 541 LINE",
"412 295 OFFCURVE",
"395 117 OFFCURVE",
"388 63 CURVE SMOOTH",
"383 27 OFFCURVE",
"371 -21 OFFCURVE",
"407 -21 CURVE SMOOTH",
"470 -21 OFFCURVE",
"534 94 OFFCURVE",
"539 174 CURVE SMOOTH",
"551 361 OFFCURVE",
"572 538 OFFCURVE",
"572 538 CURVE"
);
},
{
closed = 1;
nodes = (
"782 45 OFFCURVE",
"881 157 OFFCURVE",
"881 248 CURVE SMOOTH",
"881 357 OFFCURVE",
"762 455 OFFCURVE",
"679 455 CURVE SMOOTH",
"592 455 OFFCURVE",
"482 348 OFFCURVE",
"461 329 CURVE",
"508 185 LINE",
"535 212 OFFCURVE",
"627 340 OFFCURVE",
"683 340 CURVE SMOOTH",
"723 340 OFFCURVE",
"754 282 OFFCURVE",
"754 257 CURVE SMOOTH",
"754 225 OFFCURVE",
"684 175 OFFCURVE",
"668 175 CURVE SMOOTH",
"655 175 OFFCURVE",
"631 204 OFFCURVE",
"619 204 CURVE SMOOTH",
"611 204 OFFCURVE",
"610 189 OFFCURVE",
"610 181 CURVE SMOOTH",
"610 139 OFFCURVE",
"689 45 OFFCURVE",
"734 45 CURVE SMOOTH"
);
}
);
width = 930;
},
{
background = {
paths = (
{
closed = 1;
nodes = (
"0 629 LINE",
"-15 629 OFFCURVE",
"-25 627 OFFCURVE",
"-30 610 CURVE SMOOTH",
"-55 532 LINE SMOOTH",
"-60 517 OFFCURVE",
"-53 510 OFFCURVE",
"-34 510 CURVE SMOOTH",
"930 510 LINE",
"962 510 OFFCURVE",
"972 508 OFFCURVE",
"979 529 CURVE SMOOTH",
"1004 607 LINE SMOOTH",
"1009 622 OFFCURVE",
"1002 629 OFFCURVE",
"983 629 CURVE SMOOTH"
);
},
{
closed = 1;
nodes = (
"168 463 OFFCURVE",
"46 352 OFFCURVE",
"46 235 CURVE SMOOTH",
"46 126 OFFCURVE",
"135 60 OFFCURVE",
"242 60 CURVE SMOOTH",
"340 60 OFFCURVE",
"413 113 OFFCURVE",
"454 156 CURVE",
"454 156 OFFCURVE",
"415 273 OFFCURVE",
"415 273 CURVE",
"396 251 OFFCURVE",
"329 172 OFFCURVE",
"273 172 CURVE SMOOTH",
"222 172 OFFCURVE",
"174 223 OFFCURVE",
"174 264 CURVE SMOOTH",
"174 292 OFFCURVE",
"221 358 OFFCURVE",
"284 358 CURVE SMOOTH",
"320 358 OFFCURVE",
"385 336 OFFCURVE",
"425 322 CURVE",
"437 449 LINE",
"430 451 OFFCURVE",
"371 463 OFFCURVE",
"303 463 CURVE SMOOTH"
);
},
{
closed = 1;
nodes = (
"435 541 LINE",
"412 295 OFFCURVE",
"395 117 OFFCURVE",
"388 63 CURVE SMOOTH",
"383 27 OFFCURVE",
"371 -21 OFFCURVE",
"407 -21 CURVE SMOOTH",
"470 -21 OFFCURVE",
"534 94 OFFCURVE",
"539 174 CURVE SMOOTH",
"551 361 OFFCURVE",
"572 538 OFFCURVE",
"572 538 CURVE"
);
},
{
closed = 1;
nodes = (
"782 45 OFFCURVE",
"881 157 OFFCURVE",
"881 248 CURVE SMOOTH",
"881 357 OFFCURVE",
"762 455 OFFCURVE",
"679 455 CURVE SMOOTH",
"592 455 OFFCURVE",
"482 348 OFFCURVE",
"461 329 CURVE",
"508 185 LINE",
"535 212 OFFCURVE",
"627 340 OFFCURVE",
"683 340 CURVE SMOOTH",
"723 340 OFFCURVE",
"754 282 OFFCURVE",
"754 257 CURVE SMOOTH",
"754 225 OFFCURVE",
"684 175 OFFCURVE",
"668 175 CURVE SMOOTH",
"655 175 OFFCURVE",
"631 204 OFFCURVE",
"619 204 CURVE SMOOTH",
"611 204 OFFCURVE",
"610 189 OFFCURVE",
"610 181 CURVE SMOOTH",
"610 139 OFFCURVE",
"689 45 OFFCURVE",
"734 45 CURVE SMOOTH"
);
}
);
};
layerId = "B0B60A8F-2DEB-4A58-A43B-60A0DADABD8F";
paths = (
{
closed = 1;
nodes = (
"0 606 LINE",
"-29 606 OFFCURVE",
"-42 609 OFFCURVE",
"-49 587 CURVE SMOOTH",
"-65 534 LINE SMOOTH",
"-70 519 OFFCURVE",
"-63 512 OFFCURVE",
"-44 512 CURVE SMOOTH",
"910 512 LINE",
"939 512 OFFCURVE",
"952 509 OFFCURVE",
"959 531 CURVE SMOOTH",
"976 584 LINE SMOOTH",
"981 599 OFFCURVE",
"974 606 OFFCURVE",
"955 606 CURVE SMOOTH"
);
},
{
closed = 1;
nodes = (
"168 453 OFFCURVE",
"56 352 OFFCURVE",
"56 238 CURVE SMOOTH",
"56 126 OFFCURVE",
"146 70 OFFCURVE",
"242 70 CURVE SMOOTH",
"340 70 OFFCURVE",
"413 113 OFFCURVE",
"454 156 CURVE",
"454 156 OFFCURVE",
"415 263 OFFCURVE",
"415 263 CURVE",
"395 235 OFFCURVE",
"329 162 OFFCURVE",
"273 162 CURVE SMOOTH",
"222 162 OFFCURVE",
"164 208 OFFCURVE",
"164 264 CURVE SMOOTH",
"164 302 OFFCURVE",
"221 368 OFFCURVE",
"284 368 CURVE SMOOTH",
"320 368 OFFCURVE",
"385 346 OFFCURVE",
"425 332 CURVE",
"437 439 LINE",
"430 441 OFFCURVE",
"371 453 OFFCURVE",
"303 453 CURVE SMOOTH"
);
},
{
closed = 1;
nodes = (
"774 55 OFFCURVE",
"871 157 OFFCURVE",
"871 248 CURVE SMOOTH",
"871 346 OFFCURVE",
"762 445 OFFCURVE",
"677 445 CURVE SMOOTH",
"592 445 OFFCURVE",
"486 338 OFFCURVE",
"465 319 CURVE",
"504 196 LINE",
"530 227 OFFCURVE",
"627 351 OFFCURVE",
"681 351 CURVE SMOOTH",
"730 351 OFFCURVE",
"764 289 OFFCURVE",
"764 257 CURVE SMOOTH",
"764 218 OFFCURVE",
"697 169 OFFCURVE",
"677 169 CURVE SMOOTH",
"664 169 OFFCURVE",
"641 196 OFFCURVE",
"629 196 CURVE SMOOTH",
"621 196 OFFCURVE",
"620 181 OFFCURVE",
"620 173 CURVE SMOOTH",
"620 131 OFFCURVE",
"696 55 OFFCURVE",
"734 55 CURVE SMOOTH"
);
},
{
closed = 1;
nodes = (
"435 541 LINE",
"435 541 OFFCURVE",
"401 162 OFFCURVE",
"387 56 CURVE SMOOTH",
"381 14 OFFCURVE",
"376 -21 OFFCURVE",
"407 -21 CURVE SMOOTH",
"448 -21 OFFCURVE",
"510 107 OFFCURVE",
"514 174 CURVE SMOOTH",
"525 361 OFFCURVE",
"548 538 OFFCURVE",
"548 538 CURVE"
);
}
);
width = 911;
}
);
unicode = 0915;
},
{
glyphname = "kha-deva";
lastChange = "2020-11-22 01:03:24 +0000";
layers = (
{
background = {
paths = (
{
closed = 1;
nodes = (
"186 511 LINE",
"224 513 OFFCURVE",
"262 462 OFFCURVE",
"262 421 CURVE SMOOTH",
"262 384 OFFCURVE",
"204 328 OFFCURVE",
"178 328 CURVE SMOOTH",
"162 328 OFFCURVE",
"143 357 OFFCURVE",
"127 357 CURVE SMOOTH",
"104 357 OFFCURVE",
"39 292 OFFCURVE",
"39 264 CURVE SMOOTH",
"39 249 OFFCURVE",
"60 251 OFFCURVE",
"67 227 CURVE SMOOTH",
"102 113 OFFCURVE",
"188 48 OFFCURVE",
"307 48 CURVE SMOOTH",
"408 48 OFFCURVE",
"487 99 OFFCURVE",
"510 127 CURVE",
"526 322 LINE",
"485 247 OFFCURVE",
"401 161 OFFCURVE",
"316 161 CURVE SMOOTH",
"253 161 OFFCURVE",
"207 217 OFFCURVE",
"207 229 CURVE",
"277 254 OFFCURVE",
"394 352 OFFCURVE",
"394 429 CURVE SMOOTH",
"394 483 OFFCURVE",
"373 520 OFFCURVE",
"350 549 CURVE"
);
}
);
};
layerId = "555B79C6-6D98-46E7-9307-77C37975E414";
paths = (
{
closed = 1;
nodes = (
"0 629 LINE",
"-15 629 OFFCURVE",
"-25 627 OFFCURVE",
"-30 610 CURVE SMOOTH",
"-55 532 LINE SMOOTH",
"-60 517 OFFCURVE",
"-53 510 OFFCURVE",
"-34 510 CURVE SMOOTH",
"846 510 LINE",
"878 510 OFFCURVE",
"888 508 OFFCURVE",
"895 529 CURVE SMOOTH",
"920 607 LINE SMOOTH",
"925 622 OFFCURVE",
"918 629 OFFCURVE",
"899 629 CURVE SMOOTH"
);
},
{
closed = 1;
nodes = (
"656 541 LINE",
"633 295 OFFCURVE",
"616 117 OFFCURVE",
"609 63 CURVE SMOOTH",
"604 27 OFFCURVE",
"595 -23 OFFCURVE",
"634 -23 CURVE SMOOTH",
"691 -23 OFFCURVE",
"755 95 OFFCURVE",
"760 174 CURVE SMOOTH",
"772 361 OFFCURVE",
"780 396 OFFCURVE",
"793 538 CURVE"
);
},
{
closed = 1;
nodes = (
"168 511 LINE",
"206 513 OFFCURVE",
"244 462 OFFCURVE",
"244 421 CURVE SMOOTH",
"244 384 OFFCURVE",
"194 335 OFFCURVE",
"168 335 CURVE SMOOTH",
"152 335 OFFCURVE",
"146 355 OFFCURVE",
"130 355 CURVE SMOOTH",
"107 355 OFFCURVE",
"41 283 OFFCURVE",
"41 255 CURVE SMOOTH",
"41 240 OFFCURVE",
"57 242 OFFCURVE",
"69 218 CURVE SMOOTH",
"136 82 OFFCURVE",
"247 48 OFFCURVE",
"367 48 CURVE SMOOTH",
"476 48 OFFCURVE",
"600 96 OFFCURVE",
"623 117 CURVE",
"639 312 LINE",
"598 237 OFFCURVE",
"470 165 OFFCURVE",
"378 165 CURVE SMOOTH",
"305 165 OFFCURVE",
"244 206 OFFCURVE",
"217 243 CURVE",
"287 268 OFFCURVE",
"376 352 OFFCURVE",
"376 429 CURVE SMOOTH",
"376 483 OFFCURVE",
"355 520 OFFCURVE",
"332 549 CURVE"
);
},
{
closed = 1;
nodes = (
"471 468 OFFCURVE",
"382 389 OFFCURVE",
"382 297 CURVE SMOOTH",
"382 230 OFFCURVE",
"453 161 OFFCURVE",
"528 161 CURVE SMOOTH",
"597 161 OFFCURVE",
"649 199 OFFCURVE",
"678 229 CURVE",
"639 312 LINE",
"620 282 OFFCURVE",
"599 252 OFFCURVE",
"559 252 CURVE SMOOTH",
"532 252 OFFCURVE",
"489 287 OFFCURVE",
"489 314 CURVE SMOOTH",
"489 342 OFFCURVE",
"524 377 OFFCURVE",
"554 377 CURVE SMOOTH",
"583 377 OFFCURVE",
"624 359 OFFCURVE",
"651 346 CURVE",
"661 457 LINE",
"656 458 OFFCURVE",
"614 468 OFFCURVE",
"569 468 CURVE SMOOTH"
);
}
);
width = 846;
},
{
background = {
paths = (
{
closed = 1;
nodes = (
"0 629 LINE",
"-15 629 OFFCURVE",
"-25 627 OFFCURVE",
"-30 610 CURVE SMOOTH",
"-55 532 LINE SMOOTH",
"-60 517 OFFCURVE",
"-53 510 OFFCURVE",
"-34 510 CURVE SMOOTH",
"846 510 LINE",
"878 510 OFFCURVE",
"888 508 OFFCURVE",
"895 529 CURVE SMOOTH",
"920 607 LINE SMOOTH",
"925 622 OFFCURVE",
"918 629 OFFCURVE",
"899 629 CURVE SMOOTH"
);
},
{
closed = 1;
nodes = (
"656 541 LINE",
"633 295 OFFCURVE",
"616 117 OFFCURVE",
"609 63 CURVE SMOOTH",
"604 27 OFFCURVE",
"595 -23 OFFCURVE",
"634 -23 CURVE SMOOTH",
"691 -23 OFFCURVE",
"755 95 OFFCURVE",
"760 174 CURVE SMOOTH",
"772 361 OFFCURVE",
"780 396 OFFCURVE",
"793 538 CURVE"
);
},
{
closed = 1;
nodes = (
"168 511 LINE",
"206 513 OFFCURVE",
"244 462 OFFCURVE",
"244 421 CURVE SMOOTH",
"244 384 OFFCURVE",
"194 335 OFFCURVE",
"168 335 CURVE SMOOTH",
"152 335 OFFCURVE",
"146 355 OFFCURVE",
"130 355 CURVE SMOOTH",
"107 355 OFFCURVE",
"41 283 OFFCURVE",
"41 255 CURVE SMOOTH",
"41 240 OFFCURVE",
"57 242 OFFCURVE",
"69 218 CURVE SMOOTH",
"136 82 OFFCURVE",
"247 48 OFFCURVE",
"367 48 CURVE SMOOTH",
"476 48 OFFCURVE",
"600 96 OFFCURVE",
"623 117 CURVE",
"639 312 LINE",
"598 237 OFFCURVE",
"470 165 OFFCURVE",
"378 165 CURVE SMOOTH",
"305 165 OFFCURVE",
"244 206 OFFCURVE",
"217 243 CURVE",
"287 268 OFFCURVE",
"376 352 OFFCURVE",
"376 429 CURVE SMOOTH",
"376 483 OFFCURVE",
"355 520 OFFCURVE",
"332 549 CURVE"
);
},
{
closed = 1;
nodes = (
"471 468 OFFCURVE",
"382 389 OFFCURVE",
"382 297 CURVE SMOOTH",
"382 230 OFFCURVE",
"453 161 OFFCURVE",
"528 161 CURVE SMOOTH",
"597 161 OFFCURVE",
"649 199 OFFCURVE",
"678 229 CURVE",
"639 312 LINE",
"620 282 OFFCURVE",
"599 252 OFFCURVE",
"559 252 CURVE SMOOTH",
"532 252 OFFCURVE",
"489 287 OFFCURVE",
"489 314 CURVE SMOOTH",
"489 342 OFFCURVE",
"524 377 OFFCURVE",
"554 377 CURVE SMOOTH",
"583 377 OFFCURVE",
"624 359 OFFCURVE",
"651 346 CURVE",
"661 457 LINE",
"656 458 OFFCURVE",
"614 468 OFFCURVE",
"569 468 CURVE SMOOTH"
);
}
);
};
layerId = "B0B60A8F-2DEB-4A58-A43B-60A0DADABD8F";
paths = (
{
closed = 1;
nodes = (
"0 606 LINE",
"-29 606 OFFCURVE",
"-42 609 OFFCURVE",
"-49 587 CURVE SMOOTH",
"-65 534 LINE SMOOTH",
"-70 519 OFFCURVE",
"-63 512 OFFCURVE",
"-44 512 CURVE SMOOTH",
"810 512 LINE",
"839 512 OFFCURVE",
"852 509 OFFCURVE",
"859 531 CURVE SMOOTH",
"876 584 LINE SMOOTH",
"881 599 OFFCURVE",
"874 606 OFFCURVE",
"855 606 CURVE SMOOTH"
);
},
{
closed = 1;
nodes = (
"184 512 LINE",
"219 514 OFFCURVE",
"256 462 OFFCURVE",
"256 421 CURVE SMOOTH",
"256 374 OFFCURVE",
"195 323 OFFCURVE",
"170 323 CURVE SMOOTH",
"158 323 OFFCURVE",
"142 343 OFFCURVE",
"130 343 CURVE SMOOTH",
"113 343 OFFCURVE",
"53 277 OFFCURVE",
"53 255 CURVE SMOOTH",
"53 240 OFFCURVE",
"67 242 OFFCURVE",
"79 221 CURVE SMOOTH",
"155 95 OFFCURVE",
"264 58 OFFCURVE",
"367 58 CURVE SMOOTH",
"471 58 OFFCURVE",
"593 106 OFFCURVE",
"623 127 CURVE",
"639 302 LINE",
"598 227 OFFCURVE",
"476 155 OFFCURVE",
"379 155 CURVE SMOOTH",
"309 155 OFFCURVE",
"236 189 OFFCURVE",
"201 243 CURVE",
"275 274 OFFCURVE",
"366 356 OFFCURVE",
"366 429 CURVE SMOOTH",
"366 483 OFFCURVE",
"345 518 OFFCURVE",
"322 547 CURVE"
);
},
{
closed = 1;
nodes = (
"478 458 OFFCURVE",
"392 380 OFFCURVE",
"392 297 CURVE SMOOTH",
"392 242 OFFCURVE",
"458 171 OFFCURVE",
"528 171 CURVE SMOOTH",
"597 171 OFFCURVE",
"639 199 OFFCURVE",
"668 229 CURVE",
"639 302 LINE",
"620 272 OFFCURVE",
"599 242 OFFCURVE",
"563 242 CURVE SMOOTH",
"527 242 OFFCURVE",
"479 276 OFFCURVE",
"479 314 CURVE SMOOTH",
"479 352 OFFCURVE",
"524 387 OFFCURVE",
"554 387 CURVE SMOOTH",
"583 387 OFFCURVE",
"624 369 OFFCURVE",
"651 356 CURVE",
"660 444 LINE",
"655 445 OFFCURVE",
"618 458 OFFCURVE",
"569 458 CURVE SMOOTH"
);
},
{
closed = 1;
nodes = (
"656 541 LINE",
"656 541 OFFCURVE",
"622 162 OFFCURVE",
"608 56 CURVE SMOOTH",
"602 14 OFFCURVE",
"597 -21 OFFCURVE",
"628 -21 CURVE SMOOTH",
"669 -21 OFFCURVE",
"731 107 OFFCURVE",
"735 174 CURVE SMOOTH",
"746 361 OFFCURVE",
"769 538 OFFCURVE",
"769 538 CURVE"
);
}
);
width = 810;
}
);
unicode = 0916;
},
{
glyphname = "ga-deva";
lastChange = "2020-11-22 13:43:52 +0000";
layers = (
{
layerId = "555B79C6-6D98-46E7-9307-77C37975E414";
paths = (
{
closed = 1;
nodes = (
"0 629 LINE",
"-15 629 OFFCURVE",
"-25 627 OFFCURVE",
"-30 610 CURVE SMOOTH",
"-55 532 LINE SMOOTH",
"-60 517 OFFCURVE",
"-53 510 OFFCURVE",
"-34 510 CURVE SMOOTH",
"647 510 LINE",
"679 510 OFFCURVE",
"689 508 OFFCURVE",
"696 529 CURVE SMOOTH",
"721 607 LINE SMOOTH",
"726 622 OFFCURVE",
"719 629 OFFCURVE",
"700 629 CURVE SMOOTH"
);
},
{
closed = 1;
nodes = (
"455 541 LINE",
"432 295 OFFCURVE",
"415 117 OFFCURVE",
"408 63 CURVE SMOOTH",
"403 27 OFFCURVE",
"394 -23 OFFCURVE",
"433 -23 CURVE SMOOTH",
"490 -23 OFFCURVE",
"554 95 OFFCURVE",
"559 174 CURVE SMOOTH",
"571 361 OFFCURVE",
"579 396 OFFCURVE",
"592 538 CURVE"
);
},
{
closed = 1;
nodes = (
"203 499 OFFCURVE",
"190 389 OFFCURVE",
"184 345 CURVE SMOOTH",
"176 286 OFFCURVE",
"106 267 OFFCURVE",
"89 267 CURVE SMOOTH",
"77 267 OFFCURVE",
"58 289 OFFCURVE",
"49 289 CURVE SMOOTH",
"41 289 OFFCURVE",
"40 275 OFFCURVE",
"40 266 CURVE SMOOTH",
"40 235 OFFCURVE",
"101 136 OFFCURVE",
"163 136 CURVE SMOOTH",
"204 136 OFFCURVE",
"296 207 OFFCURVE",
"303 301 CURVE SMOOTH",
"307 362 OFFCURVE",
"319 497 OFFCURVE",
"320 531 CURVE",
"320 531 OFFCURVE",
"220 531 OFFCURVE",
"205 531 CURVE"
);
}
);
width = 647;
},
{
background = {
paths = (
{
closed = 1;
nodes = (
"0 629 LINE",
"-15 629 OFFCURVE",
"-25 627 OFFCURVE",
"-30 610 CURVE SMOOTH",
"-55 532 LINE SMOOTH",
"-60 517 OFFCURVE",
"-53 510 OFFCURVE",
"-34 510 CURVE SMOOTH",
"647 510 LINE",
"679 510 OFFCURVE",
"689 508 OFFCURVE",
"696 529 CURVE SMOOTH",
"721 607 LINE SMOOTH",
"726 622 OFFCURVE",
"719 629 OFFCURVE",
"700 629 CURVE SMOOTH"
);
},
{
closed = 1;
nodes = (
"455 541 LINE",
"432 295 OFFCURVE",
"415 117 OFFCURVE",
"408 63 CURVE SMOOTH",
"403 27 OFFCURVE",
"394 -23 OFFCURVE",
"433 -23 CURVE SMOOTH",
"490 -23 OFFCURVE",
"554 95 OFFCURVE",
"559 174 CURVE SMOOTH",
"571 361 OFFCURVE",
"579 396 OFFCURVE",
"592 538 CURVE"
);
},
{
closed = 1;
nodes = (
"203 499 OFFCURVE",
"190 389 OFFCURVE",
"184 345 CURVE SMOOTH",
"176 286 OFFCURVE",
"106 267 OFFCURVE",
"89 267 CURVE SMOOTH",
"77 267 OFFCURVE",
"58 289 OFFCURVE",
"49 289 CURVE SMOOTH",
"41 289 OFFCURVE",
"40 275 OFFCURVE",
"40 266 CURVE SMOOTH",
"40 235 OFFCURVE",
"101 136 OFFCURVE",
"163 136 CURVE SMOOTH",
"204 136 OFFCURVE",
"296 207 OFFCURVE",
"303 301 CURVE SMOOTH",
"307 362 OFFCURVE",
"319 497 OFFCURVE",
"320 531 CURVE",
"320 531 OFFCURVE",
"220 531 OFFCURVE",
"205 531 CURVE"
);
}
);
};
layerId = "B0B60A8F-2DEB-4A58-A43B-60A0DADABD8F";
paths = (
{
closed = 1;
nodes = (
"0 606 LINE",
"-19 606 OFFCURVE",
"-32 609 OFFCURVE",
"-39 587 CURVE SMOOTH",
"-55 534 LINE SMOOTH",
"-60 519 OFFCURVE",
"-53 512 OFFCURVE",
"-34 512 CURVE SMOOTH",
"600 512 LINE",
"629 512 OFFCURVE",
"642 509 OFFCURVE",
"649 531 CURVE SMOOTH",
"666 584 LINE SMOOTH",
"671 599 OFFCURVE",
"664 606 OFFCURVE",
"645 606 CURVE SMOOTH"
);
},
{
closed = 1;
nodes = (
"455 541 LINE",
"455 541 OFFCURVE",
"421 162 OFFCURVE",
"407 56 CURVE SMOOTH",
"401 14 OFFCURVE",
"396 -23 OFFCURVE",
"427 -23 CURVE SMOOTH",
"468 -23 OFFCURVE",
"530 107 OFFCURVE",
"534 174 CURVE SMOOTH",
"545 361 OFFCURVE",
"568 538 OFFCURVE",
"568 538 CURVE"
);
},
{
closed = 1;
nodes = (
"213 499 OFFCURVE",
"200 389 OFFCURVE",
"194 345 CURVE SMOOTH",
"186 286 OFFCURVE",
"126 259 OFFCURVE",
"97 259 CURVE SMOOTH",
"85 259 OFFCURVE",
"68 280 OFFCURVE",
"59 280 CURVE SMOOTH",
"51 280 OFFCURVE",
"52 270 OFFCURVE",
"52 261 CURVE SMOOTH",
"52 230 OFFCURVE",
"117 146 OFFCURVE",
"163 146 CURVE SMOOTH",
"204 146 OFFCURVE",
"286 224 OFFCURVE",
"293 301 CURVE SMOOTH",
"299 362 OFFCURVE",
"309 497 OFFCURVE",
"310 531 CURVE",
"310 531 OFFCURVE",
"230 531 OFFCURVE",
"215 531 CURVE"
);
}
);
width = 600;
}
);
unicode = 0917;
},
{
glyphname = "gha-deva";
lastChange = "2020-11-22 14:56:33 +0000";
layers = (
{
background = {
paths = (
{
closed = 1;
nodes = (
"245 450 OFFCURVE",
"123 339 OFFCURVE",
"123 222 CURVE SMOOTH",
"123 113 OFFCURVE",
"212 47 OFFCURVE",
"319 47 CURVE SMOOTH",
"417 47 OFFCURVE",
"490 100 OFFCURVE",
"531 143 CURVE",
"531 143 OFFCURVE",
"492 260 OFFCURVE",
"492 260 CURVE",
"473 238 OFFCURVE",
"406 159 OFFCURVE",
"350 159 CURVE SMOOTH",
"299 159 OFFCURVE",
"251 210 OFFCURVE",
"251 251 CURVE SMOOTH",
"251 279 OFFCURVE",
"298 345 OFFCURVE",
"361 345 CURVE SMOOTH",
"397 345 OFFCURVE",
"462 323 OFFCURVE",
"502 309 CURVE",
"514 436 LINE",
"507 438 OFFCURVE",
"448 450 OFFCURVE",
"380 450 CURVE SMOOTH"
);
}
);
};
layerId = "555B79C6-6D98-46E7-9307-77C37975E414";
paths = (
{
closed = 1;
nodes = (
"471 541 LINE",
"448 295 OFFCURVE",
"431 118 OFFCURVE",
"424 64 CURVE SMOOTH",
"419 28 OFFCURVE",
"410 -23 OFFCURVE",
"449 -23 CURVE SMOOTH",
"506 -23 OFFCURVE",
"570 95 OFFCURVE",
"575 174 CURVE SMOOTH",
"587 361 OFFCURVE",
"595 396 OFFCURVE",
"608 538 CURVE"
);
},
{
closed = 1;
nodes = (
"421 220 OFFCURVE",
"328 159 OFFCURVE",
"281 159 CURVE SMOOTH",
"233 159 OFFCURVE",
"192 209 OFFCURVE",
"192 243 CURVE SMOOTH",
"192 276 OFFCURVE",
"219 289 OFFCURVE",
"237 289 CURVE SMOOTH",
"256 289 OFFCURVE",
"289 280 OFFCURVE",
"309 280 CURVE SMOOTH",
"332 280 OFFCURVE",
"340 327 OFFCURVE",
"340 365 CURVE SMOOTH",
"340 388 OFFCURVE",
"333 392 OFFCURVE",
"322 393 CURVE SMOOTH",
"301 394 OFFCURVE",
"266 390 OFFCURVE",
"249 390 CURVE SMOOTH",
"213 390 OFFCURVE",
"189 424 OFFCURVE",
"189 451 CURVE SMOOTH",
"189 471 OFFCURVE",
"210 511 OFFCURVE",
"248 511 CURVE",
"74 533 LINE",
"62 519 OFFCURVE",
"46 488 OFFCURVE",
"46 453 CURVE SMOOTH",
"46 394 OFFCURVE",
"95 351 OFFCURVE",
"122 332 CURVE",
"98 310 OFFCURVE",
"62 261 OFFCURVE",
"62 205 CURVE SMOOTH",
"62 94 OFFCURVE",
"162 47 OFFCURVE",
"256 47 CURVE SMOOTH",
"331 47 OFFCURVE",
"425 80 OFFCURVE",
"491 133 CURVE",
"449 253 LINE"
);
},
{
closed = 1;
nodes = (
"0 629 LINE",
"-15 629 OFFCURVE",
"-25 627 OFFCURVE",
"-30 610 CURVE SMOOTH",
"-55 532 LINE SMOOTH",
"-60 517 OFFCURVE",
"-53 510 OFFCURVE",
"-34 510 CURVE SMOOTH",
"640 510 LINE",
"672 510 OFFCURVE",
"682 508 OFFCURVE",
"689 529 CURVE SMOOTH",
"714 607 LINE SMOOTH",
"719 622 OFFCURVE",
"712 629 OFFCURVE",
"693 629 CURVE SMOOTH"
);
}
);
width = 663;
},
{
background = {
paths = (
{
closed = 1;
nodes = (
"471 541 LINE",
"448 295 OFFCURVE",
"431 118 OFFCURVE",
"424 64 CURVE SMOOTH",
"419 28 OFFCURVE",
"410 -23 OFFCURVE",
"449 -23 CURVE SMOOTH",
"506 -23 OFFCURVE",
"570 95 OFFCURVE",
"575 174 CURVE SMOOTH",
"587 361 OFFCURVE",
"595 396 OFFCURVE",
"608 538 CURVE"
);
},
{
closed = 1;
nodes = (
"421 220 OFFCURVE",
"328 159 OFFCURVE",
"281 159 CURVE SMOOTH",
"233 159 OFFCURVE",
"192 209 OFFCURVE",
"192 243 CURVE SMOOTH",
"192 276 OFFCURVE",
"219 289 OFFCURVE",
"237 289 CURVE SMOOTH",
"256 289 OFFCURVE",
"289 280 OFFCURVE",
"309 280 CURVE SMOOTH",
"332 280 OFFCURVE",
"340 327 OFFCURVE",
"340 365 CURVE SMOOTH",
"340 388 OFFCURVE",
"333 392 OFFCURVE",
"322 393 CURVE SMOOTH",
"301 394 OFFCURVE",
"266 390 OFFCURVE",
"249 390 CURVE SMOOTH",
"213 390 OFFCURVE",
"189 424 OFFCURVE",
"189 451 CURVE SMOOTH",
"189 471 OFFCURVE",
"210 511 OFFCURVE",
"248 511 CURVE",
"74 533 LINE",
"62 519 OFFCURVE",
"46 488 OFFCURVE",
"46 453 CURVE SMOOTH",
"46 394 OFFCURVE",
"95 351 OFFCURVE",
"122 332 CURVE",
"98 310 OFFCURVE",
"62 261 OFFCURVE",
"62 205 CURVE SMOOTH",
"62 94 OFFCURVE",
"162 47 OFFCURVE",
"256 47 CURVE SMOOTH",
"331 47 OFFCURVE",
"425 80 OFFCURVE",
"491 133 CURVE",
"449 253 LINE"
);
},
{
closed = 1;
nodes = (
"0 629 LINE",
"-15 629 OFFCURVE",
"-25 627 OFFCURVE",
"-30 610 CURVE SMOOTH",
"-55 532 LINE SMOOTH",
"-60 517 OFFCURVE",
"-53 510 OFFCURVE",
"-34 510 CURVE SMOOTH",
"640 510 LINE",
"672 510 OFFCURVE",
"682 508 OFFCURVE",
"689 529 CURVE SMOOTH",
"714 607 LINE SMOOTH",
"719 622 OFFCURVE",
"712 629 OFFCURVE",
"693 629 CURVE SMOOTH"
);
}
);
};
layerId = "B0B60A8F-2DEB-4A58-A43B-60A0DADABD8F";
paths = (
{
closed = 1;
nodes = (
"0 606 LINE",
"-19 606 OFFCURVE",
"-31 609 OFFCURVE",
"-38 587 CURVE SMOOTH",
"-54 534 LINE SMOOTH",
"-59 519 OFFCURVE",
"-53 512 OFFCURVE",
"-34 512 CURVE SMOOTH",
"620 512 LINE",
"649 512 OFFCURVE",
"662 509 OFFCURVE",
"669 531 CURVE SMOOTH",
"686 584 LINE SMOOTH",
"691 599 OFFCURVE",
"684 606 OFFCURVE",
"665 606 CURVE SMOOTH"
);
},
{
closed = 1;
nodes = (
"471 541 LINE",
"471 541 OFFCURVE",
"437 162 OFFCURVE",
"423 56 CURVE SMOOTH",
"417 14 OFFCURVE",
"412 -23 OFFCURVE",
"443 -23 CURVE SMOOTH",
"484 -23 OFFCURVE",
"546 107 OFFCURVE",
"550 174 CURVE SMOOTH",
"561 361 OFFCURVE",
"584 538 OFFCURVE",
"584 538 CURVE"
);
},
{
closed = 1;
nodes = (
"425 200 OFFCURVE",
"340 139 OFFCURVE",
"280 139 CURVE SMOOTH",
"226 139 OFFCURVE",
"172 190 OFFCURVE",
"172 234 CURVE SMOOTH",
"172 276 OFFCURVE",
"204 300 OFFCURVE",
"233 300 CURVE SMOOTH",
"257 300 OFFCURVE",
"280 292 OFFCURVE",
"300 292 CURVE SMOOTH",
"320 292 OFFCURVE",
"330 326 OFFCURVE",
"330 361 CURVE SMOOTH",
"330 378 OFFCURVE",
"323 383 OFFCURVE",
"312 383 CURVE SMOOTH",
"294 383 OFFCURVE",
"272 380 OFFCURVE",
"249 380 CURVE SMOOTH",
"208 380 OFFCURVE",
"179 413 OFFCURVE",
"179 451 CURVE SMOOTH",
"179 477 OFFCURVE",
"200 512 OFFCURVE",
"238 512 CURVE",
"84 533 LINE",
"72 519 OFFCURVE",
"56 488 OFFCURVE",
"56 453 CURVE SMOOTH",
"56 394 OFFCURVE",
"108 351 OFFCURVE",
"135 332 CURVE",
"111 310 OFFCURVE",
"65 273 OFFCURVE",
"65 202 CURVE SMOOTH",
"65 116 OFFCURVE",
"142 47 OFFCURVE",
"256 47 CURVE SMOOTH",
"331 47 OFFCURVE",
"425 80 OFFCURVE",
"491 133 CURVE",
"453 233 LINE"
);
}
);
width = 620;
}
);
unicode = 0918;
},
{
glyphname = "nga-deva";
lastChange = "2020-11-26 12:49:06 +0000";
layers = (
{
background = {
paths = (
{
closed = 1;
nodes = (
"792 343 OFFCURVE",
"756 374 OFFCURVE",
"715 374 CURVE SMOOTH",
"674 374 OFFCURVE",
"637 348 OFFCURVE",
"637 301 CURVE SMOOTH",
"637 259 OFFCURVE",
"671 226 OFFCURVE",
"714 226 CURVE SMOOTH",
"755 226 OFFCURVE",
"790 254 OFFCURVE",
"791 301 CURVE SMOOTH"
);
},
{
closed = 1;
nodes = (
"0 630 LINE",
"-32 630 OFFCURVE",
"-42 632 OFFCURVE",
"-49 611 CURVE SMOOTH",
"-74 533 LINE SMOOTH",
"-79 518 OFFCURVE",
"-72 511 OFFCURVE",
"-53 511 CURVE SMOOTH",
"653 511 LINE",
"685 511 OFFCURVE",
"695 509 OFFCURVE",
"702 530 CURVE SMOOTH",
"727 608 LINE SMOOTH",
"732 623 OFFCURVE",
"725 630 OFFCURVE",
"706 630 CURVE SMOOTH"
);
},
{
closed = 1;
nodes = (
"70 630 LINE",
"38 630 OFFCURVE",
"28 632 OFFCURVE",
"21 611 CURVE SMOOTH",
"-4 533 LINE SMOOTH",
"-9 518 OFFCURVE",
"-2 511 OFFCURVE",
"17 511 CURVE SMOOTH",
"613 511 LINE",
"645 511 OFFCURVE",
"655 509 OFFCURVE",
"662 530 CURVE SMOOTH",
"687 608 LINE SMOOTH",
"692 623 OFFCURVE",
"685 630 OFFCURVE",
"666 630 CURVE SMOOTH"
);
},
{
closed = 1;
nodes = (
"415 541 LINE",
"413 520 OFFCURVE",
"406 446 OFFCURVE",
"402 400 CURVE SMOOTH",
"399 369 OFFCURVE",
"397 363 OFFCURVE",
"418 363 CURVE SMOOTH",
"445 363 OFFCURVE",
"398 363 OFFCURVE",
"443 363 CURVE SMOOTH",
"489 363 OFFCURVE",
"538 416 OFFCURVE",
"542 451 CURVE SMOOTH",
"546 483 OFFCURVE",
"549 514 OFFCURVE",
"552 538 CURVE"
);
},
{
closed = 1;
nodes = (
"471 479 LINE",
"380 471 OFFCURVE",
"310 473 OFFCURVE",
"268 473 CURVE SMOOTH",
"191 473 OFFCURVE",
"133 378 OFFCURVE",
"134 319 CURVE SMOOTH",
"135 224 OFFCURVE",
"235 182 OFFCURVE",
"290 182 CURVE SMOOTH",
"327 182 OFFCURVE",
"376 211 OFFCURVE",
"390 211 CURVE SMOOTH",
"404 211 OFFCURVE",
"423 183 OFFCURVE",
"423 167 CURVE SMOOTH",
"423 138 OFFCURVE",
"272 113 OFFCURVE",
"227 113 CURVE SMOOTH",
"198 113 OFFCURVE",
"190 139 OFFCURVE",
"172 139 CURVE SMOOTH",
"151 139 OFFCURVE",
"119 59 OFFCURVE",
"119 34 CURVE SMOOTH",
"119 12 OFFCURVE",
"143 22 OFFCURVE",
"165 -6 CURVE SMOOTH",
"243 -106 OFFCURVE",
"341 -177 OFFCURVE",
"379 -177 CURVE SMOOTH",
"411 -177 OFFCURVE",
"466 -105 OFFCURVE",
"466 -63 CURVE SMOOTH",
"466 -48 OFFCURVE",
"462 -15 OFFCURVE",
"452 -15 CURVE SMOOTH",
"443 -15 OFFCURVE",
"432 -47 OFFCURVE",
"423 -47 CURVE SMOOTH",
"403 -47 OFFCURVE",
"322 -5 OFFCURVE",
"302 13 CURVE",
"394 13 OFFCURVE",
"562 70 OFFCURVE",
"562 163 CURVE SMOOTH",
"562 227 OFFCURVE",
"510 316 OFFCURVE",
"428 316 CURVE SMOOTH",
"373 316 OFFCURVE",
"332 291 OFFCURVE",
"309 291 CURVE SMOOTH",
"294 291 OFFCURVE",
"274 309 OFFCURVE",
"274 322 CURVE SMOOTH",
"274 336 OFFCURVE",
"294 363 OFFCURVE",
"313 363 CURVE SMOOTH",
"341 363 OFFCURVE",
"401 363 OFFCURVE",
"432 363 CURVE SMOOTH",
"449 363 OFFCURVE",
"459 374 OFFCURVE",
"462 400 CURVE SMOOTH"
);
}
);
};
layerId = "555B79C6-6D98-46E7-9307-77C37975E414";
paths = (
{
closed = 1;
nodes = (
"0 629 LINE",
"-32 629 OFFCURVE",
"-42 631 OFFCURVE",
"-49 610 CURVE SMOOTH",
"-74 532 LINE SMOOTH",
"-79 517 OFFCURVE",
"-72 510 OFFCURVE",
"-53 510 CURVE SMOOTH",
"784 510 LINE",
"816 510 OFFCURVE",
"826 508 OFFCURVE",
"833 529 CURVE SMOOTH",
"858 607 LINE SMOOTH",
"863 622 OFFCURVE",
"856 629 OFFCURVE",
"837 629 CURVE SMOOTH"
);
},
{
closed = 1;
nodes = (
"415 541 LINE",
"413 520 OFFCURVE",
"406 451 OFFCURVE",
"402 405 CURVE SMOOTH",
"399 374 OFFCURVE",
"397 368 OFFCURVE",
"418 368 CURVE SMOOTH",
"445 368 OFFCURVE",
"398 368 OFFCURVE",
"443 368 CURVE SMOOTH",
"489 368 OFFCURVE",
"538 421 OFFCURVE",
"542 456 CURVE SMOOTH",
"546 488 OFFCURVE",
"549 514 OFFCURVE",
"552 538 CURVE"
);
},
{
closed = 1;
nodes = (
"123 213 OFFCURVE",
"56 160 OFFCURVE",
"56 91 CURVE SMOOTH",
"56 21 OFFCURVE",
"128 -11 OFFCURVE",
"227 -11 CURVE SMOOTH",
"401 -11 OFFCURVE",
"562 67 OFFCURVE",
"562 160 CURVE SMOOTH",
"562 228 OFFCURVE",
"510 321 OFFCURVE",
"428 321 CURVE SMOOTH",
"373 321 OFFCURVE",
"332 296 OFFCURVE",
"309 296 CURVE SMOOTH",
"294 296 OFFCURVE",
"274 314 OFFCURVE",
"274 327 CURVE SMOOTH",
"274 341 OFFCURVE",
"294 368 OFFCURVE",
"313 368 CURVE SMOOTH",
"341 368 OFFCURVE",
"401 368 OFFCURVE",
"432 368 CURVE SMOOTH",
"449 368 OFFCURVE",
"459 379 OFFCURVE",
"462 405 CURVE SMOOTH",
"471 479 LINE",
"380 471 OFFCURVE",
"311 473 OFFCURVE",
"269 473 CURVE SMOOTH",
"192 473 OFFCURVE",
"133 378 OFFCURVE",
"134 319 CURVE SMOOTH",
"135 229 OFFCURVE",
"235 187 OFFCURVE",
"290 187 CURVE SMOOTH",
"327 187 OFFCURVE",
"376 216 OFFCURVE",
"390 216 CURVE SMOOTH",
"404 216 OFFCURVE",
"428 184 OFFCURVE",
"428 165 CURVE SMOOTH",
"428 134 OFFCURVE",
"327 109 OFFCURVE",
"249 109 CURVE SMOOTH",
"170 109 OFFCURVE",
"154 121 OFFCURVE",
"154 166 CURVE SMOOTH",
"154 197 OFFCURVE",
"154 213 OFFCURVE",
"141 213 CURVE SMOOTH"
);
},
{
closed = 1;
nodes = (
"581 300 OFFCURVE",
"611 266 OFFCURVE",
"658 266 CURVE SMOOTH",
"702 266 OFFCURVE",
"735 297 OFFCURVE",
"735 341 CURVE SMOOTH",
"735 382 OFFCURVE",
"705 416 OFFCURVE",
"658 416 CURVE SMOOTH",
"614 416 OFFCURVE",
"581 385 OFFCURVE",
"581 341 CURVE SMOOTH"
);
}
);
width = 784;
},
{
background = {
paths = (
{
closed = 1;
nodes = (
"0 629 LINE",
"-32 629 OFFCURVE",
"-42 631 OFFCURVE",
"-49 610 CURVE SMOOTH",
"-74 532 LINE SMOOTH",
"-79 517 OFFCURVE",
"-72 510 OFFCURVE",
"-53 510 CURVE SMOOTH",
"784 510 LINE",
"816 510 OFFCURVE",
"826 508 OFFCURVE",
"833 529 CURVE SMOOTH",
"858 607 LINE SMOOTH",
"863 622 OFFCURVE",
"856 629 OFFCURVE",
"837 629 CURVE SMOOTH"
);
},
{
closed = 1;
nodes = (
"415 541 LINE",
"413 520 OFFCURVE",
"406 451 OFFCURVE",
"402 405 CURVE SMOOTH",
"399 374 OFFCURVE",
"397 368 OFFCURVE",
"418 368 CURVE SMOOTH",
"445 368 OFFCURVE",
"398 368 OFFCURVE",
"443 368 CURVE SMOOTH",
"489 368 OFFCURVE",
"538 421 OFFCURVE",
"542 456 CURVE SMOOTH",
"546 488 OFFCURVE",
"549 514 OFFCURVE",
"552 538 CURVE"
);
},
{
closed = 1;
nodes = (
"123 213 OFFCURVE",
"56 160 OFFCURVE",
"56 91 CURVE SMOOTH",
"56 21 OFFCURVE",
"128 -11 OFFCURVE",
"227 -11 CURVE SMOOTH",
"401 -11 OFFCURVE",
"562 67 OFFCURVE",
"562 160 CURVE SMOOTH",
"562 228 OFFCURVE",
"510 321 OFFCURVE",
"428 321 CURVE SMOOTH",
"373 321 OFFCURVE",
"332 296 OFFCURVE",
"309 296 CURVE SMOOTH",
"294 296 OFFCURVE",
"274 314 OFFCURVE",
"274 327 CURVE SMOOTH",
"274 341 OFFCURVE",
"294 368 OFFCURVE",
"313 368 CURVE SMOOTH",
"341 368 OFFCURVE",
"401 368 OFFCURVE",
"432 368 CURVE SMOOTH",
"449 368 OFFCURVE",
"459 379 OFFCURVE",
"462 405 CURVE SMOOTH",
"471 479 LINE",
"380 471 OFFCURVE",
"311 473 OFFCURVE",
"269 473 CURVE SMOOTH",
"192 473 OFFCURVE",
"133 378 OFFCURVE",
"134 319 CURVE SMOOTH",
"135 229 OFFCURVE",
"235 187 OFFCURVE",
"290 187 CURVE SMOOTH",
"327 187 OFFCURVE",
"376 216 OFFCURVE",
"390 216 CURVE SMOOTH",
"404 216 OFFCURVE",
"428 184 OFFCURVE",
"428 165 CURVE SMOOTH",
"428 134 OFFCURVE",
"327 109 OFFCURVE",
"249 109 CURVE SMOOTH",
"170 109 OFFCURVE",
"154 121 OFFCURVE",
"154 166 CURVE SMOOTH",
"154 197 OFFCURVE",
"154 213 OFFCURVE",
"141 213 CURVE SMOOTH"
);
},
{
closed = 1;
nodes = (
"581 300 OFFCURVE",
"611 266 OFFCURVE",
"658 266 CURVE SMOOTH",
"702 266 OFFCURVE",
"735 297 OFFCURVE",
"735 341 CURVE SMOOTH",
"735 382 OFFCURVE",
"705 416 OFFCURVE",
"658 416 CURVE SMOOTH",
"614 416 OFFCURVE",
"581 385 OFFCURVE",
"581 341 CURVE SMOOTH"
);
}
);
};
layerId = "B0B60A8F-2DEB-4A58-A43B-60A0DADABD8F";
paths = (
{
closed = 1;
nodes = (
"0 606 LINE",
"-29 606 OFFCURVE",
"-42 609 OFFCURVE",
"-49 587 CURVE SMOOTH",
"-65 534 LINE SMOOTH",
"-70 519 OFFCURVE",
"-63 512 OFFCURVE",
"-44 512 CURVE SMOOTH",
"750 512 LINE",
"779 512 OFFCURVE",
"792 509 OFFCURVE",
"799 531 CURVE SMOOTH",
"816 584 LINE SMOOTH",
"821 599 OFFCURVE",
"814 606 OFFCURVE",
"795 606 CURVE SMOOTH"
);
},
{
closed = 1;
nodes = (
"124 202 OFFCURVE",
"66 150 OFFCURVE",
"66 94 CURVE SMOOTH",
"66 31 OFFCURVE",
"125 0 OFFCURVE",
"224 0 CURVE SMOOTH",
"391 0 OFFCURVE",
"549 84 OFFCURVE",
"549 165 CURVE SMOOTH",
"549 228 OFFCURVE",
"491 311 OFFCURVE",
"428 311 CURVE SMOOTH",
"378 311 OFFCURVE",
"332 284 OFFCURVE",
"309 284 CURVE SMOOTH",
"294 284 OFFCURVE",
"262 302 OFFCURVE",
"262 325 CURVE SMOOTH",
"262 352 OFFCURVE",
"288 376 OFFCURVE",
"308 376 CURVE SMOOTH",
"336 376 OFFCURVE",
"401 376 OFFCURVE",
"432 376 CURVE SMOOTH",
"437 376 OFFCURVE",
"454 382 OFFCURVE",
"459 408 CURVE SMOOTH",
"471 472 LINE",
"380 464 OFFCURVE",
"310 466 OFFCURVE",
"274 466 CURVE SMOOTH",
"208 466 OFFCURVE",
"145 381 OFFCURVE",
"146 322 CURVE SMOOTH",
"147 245 OFFCURVE",
"234 199 OFFCURVE",
"289 199 CURVE SMOOTH",
"326 199 OFFCURVE",
"376 228 OFFCURVE",
"390 228 CURVE SMOOTH",
"415 228 OFFCURVE",
"440 186 OFFCURVE",
"440 166 CURVE SMOOTH",
"440 121 OFFCURVE",
"324 99 OFFCURVE",
"236 99 CURVE SMOOTH",
"159 99 OFFCURVE",
"145 119 OFFCURVE",
"145 164 CURVE SMOOTH",
"145 186 OFFCURVE",
"148 202 OFFCURVE",
"138 202 CURVE SMOOTH"
);
},
{
closed = 1;
nodes = (
"582 308 OFFCURVE",
"606 280 OFFCURVE",
"644 280 CURVE SMOOTH",
"680 280 OFFCURVE",
"706 305 OFFCURVE",
"706 341 CURVE SMOOTH",
"706 374 OFFCURVE",
"682 402 OFFCURVE",
"644 402 CURVE SMOOTH",
"608 402 OFFCURVE",
"582 377 OFFCURVE",
"582 341 CURVE SMOOTH"
);
},
{
closed = 1;
nodes = (
"428 541 LINE",
"426 520 OFFCURVE",
"419 459 OFFCURVE",
"413 413 CURVE SMOOTH",
"410 388 OFFCURVE",
"407 376 OFFCURVE",
"428 376 CURVE SMOOTH",
"430 376 OFFCURVE",
"434 376 OFFCURVE",
"436 376 CURVE SMOOTH",
"482 376 OFFCURVE",
"525 414 OFFCURVE",
"529 449 CURVE SMOOTH",
"533 481 OFFCURVE",
"536 514 OFFCURVE",
"539 538 CURVE"
);
}
);
width = 750;
}
);
unicode = 0919;
},
{
glyphname = "ca-deva";
lastChange = "2020-11-26 13:28:10 +0000";
layers = (
{
background = {
paths = (
{
closed = 1;
nodes = (
"278 463 OFFCURVE",
"156 350 OFFCURVE",
"156 231 CURVE SMOOTH",
"156 113 OFFCURVE",
"242 49 OFFCURVE",
"361 49 CURVE SMOOTH",
"457 49 OFFCURVE",
"527 85 OFFCURVE",
"568 128 CURVE",
"568 128 OFFCURVE",
"529 245 OFFCURVE",
"529 245 CURVE",
"510 223 OFFCURVE",
"443 161 OFFCURVE",
"384 161 CURVE SMOOTH",
"337 161 OFFCURVE",
"284 210 OFFCURVE",
"284 260 CURVE SMOOTH",
"284 300 OFFCURVE",
"343 358 OFFCURVE",
"395 358 CURVE SMOOTH",
"437 358 OFFCURVE",
"494 338 OFFCURVE",
"539 322 CURVE",
"551 450 LINE",
"545 451 OFFCURVE",
"491 463 OFFCURVE",
"429 463 CURVE SMOOTH"
);
}
);
};
layerId = "555B79C6-6D98-46E7-9307-77C37975E414";
paths = (
{
closed = 1;
nodes = (
"0 629 LINE",
"-15 629 OFFCURVE",
"-25 627 OFFCURVE",
"-30 610 CURVE SMOOTH",
"-55 532 LINE SMOOTH",
"-60 517 OFFCURVE",
"-53 510 OFFCURVE",
"-34 510 CURVE SMOOTH",
"737 510 LINE",
"769 510 OFFCURVE",
"779 508 OFFCURVE",
"786 529 CURVE SMOOTH",
"811 607 LINE SMOOTH",
"816 622 OFFCURVE",
"809 629 OFFCURVE",
"790 629 CURVE SMOOTH"
);
},
{
closed = 1;
nodes = (
"545 541 LINE",
"522 295 OFFCURVE",
"505 117 OFFCURVE",
"498 63 CURVE SMOOTH",
"493 27 OFFCURVE",
"484 -23 OFFCURVE",
"523 -23 CURVE SMOOTH",
"580 -23 OFFCURVE",
"644 95 OFFCURVE",
"649 174 CURVE SMOOTH",
"661 361 OFFCURVE",
"669 396 OFFCURVE",
"682 538 CURVE"
);
},
{
closed = 1;
nodes = (
"40 324 OFFCURVE",
"47 317 OFFCURVE",
"66 317 CURVE SMOOTH",
"189 317 LINE",
"181 305 OFFCURVE",
"154 261 OFFCURVE",
"154 218 CURVE SMOOTH",
"154 126 OFFCURVE",
"229 49 OFFCURVE",
"360 49 CURVE SMOOTH",
"450 49 OFFCURVE",
"523 90 OFFCURVE",
"564 133 CURVE",
"525 250 LINE",
"506 228 OFFCURVE",
"436 155 OFFCURVE",
"383 155 CURVE SMOOTH",
"329 155 OFFCURVE",
"275 206 OFFCURVE",
"275 258 CURVE SMOOTH",
"275 286 OFFCURVE",
"316 324 OFFCURVE",
"329 324 CURVE SMOOTH",
"348 324 OFFCURVE",
"380 303 OFFCURVE",
"393 303 CURVE SMOOTH",
"416 303 OFFCURVE",
"445 373 OFFCURVE",
"445 391 CURVE SMOOTH",
"445 418 OFFCURVE",
"370 438 OFFCURVE",
"326 438 CURVE SMOOTH",
"283 438 OFFCURVE",
"150 436 OFFCURVE",
"100 436 CURVE SMOOTH",
"85 436 OFFCURVE",
"75 434 OFFCURVE",
"70 417 CURVE SMOOTH",
"45 339 LINE SMOOTH"
);
}
);
width = 737;
},
{
background = {
paths = (
{
closed = 1;
nodes = (
"0 629 LINE",
"-15 629 OFFCURVE",
"-25 627 OFFCURVE",
"-30 610 CURVE SMOOTH",
"-55 532 LINE SMOOTH",
"-60 517 OFFCURVE",
"-53 510 OFFCURVE",
"-34 510 CURVE SMOOTH",
"737 510 LINE",
"769 510 OFFCURVE",
"779 508 OFFCURVE",
"786 529 CURVE SMOOTH",
"811 607 LINE SMOOTH",
"816 622 OFFCURVE",
"809 629 OFFCURVE",
"790 629 CURVE SMOOTH"
);
},
{
closed = 1;
nodes = (
"545 541 LINE",
"522 295 OFFCURVE",
"505 117 OFFCURVE",
"498 63 CURVE SMOOTH",
"493 27 OFFCURVE",
"484 -23 OFFCURVE",
"523 -23 CURVE SMOOTH",
"580 -23 OFFCURVE",
"644 95 OFFCURVE",
"649 174 CURVE SMOOTH",
"661 361 OFFCURVE",
"669 396 OFFCURVE",
"682 538 CURVE"
);
},
{
closed = 1;
nodes = (
"40 324 OFFCURVE",
"47 317 OFFCURVE",
"66 317 CURVE SMOOTH",
"189 317 LINE",
"181 305 OFFCURVE",
"154 261 OFFCURVE",
"154 218 CURVE SMOOTH",
"154 126 OFFCURVE",
"229 49 OFFCURVE",
"360 49 CURVE SMOOTH",
"450 49 OFFCURVE",
"523 90 OFFCURVE",
"564 133 CURVE",
"525 250 LINE",
"506 228 OFFCURVE",
"436 155 OFFCURVE",
"383 155 CURVE SMOOTH",
"329 155 OFFCURVE",
"275 206 OFFCURVE",
"275 258 CURVE SMOOTH",
"275 286 OFFCURVE",
"316 324 OFFCURVE",
"329 324 CURVE SMOOTH",
"348 324 OFFCURVE",
"380 303 OFFCURVE",
"393 303 CURVE SMOOTH",
"416 303 OFFCURVE",
"445 373 OFFCURVE",
"445 391 CURVE SMOOTH",
"445 418 OFFCURVE",
"370 438 OFFCURVE",
"326 438 CURVE SMOOTH",
"283 438 OFFCURVE",
"150 436 OFFCURVE",
"100 436 CURVE SMOOTH",
"85 436 OFFCURVE",
"75 434 OFFCURVE",
"70 417 CURVE SMOOTH",
"45 339 LINE SMOOTH"
);
}
);
};
layerId = "B0B60A8F-2DEB-4A58-A43B-60A0DADABD8F";
paths = (
{
closed = 1;
nodes = (
"0 606 LINE",
"-19 606 OFFCURVE",
"-32 609 OFFCURVE",
"-39 587 CURVE SMOOTH",
"-55 534 LINE SMOOTH",
"-60 519 OFFCURVE",
"-53 512 OFFCURVE",
"-34 512 CURVE SMOOTH",
"720 512 LINE",
"749 512 OFFCURVE",
"762 509 OFFCURVE",
"769 531 CURVE SMOOTH",
"786 584 LINE SMOOTH",
"791 599 OFFCURVE",
"784 606 OFFCURVE",
"765 606 CURVE SMOOTH"
);
},
{
closed = 1;
nodes = (
"556 541 LINE",
"556 541 OFFCURVE",
"522 162 OFFCURVE",
"508 56 CURVE SMOOTH",
"502 14 OFFCURVE",
"497 -21 OFFCURVE",
"528 -21 CURVE SMOOTH",
"569 -21 OFFCURVE",
"631 107 OFFCURVE",
"635 174 CURVE SMOOTH",
"646 361 OFFCURVE",
"669 538 OFFCURVE",
"669 538 CURVE"
);
},
{
closed = 1;
nodes = (
"54 334 OFFCURVE",
"61 328 OFFCURVE",
"77 328 CURVE SMOOTH",
"210 328 LINE",
"200 316 OFFCURVE",
"165 265 OFFCURVE",
"165 221 CURVE SMOOTH",
"165 127 OFFCURVE",
"250 59 OFFCURVE",
"360 59 CURVE SMOOTH",
"450 59 OFFCURVE",
"526 107 OFFCURVE",
"567 148 CURVE",
"535 244 LINE",
"516 222 OFFCURVE",
"442 143 OFFCURVE",
"380 143 CURVE SMOOTH",
"326 143 OFFCURVE",
"263 195 OFFCURVE",
"263 257 CURVE SMOOTH",
"263 291 OFFCURVE",
"306 335 OFFCURVE",
"330 335 CURVE SMOOTH",
"349 335 OFFCURVE",
"381 314 OFFCURVE",
"393 314 CURVE SMOOTH",
"408 314 OFFCURVE",
"436 374 OFFCURVE",
"436 387 CURVE SMOOTH",
"436 406 OFFCURVE",
"371 427 OFFCURVE",
"327 427 CURVE SMOOTH",
"284 427 OFFCURVE",
"160 425 OFFCURVE",
"110 425 CURVE SMOOTH",
"95 425 OFFCURVE",
"84 424 OFFCURVE",
"79 410 CURVE SMOOTH",
"59 350 LINE SMOOTH"
);
}
);
width = 720;
}
);
unicode = 091A;
},
{
glyphname = "cha-deva";
lastChange = "2020-11-26 11:54:38 +0000";
layers = (
{
layerId = "555B79C6-6D98-46E7-9307-77C37975E414";
paths = (
{
closed = 1;
nodes = (
"0 629 LINE",
"-15 629 OFFCURVE",
"-25 627 OFFCURVE",
"-30 610 CURVE SMOOTH",
"-55 532 LINE SMOOTH",
"-60 517 OFFCURVE",
"-53 510 OFFCURVE",
"-34 510 CURVE SMOOTH",
"750 510 LINE",
"782 510 OFFCURVE",
"792 508 OFFCURVE",
"799 529 CURVE SMOOTH",
"824 607 LINE SMOOTH",
"829 622 OFFCURVE",
"822 629 OFFCURVE",
"803 629 CURVE SMOOTH"
);
},
{
closed = 1;
nodes = (
"566 457 OFFCURVE",
"560 397 OFFCURVE",
"556 369 CURVE SMOOTH",
"551 333 OFFCURVE",
"545 302 OFFCURVE",
"567 302 CURVE SMOOTH",
"630 302 OFFCURVE",
"692 400 OFFCURVE",
"697 480 CURVE SMOOTH",
"699 504 OFFCURVE",
"700 527 OFFCURVE",
"702 550 CURVE",
"574 542 LINE"
);
},
{
closed = 1;
nodes = (
"42 386 OFFCURVE",
"94 340 OFFCURVE",
"123 320 CURVE",
"97 296 OFFCURVE",
"59 244 OFFCURVE",
"59 185 CURVE SMOOTH",
"59 67 OFFCURVE",
"165 -3 OFFCURVE",
"303 -3 CURVE SMOOTH",
"475 -3 OFFCURVE",
"687 87 OFFCURVE",
"687 234 CURVE SMOOTH",
"687 341 OFFCURVE",
"589 457 OFFCURVE",
"501 457 CURVE SMOOTH",
"462 457 OFFCURVE",
"422 380 OFFCURVE",
"422 321 CURVE SMOOTH",
"422 290 OFFCURVE",
"431 275 OFFCURVE",
"441 275 CURVE SMOOTH",
"454 275 OFFCURVE",
"462 308 OFFCURVE",
"475 308 CURVE SMOOTH",
"493 308 OFFCURVE",
"572 273 OFFCURVE",
"572 244 CURVE SMOOTH",
"572 211 OFFCURVE",
"452 126 OFFCURVE",
"316 126 CURVE SMOOTH",
"247 126 OFFCURVE",
"197 189 OFFCURVE",
"197 225 CURVE SMOOTH",
"197 260 OFFCURVE",
"226 274 OFFCURVE",
"245 274 CURVE SMOOTH",
"265 274 OFFCURVE",
"300 264 OFFCURVE",
"322 264 CURVE SMOOTH",
"346 264 OFFCURVE",
"354 314 OFFCURVE",
"354 355 CURVE SMOOTH",
"354 379 OFFCURVE",
"347 383 OFFCURVE",
"335 384 CURVE SMOOTH",
"313 386 OFFCURVE",
"276 381 OFFCURVE",
"258 381 CURVE SMOOTH",
"220 381 OFFCURVE",
"194 417 OFFCURVE",
"194 446 CURVE SMOOTH",
"194 467 OFFCURVE",
"216 510 OFFCURVE",
"257 510 CURVE",
"72 533 LINE",
"59 518 OFFCURVE",
"42 485 OFFCURVE",
"42 448 CURVE SMOOTH"
);
}
);
width = 750;
},
{
associatedMasterId = "555B79C6-6D98-46E7-9307-77C37975E414";
layerId = "742C4312-9227-448B-AC1A-1EAA2EEE5CA4";
name = "Jun 25 20, 18:43";
paths = (
{
closed = 1;
nodes = (
"797 511 LINE",
"829 511 OFFCURVE",
"839 509 OFFCURVE",
"846 530 CURVE SMOOTH",
"871 608 LINE SMOOTH",
"876 623 OFFCURVE",
"869 630 OFFCURVE",
"850 630 CURVE SMOOTH",
"-135 630 LINE",
"-150 630 OFFCURVE",
"-160 628 OFFCURVE",
"-165 611 CURVE SMOOTH",
"-190 533 LINE SMOOTH",
"-195 518 OFFCURVE",
"-188 511 OFFCURVE",
"-169 511 CURVE SMOOTH"
);
},
{
closed = 1;
nodes = (
"0 552 OFFCURVE",
"-48 505 OFFCURVE",
"-48 429 CURVE SMOOTH",
"-48 337 OFFCURVE",
"22 276 OFFCURVE",
"118 324 CURVE SMOOTH",
"124 327 OFFCURVE",
"-39 248 OFFCURVE",
"41 94 CURVE SMOOTH",
"90 0 OFFCURVE",
"218 -45 OFFCURVE",
"311 -45 CURVE SMOOTH",
"432 -45 OFFCURVE",
"647 -16 OFFCURVE",
"657 222 CURVE SMOOTH",
"661 313 OFFCURVE",
"619 452 OFFCURVE",
"522 452 CURVE SMOOTH",
"465 452 OFFCURVE",
"390 418 OFFCURVE",
"384 349 CURVE SMOOTH",
"376 264 OFFCURVE",
"427 222 OFFCURVE",
"443 222 CURVE SMOOTH",
"455 222 OFFCURVE",
"435 245 OFFCURVE",
"437 281 CURVE SMOOTH",
"439 314 OFFCURVE",
"448 328 OFFCURVE",
"479 329 CURVE SMOOTH",
"522 330 OFFCURVE",
"524 186 OFFCURVE",
"475 137 CURVE SMOOTH",
"442 104 OFFCURVE",
"359 90 OFFCURVE",
"301 94 CURVE SMOOTH",
"230 99 OFFCURVE",
"190 160 OFFCURVE",
"191 211 CURVE SMOOTH",
"193 290 OFFCURVE",
"311 298 OFFCURVE",
"313 323 CURVE SMOOTH",
"315 351 OFFCURVE",
"301 401 OFFCURVE",
"284 402 CURVE SMOOTH",
"260 403 OFFCURVE",
"230 374 OFFCURVE",
"186 377 CURVE SMOOTH",
"138 380 OFFCURVE",
"118 421 OFFCURVE",
"120 457 CURVE SMOOTH",
"123 506 OFFCURVE",
"132 520 OFFCURVE",
"191 554 CURVE",
"51 553 LINE"
);
},
{
closed = 1;
nodes = (
"485 572 LINE",
"465 459 OFFCURVE",
"421 371 OFFCURVE",
"475 371 CURVE SMOOTH",
"532 371 OFFCURVE",
"561 369 OFFCURVE",
"571 397 CURVE SMOOTH",
"588 444 OFFCURVE",
"605 541 OFFCURVE",
"609 572 CURVE"
);
}
);
width = 600;
},
{
associatedMasterId = "555B79C6-6D98-46E7-9307-77C37975E414";
layerId = "D8E8578B-3053-430F-AC11-199512D2B2E3";
name = "Jun 25 20, 18:43";
paths = (
{
closed = 1;
nodes = (
"797 511 LINE",
"829 511 OFFCURVE",
"839 509 OFFCURVE",
"846 530 CURVE SMOOTH",
"871 608 LINE SMOOTH",
"876 623 OFFCURVE",
"869 630 OFFCURVE",
"850 630 CURVE SMOOTH",
"-135 630 LINE",
"-150 630 OFFCURVE",
"-160 628 OFFCURVE",
"-165 611 CURVE SMOOTH",
"-190 533 LINE SMOOTH",
"-195 518 OFFCURVE",
"-188 511 OFFCURVE",
"-169 511 CURVE SMOOTH"
);
},
{
closed = 1;
nodes = (
"0 552 OFFCURVE",
"-48 505 OFFCURVE",
"-48 429 CURVE SMOOTH",
"-48 337 OFFCURVE",
"22 276 OFFCURVE",
"118 324 CURVE SMOOTH",
"124 327 OFFCURVE",
"-39 248 OFFCURVE",
"41 94 CURVE SMOOTH",
"90 0 OFFCURVE",
"218 -45 OFFCURVE",
"311 -45 CURVE SMOOTH",
"432 -45 OFFCURVE",
"647 -16 OFFCURVE",
"657 222 CURVE SMOOTH",
"661 313 OFFCURVE",
"619 452 OFFCURVE",
"522 452 CURVE SMOOTH",
"465 452 OFFCURVE",
"390 418 OFFCURVE",
"384 349 CURVE SMOOTH",
"376 264 OFFCURVE",
"427 222 OFFCURVE",
"443 222 CURVE SMOOTH",
"455 222 OFFCURVE",
"435 245 OFFCURVE",
"437 281 CURVE SMOOTH",
"439 314 OFFCURVE",
"448 328 OFFCURVE",
"479 329 CURVE SMOOTH",
"522 330 OFFCURVE",
"524 186 OFFCURVE",
"475 137 CURVE SMOOTH",
"442 104 OFFCURVE",
"359 90 OFFCURVE",
"301 94 CURVE SMOOTH",
"230 99 OFFCURVE",
"190 160 OFFCURVE",
"191 211 CURVE SMOOTH",
"193 290 OFFCURVE",
"311 298 OFFCURVE",
"313 323 CURVE SMOOTH",
"315 351 OFFCURVE",
"301 401 OFFCURVE",
"284 402 CURVE SMOOTH",
"260 403 OFFCURVE",
"230 374 OFFCURVE",
"186 377 CURVE SMOOTH",
"138 380 OFFCURVE",
"118 421 OFFCURVE",
"120 457 CURVE SMOOTH",
"123 506 OFFCURVE",
"132 520 OFFCURVE",
"191 554 CURVE",
"51 553 LINE"
);
},
{
closed = 1;
nodes = (
"485 572 LINE",
"465 459 OFFCURVE",
"421 371 OFFCURVE",
"475 371 CURVE SMOOTH",
"532 371 OFFCURVE",
"561 369 OFFCURVE",
"571 397 CURVE SMOOTH",
"588 444 OFFCURVE",
"605 541 OFFCURVE",
"609 572 CURVE"
);
}
);
width = 600;
},
{
background = {
paths = (
{
closed = 1;
nodes = (
"0 629 LINE",
"-15 629 OFFCURVE",
"-25 627 OFFCURVE",
"-30 610 CURVE SMOOTH",
"-55 532 LINE SMOOTH",
"-60 517 OFFCURVE",
"-53 510 OFFCURVE",
"-34 510 CURVE SMOOTH",
"750 510 LINE",
"782 510 OFFCURVE",
"792 508 OFFCURVE",
"799 529 CURVE SMOOTH",
"824 607 LINE SMOOTH",
"829 622 OFFCURVE",
"822 629 OFFCURVE",
"803 629 CURVE SMOOTH"
);
},
{
closed = 1;
nodes = (
"566 457 OFFCURVE",
"560 397 OFFCURVE",
"556 369 CURVE SMOOTH",
"551 333 OFFCURVE",
"545 302 OFFCURVE",
"567 302 CURVE SMOOTH",
"630 302 OFFCURVE",
"692 400 OFFCURVE",
"697 480 CURVE SMOOTH",
"699 504 OFFCURVE",
"700 527 OFFCURVE",
"702 550 CURVE",
"574 542 LINE"
);
},
{
closed = 1;
nodes = (
"42 386 OFFCURVE",
"94 340 OFFCURVE",
"123 320 CURVE",
"97 296 OFFCURVE",
"59 244 OFFCURVE",
"59 185 CURVE SMOOTH",
"59 67 OFFCURVE",
"165 -3 OFFCURVE",
"303 -3 CURVE SMOOTH",
"475 -3 OFFCURVE",
"687 87 OFFCURVE",
"687 234 CURVE SMOOTH",
"687 341 OFFCURVE",
"589 457 OFFCURVE",
"501 457 CURVE SMOOTH",
"462 457 OFFCURVE",
"422 380 OFFCURVE",
"422 321 CURVE SMOOTH",
"422 290 OFFCURVE",
"431 275 OFFCURVE",
"441 275 CURVE SMOOTH",
"454 275 OFFCURVE",
"462 308 OFFCURVE",
"475 308 CURVE SMOOTH",
"493 308 OFFCURVE",
"572 273 OFFCURVE",
"572 244 CURVE SMOOTH",
"572 211 OFFCURVE",
"452 126 OFFCURVE",
"316 126 CURVE SMOOTH",
"247 126 OFFCURVE",
"197 189 OFFCURVE",
"197 225 CURVE SMOOTH",
"197 260 OFFCURVE",
"226 274 OFFCURVE",
"245 274 CURVE SMOOTH",
"265 274 OFFCURVE",
"300 264 OFFCURVE",
"322 264 CURVE SMOOTH",
"346 264 OFFCURVE",
"354 314 OFFCURVE",
"354 355 CURVE SMOOTH",
"354 379 OFFCURVE",
"347 383 OFFCURVE",
"335 384 CURVE SMOOTH",
"313 386 OFFCURVE",
"276 381 OFFCURVE",
"258 381 CURVE SMOOTH",
"220 381 OFFCURVE",
"194 417 OFFCURVE",
"194 446 CURVE SMOOTH",
"194 467 OFFCURVE",
"216 510 OFFCURVE",
"257 510 CURVE",
"72 533 LINE",
"59 518 OFFCURVE",
"42 485 OFFCURVE",
"42 448 CURVE SMOOTH"
);
}
);
};
layerId = "B0B60A8F-2DEB-4A58-A43B-60A0DADABD8F";
paths = (
{
closed = 1;
nodes = (
"54 388 OFFCURVE",
"111 341 OFFCURVE",
"140 321 CURVE",
"113 299 OFFCURVE",
"69 244 OFFCURVE",
"69 189 CURVE SMOOTH",
"69 74 OFFCURVE",
"180 8 OFFCURVE",
"311 8 CURVE SMOOTH",
"475 8 OFFCURVE",
"677 103 OFFCURVE",
"677 234 CURVE SMOOTH",
"677 341 OFFCURVE",
"577 442 OFFCURVE",
"503 442 CURVE SMOOTH",
"475 442 OFFCURVE",
"434 372 OFFCURVE",
"434 331 CURVE SMOOTH",
"434 311 OFFCURVE",
"441 294 OFFCURVE",
"449 294 CURVE SMOOTH",
"462 294 OFFCURVE",
"469 323 OFFCURVE",
"482 323 CURVE SMOOTH",
"510 323 OFFCURVE",
"582 277 OFFCURVE",
"582 244 CURVE SMOOTH",
"582 202 OFFCURVE",
"461 111 OFFCURVE",
"313 111 CURVE SMOOTH",
"241 111 OFFCURVE",
"185 174 OFFCURVE",
"185 224 CURVE SMOOTH",
"185 271 OFFCURVE",
"226 284 OFFCURVE",
"245 284 CURVE SMOOTH",
"265 284 OFFCURVE",
"292 275 OFFCURVE",
"314 275 CURVE SMOOTH",
"335 275 OFFCURVE",
"344 310 OFFCURVE",
"344 345 CURVE SMOOTH",
"344 369 OFFCURVE",
"337 373 OFFCURVE",
"325 374 CURVE SMOOTH",
"303 376 OFFCURVE",
"276 371 OFFCURVE",
"258 371 CURVE SMOOTH",
"220 371 OFFCURVE",
"177 407 OFFCURVE",
"177 446 CURVE SMOOTH",
"177 469 OFFCURVE",
"195 512 OFFCURVE",
"236 512 CURVE",
"82 533 LINE",
"69 518 OFFCURVE",
"54 485 OFFCURVE",
"54 448 CURVE SMOOTH"
);
},
{
closed = 1;
nodes = (
"0 606 LINE",
"-18 606 OFFCURVE",
"-31 609 OFFCURVE",
"-38 587 CURVE SMOOTH",
"-54 534 LINE SMOOTH",
"-59 519 OFFCURVE",
"-52 512 OFFCURVE",
"-33 512 CURVE SMOOTH",
"814 512 LINE",
"843 512 OFFCURVE",
"856 509 OFFCURVE",
"863 531 CURVE SMOOTH",
"880 584 LINE SMOOTH",
"885 599 OFFCURVE",
"878 606 OFFCURVE",
"859 606 CURVE SMOOTH"
);
},
{
closed = 1;
nodes = (
"575 457 OFFCURVE",
"569 397 OFFCURVE",
"565 369 CURVE SMOOTH",
"560 333 OFFCURVE",
"556 312 OFFCURVE",
"571 312 CURVE SMOOTH",
"623 312 OFFCURVE",
"683 404 OFFCURVE",
"688 480 CURVE SMOOTH",
"690 504 OFFCURVE",
"691 527 OFFCURVE",
"693 550 CURVE",
"583 542 LINE"
);
}
);
width = 745;
}
);
unicode = 091B;
},
{
glyphname = "ja-deva";
lastChange = "2021-04-05 09:35:06 +0000";
layers = (
{
layerId = "555B79C6-6D98-46E7-9307-77C37975E414";
paths = (
{
closed = 1;
nodes = (
"0 629 LINE",
"-15 629 OFFCURVE",
"-25 627 OFFCURVE",
"-30 610 CURVE SMOOTH",
"-55 532 LINE SMOOTH",
"-60 517 OFFCURVE",
"-53 510 OFFCURVE",
"-34 510 CURVE SMOOTH",
"819 510 LINE",
"851 510 OFFCURVE",
"861 508 OFFCURVE",
"868 529 CURVE SMOOTH",
"893 607 LINE SMOOTH",
"898 622 OFFCURVE",
"891 629 OFFCURVE",
"872 629 CURVE SMOOTH"
);
},
{
closed = 1;
nodes = (
"627 541 LINE",
"604 295 OFFCURVE",
"587 117 OFFCURVE",
"580 63 CURVE SMOOTH",
"575 27 OFFCURVE",
"566 -23 OFFCURVE",
"605 -23 CURVE SMOOTH",
"662 -23 OFFCURVE",
"726 95 OFFCURVE",
"731 174 CURVE SMOOTH",
"743 361 OFFCURVE",
"751 396 OFFCURVE",
"764 538 CURVE"
);
},
{
closed = 1;
nodes = (
"40 124 OFFCURVE",
"149 48 OFFCURVE",
"284 48 CURVE SMOOTH",
"415 48 OFFCURVE",
"536 127 OFFCURVE",
"536 229 CURVE SMOOTH",
"536 266 OFFCURVE",
"514 307 OFFCURVE",
"505 318 CURVE",
"640 322 LINE SMOOTH",
"659 323 OFFCURVE",
"660 328 OFFCURVE",
"661 344 CURVE SMOOTH",
"666 418 LINE SMOOTH",
"667 435 OFFCURVE",
"651 437 OFFCURVE",
"636 437 CURVE SMOOTH",
"602 437 OFFCURVE",
"508 432 OFFCURVE",
"437 432 CURVE SMOOTH",
"403 432 OFFCURVE",
"388 444 OFFCURVE",
"360 444 CURVE SMOOTH",
"336 444 OFFCURVE",
"314 386 OFFCURVE",
"314 356 CURVE SMOOTH",
"314 343 OFFCURVE",
"320 338 OFFCURVE",
"334 338 CURVE SMOOTH",
"374 338 OFFCURVE",
"406 279 OFFCURVE",
"406 256 CURVE SMOOTH",
"406 214 OFFCURVE",
"345 161 OFFCURVE",
"275 161 CURVE SMOOTH",
"186 161 OFFCURVE",
"166 254 OFFCURVE",
"166 296 CURVE SMOOTH",
"166 365 OFFCURVE",
"187 423 OFFCURVE",
"158 423 CURVE SMOOTH",
"123 423 OFFCURVE",
"40 339 OFFCURVE",
"40 236 CURVE SMOOTH"
);
}
);
width = 819;
},
{
background = {
paths = (
{
closed = 1;
nodes = (
"0 629 LINE",
"-15 629 OFFCURVE",
"-25 627 OFFCURVE",
"-30 610 CURVE SMOOTH",
"-55 532 LINE SMOOTH",
"-60 517 OFFCURVE",
"-53 510 OFFCURVE",
"-34 510 CURVE SMOOTH",
"819 510 LINE",
"851 510 OFFCURVE",
"861 508 OFFCURVE",
"868 529 CURVE SMOOTH",
"893 607 LINE SMOOTH",
"898 622 OFFCURVE",
"891 629 OFFCURVE",
"872 629 CURVE SMOOTH"
);
},
{
closed = 1;
nodes = (
"627 541 LINE",
"604 295 OFFCURVE",
"587 117 OFFCURVE",
"580 63 CURVE SMOOTH",
"575 27 OFFCURVE",
"566 -23 OFFCURVE",
"605 -23 CURVE SMOOTH",
"662 -23 OFFCURVE",
"726 95 OFFCURVE",
"731 174 CURVE SMOOTH",
"743 361 OFFCURVE",
"751 396 OFFCURVE",
"764 538 CURVE"
);
},
{
closed = 1;
nodes = (
"40 124 OFFCURVE",
"149 48 OFFCURVE",
"284 48 CURVE SMOOTH",
"415 48 OFFCURVE",
"536 127 OFFCURVE",
"536 229 CURVE SMOOTH",
"536 266 OFFCURVE",
"514 307 OFFCURVE",
"505 318 CURVE",
"640 322 LINE SMOOTH",
"659 323 OFFCURVE",
"660 328 OFFCURVE",
"661 344 CURVE SMOOTH",
"666 418 LINE SMOOTH",
"667 435 OFFCURVE",
"651 437 OFFCURVE",
"636 437 CURVE SMOOTH",
"602 437 OFFCURVE",
"508 432 OFFCURVE",
"437 432 CURVE SMOOTH",
"403 432 OFFCURVE",
"388 444 OFFCURVE",
"360 444 CURVE SMOOTH",
"336 444 OFFCURVE",
"314 386 OFFCURVE",
"314 356 CURVE SMOOTH",
"314 343 OFFCURVE",
"320 338 OFFCURVE",
"334 338 CURVE SMOOTH",
"374 338 OFFCURVE",
"406 279 OFFCURVE",
"406 256 CURVE SMOOTH",
"406 214 OFFCURVE",
"345 161 OFFCURVE",
"275 161 CURVE SMOOTH",
"186 161 OFFCURVE",
"166 254 OFFCURVE",
"166 296 CURVE SMOOTH",
"166 365 OFFCURVE",
"187 423 OFFCURVE",
"158 423 CURVE SMOOTH",
"123 423 OFFCURVE",
"40 339 OFFCURVE",
"40 236 CURVE SMOOTH"
);
}
);
};
layerId = "B0B60A8F-2DEB-4A58-A43B-60A0DADABD8F";
paths = (
{
closed = 1;
nodes = (
"0 606 LINE",
"-29 606 OFFCURVE",
"-42 609 OFFCURVE",
"-49 587 CURVE SMOOTH",
"-65 534 LINE SMOOTH",
"-70 519 OFFCURVE",
"-63 512 OFFCURVE",
"-44 512 CURVE SMOOTH",
"805 512 LINE",
"834 512 OFFCURVE",
"847 509 OFFCURVE",
"854 531 CURVE SMOOTH",
"871 584 LINE SMOOTH",
"876 599 OFFCURVE",
"869 606 OFFCURVE",
"850 606 CURVE SMOOTH"
);
},
{
closed = 1;
nodes = (
"640 541 LINE",
"640 541 OFFCURVE",
"606 162 OFFCURVE",
"592 56 CURVE SMOOTH",
"586 14 OFFCURVE",
"581 -21 OFFCURVE",
"612 -21 CURVE SMOOTH",
"653 -21 OFFCURVE",
"715 107 OFFCURVE",
"719 174 CURVE SMOOTH",
"730 361 OFFCURVE",
"753 538 OFFCURVE",
"753 538 CURVE"
);
},
{
closed = 1;
nodes = (
"51 132 OFFCURVE",
"164 60 OFFCURVE",
"280 60 CURVE SMOOTH",
"415 60 OFFCURVE",
"526 144 OFFCURVE",
"526 229 CURVE SMOOTH",
"526 266 OFFCURVE",
"496 319 OFFCURVE",
"483 332 CURVE",
"640 332 LINE SMOOTH",
"659 332 OFFCURVE",
"660 338 OFFCURVE",
"661 354 CURVE SMOOTH",
"666 408 LINE SMOOTH",
"668 425 OFFCURVE",
"651 427 OFFCURVE",
"636 427 CURVE SMOOTH",
"602 427 OFFCURVE",
"508 422 OFFCURVE",
"437 422 CURVE SMOOTH",
"403 422 OFFCURVE",
"386 433 OFFCURVE",
"363 433 CURVE SMOOTH",
"345 433 OFFCURVE",
"326 388 OFFCURVE",
"326 366 CURVE SMOOTH",
"326 353 OFFCURVE",
"330 348 OFFCURVE",
"344 348 CURVE SMOOTH",
"384 348 OFFCURVE",
"419 285 OFFCURVE",
"419 255 CURVE SMOOTH",
"419 205 OFFCURVE",
"351 150 OFFCURVE",
"276 150 CURVE SMOOTH",
"188 150 OFFCURVE",
"156 225 OFFCURVE",
"156 296 CURVE SMOOTH",
"156 358 OFFCURVE",
"177 412 OFFCURVE",
"154 412 CURVE SMOOTH",
"130 412 OFFCURVE",
"51 334 OFFCURVE",
"51 235 CURVE SMOOTH"
);
}
);
width = 805;
}
);
unicode = 091C;
},
{
glyphname = "jha-deva";
lastChange = "2020-11-26 12:55:25 +0000";
layers = (
{
background = {
paths = (
{
closed = 1;
nodes = (
"0 630 LINE",
"-32 630 OFFCURVE",
"-42 632 OFFCURVE",
"-49 611 CURVE SMOOTH",
"-74 533 LINE SMOOTH",
"-79 518 OFFCURVE",
"-72 511 OFFCURVE",
"-53 511 CURVE SMOOTH",
"543 511 LINE",
"575 511 OFFCURVE",
"585 509 OFFCURVE",
"592 530 CURVE SMOOTH",
"617 608 LINE SMOOTH",
"622 623 OFFCURVE",
"615 630 OFFCURVE",
"596 630 CURVE SMOOTH"
);
},
{
closed = 1;
nodes = (
"345 541 LINE",
"343 520 OFFCURVE",
"336 446 OFFCURVE",
"332 400 CURVE SMOOTH",
"329 369 OFFCURVE",
"327 363 OFFCURVE",
"348 363 CURVE SMOOTH",
"375 363 OFFCURVE",
"328 363 OFFCURVE",
"373 363 CURVE SMOOTH",
"419 363 OFFCURVE",
"468 416 OFFCURVE",
"472 451 CURVE SMOOTH",
"476 483 OFFCURVE",
"479 514 OFFCURVE",
"482 538 CURVE"
);
},
{
closed = 1;
nodes = (
"401 479 LINE",
"310 471 OFFCURVE",
"240 473 OFFCURVE",
"198 473 CURVE SMOOTH",
"121 473 OFFCURVE",
"63 378 OFFCURVE",
"64 319 CURVE SMOOTH",
"65 224 OFFCURVE",
"165 182 OFFCURVE",
"220 182 CURVE SMOOTH",
"257 182 OFFCURVE",
"306 211 OFFCURVE",
"320 211 CURVE SMOOTH",
"334 211 OFFCURVE",
"353 183 OFFCURVE",
"353 167 CURVE SMOOTH",
"353 138 OFFCURVE",
"202 113 OFFCURVE",
"157 113 CURVE SMOOTH",
"128 113 OFFCURVE",
"120 139 OFFCURVE",
"102 139 CURVE SMOOTH",
"81 139 OFFCURVE",
"49 59 OFFCURVE",
"49 34 CURVE SMOOTH",
"49 12 OFFCURVE",
"73 22 OFFCURVE",
"95 -6 CURVE SMOOTH",
"173 -106 OFFCURVE",
"271 -177 OFFCURVE",
"309 -177 CURVE SMOOTH",
"341 -177 OFFCURVE",
"396 -105 OFFCURVE",
"396 -63 CURVE SMOOTH",
"396 -48 OFFCURVE",
"392 -15 OFFCURVE",
"382 -15 CURVE SMOOTH",
"373 -15 OFFCURVE",
"362 -47 OFFCURVE",
"353 -47 CURVE SMOOTH",
"333 -47 OFFCURVE",
"252 -5 OFFCURVE",
"232 13 CURVE",
"324 13 OFFCURVE",
"492 70 OFFCURVE",
"492 163 CURVE SMOOTH",
"492 227 OFFCURVE",
"440 316 OFFCURVE",
"358 316 CURVE SMOOTH",
"303 316 OFFCURVE",
"262 291 OFFCURVE",
"239 291 CURVE SMOOTH",
"224 291 OFFCURVE",
"204 309 OFFCURVE",
"204 322 CURVE SMOOTH",
"204 336 OFFCURVE",
"224 363 OFFCURVE",
"243 363 CURVE SMOOTH",
"271 363 OFFCURVE",
"331 363 OFFCURVE",
"362 363 CURVE SMOOTH",
"379 363 OFFCURVE",
"389 374 OFFCURVE",
"392 400 CURVE SMOOTH"
);
}
);
};
layerId = "555B79C6-6D98-46E7-9307-77C37975E414";
paths = (
{
closed = 1;
nodes = (
"606 547 LINE",
"583 301 OFFCURVE",
"566 123 OFFCURVE",
"559 69 CURVE SMOOTH",
"554 33 OFFCURVE",
"542 -15 OFFCURVE",
"578 -15 CURVE SMOOTH",
"641 -15 OFFCURVE",
"705 100 OFFCURVE",
"710 180 CURVE SMOOTH",
"722 367 OFFCURVE",
"743 544 OFFCURVE",
"743 544 CURVE"
);
},
{
closed = 1;
nodes = (
"0 629 LINE",
"-32 629 OFFCURVE",
"-42 631 OFFCURVE",
"-49 610 CURVE SMOOTH",
"-74 532 LINE SMOOTH",
"-79 517 OFFCURVE",
"-72 510 OFFCURVE",
"-53 510 CURVE SMOOTH",
"813 510 LINE",
"845 510 OFFCURVE",
"855 508 OFFCURVE",
"862 529 CURVE SMOOTH",
"887 607 LINE SMOOTH",
"892 622 OFFCURVE",
"885 629 OFFCURVE",
"866 629 CURVE SMOOTH"
);
},
{
closed = 1;
nodes = (
"345 541 LINE",
"343 520 OFFCURVE",
"336 446 OFFCURVE",
"332 400 CURVE SMOOTH",
"329 369 OFFCURVE",
"327 363 OFFCURVE",
"348 363 CURVE SMOOTH",
"375 363 OFFCURVE",
"328 363 OFFCURVE",
"373 363 CURVE SMOOTH",
"419 363 OFFCURVE",
"468 416 OFFCURVE",
"472 451 CURVE SMOOTH",
"476 483 OFFCURVE",
"479 514 OFFCURVE",
"482 538 CURVE"
);
},
{
closed = 1;
nodes = (
"401 479 LINE",
"310 471 OFFCURVE",
"240 473 OFFCURVE",
"198 473 CURVE SMOOTH",
"121 473 OFFCURVE",
"63 378 OFFCURVE",
"64 319 CURVE SMOOTH",
"65 224 OFFCURVE",
"165 182 OFFCURVE",
"220 182 CURVE SMOOTH",
"257 182 OFFCURVE",
"305 211 OFFCURVE",
"319 211 CURVE SMOOTH",
"333 211 OFFCURVE",
"352 183 OFFCURVE",
"352 167 CURVE SMOOTH",
"352 138 OFFCURVE",
"202 113 OFFCURVE",
"157 113 CURVE SMOOTH",
"128 113 OFFCURVE",
"120 139 OFFCURVE",
"102 139 CURVE SMOOTH",
"81 139 OFFCURVE",
"49 59 OFFCURVE",
"49 34 CURVE SMOOTH",
"49 12 OFFCURVE",
"73 21 OFFCURVE",
"95 -7 CURVE SMOOTH",
"173 -105 OFFCURVE",
"271 -177 OFFCURVE",
"308 -177 CURVE SMOOTH",
"340 -177 OFFCURVE",
"396 -105 OFFCURVE",
"396 -63 CURVE SMOOTH",
"396 -48 OFFCURVE",
"392 -15 OFFCURVE",
"382 -15 CURVE SMOOTH",
"373 -15 OFFCURVE",
"362 -47 OFFCURVE",
"353 -47 CURVE SMOOTH",
"333 -47 OFFCURVE",
"252 -5 OFFCURVE",
"232 13 CURVE",
"324 13 OFFCURVE",
"492 70 OFFCURVE",
"492 163 CURVE SMOOTH",
"492 227 OFFCURVE",
"440 316 OFFCURVE",
"358 316 CURVE SMOOTH",
"303 316 OFFCURVE",
"262 291 OFFCURVE",
"239 291 CURVE SMOOTH",
"224 291 OFFCURVE",
"204 309 OFFCURVE",
"204 322 CURVE SMOOTH",
"204 336 OFFCURVE",
"224 363 OFFCURVE",
"243 363 CURVE SMOOTH",
"271 363 OFFCURVE",
"331 363 OFFCURVE",
"362 363 CURVE SMOOTH",
"379 363 OFFCURVE",
"389 374 OFFCURVE",
"392 400 CURVE SMOOTH"
);
},
{
closed = 1;
nodes = (
"425 208 OFFCURVE",
"471 162 OFFCURVE",
"579 159 CURVE",
"590 284 LINE",
"529 250 OFFCURVE",
"461 273 OFFCURVE",
"423 295 CURVE",
"376 246 LINE"
);
}
);
width = 813;
},
{
background = {
paths = (
{
closed = 1;
nodes = (
"606 547 LINE",
"583 301 OFFCURVE",
"566 123 OFFCURVE",
"559 69 CURVE SMOOTH",
"554 33 OFFCURVE",
"542 -15 OFFCURVE",
"578 -15 CURVE SMOOTH",
"641 -15 OFFCURVE",
"705 100 OFFCURVE",
"710 180 CURVE SMOOTH",
"722 367 OFFCURVE",
"743 544 OFFCURVE",
"743 544 CURVE"
);
},
{
closed = 1;
nodes = (
"0 629 LINE",
"-32 629 OFFCURVE",
"-42 631 OFFCURVE",
"-49 610 CURVE SMOOTH",
"-74 532 LINE SMOOTH",
"-79 517 OFFCURVE",
"-72 510 OFFCURVE",
"-53 510 CURVE SMOOTH",
"813 510 LINE",
"845 510 OFFCURVE",
"855 508 OFFCURVE",
"862 529 CURVE SMOOTH",
"887 607 LINE SMOOTH",
"892 622 OFFCURVE",
"885 629 OFFCURVE",
"866 629 CURVE SMOOTH"
);
},
{
closed = 1;
nodes = (
"345 541 LINE",
"343 520 OFFCURVE",
"336 446 OFFCURVE",
"332 400 CURVE SMOOTH",
"329 369 OFFCURVE",
"327 363 OFFCURVE",
"348 363 CURVE SMOOTH",
"375 363 OFFCURVE",
"328 363 OFFCURVE",
"373 363 CURVE SMOOTH",
"419 363 OFFCURVE",
"468 416 OFFCURVE",
"472 451 CURVE SMOOTH",
"476 483 OFFCURVE",
"479 514 OFFCURVE",
"482 538 CURVE"
);
},
{
closed = 1;
nodes = (
"401 479 LINE",
"310 471 OFFCURVE",
"240 473 OFFCURVE",
"198 473 CURVE SMOOTH",
"121 473 OFFCURVE",
"63 378 OFFCURVE",
"64 319 CURVE SMOOTH",
"65 224 OFFCURVE",
"165 182 OFFCURVE",
"220 182 CURVE SMOOTH",
"257 182 OFFCURVE",
"305 211 OFFCURVE",
"319 211 CURVE SMOOTH",
"333 211 OFFCURVE",
"352 183 OFFCURVE",
"352 167 CURVE SMOOTH",
"352 138 OFFCURVE",
"202 113 OFFCURVE",
"157 113 CURVE SMOOTH",
"128 113 OFFCURVE",
"120 139 OFFCURVE",
"102 139 CURVE SMOOTH",
"81 139 OFFCURVE",
"49 59 OFFCURVE",
"49 34 CURVE SMOOTH",
"49 12 OFFCURVE",
"73 21 OFFCURVE",
"95 -7 CURVE SMOOTH",
"173 -105 OFFCURVE",
"271 -177 OFFCURVE",
"308 -177 CURVE SMOOTH",
"340 -177 OFFCURVE",
"396 -105 OFFCURVE",
"396 -63 CURVE SMOOTH",
"396 -48 OFFCURVE",
"392 -15 OFFCURVE",
"382 -15 CURVE SMOOTH",
"373 -15 OFFCURVE",
"362 -47 OFFCURVE",
"353 -47 CURVE SMOOTH",
"333 -47 OFFCURVE",
"252 -5 OFFCURVE",
"232 13 CURVE",
"324 13 OFFCURVE",
"492 70 OFFCURVE",
"492 163 CURVE SMOOTH",
"492 227 OFFCURVE",
"440 316 OFFCURVE",
"358 316 CURVE SMOOTH",
"303 316 OFFCURVE",
"262 291 OFFCURVE",
"239 291 CURVE SMOOTH",
"224 291 OFFCURVE",
"204 309 OFFCURVE",
"204 322 CURVE SMOOTH",
"204 336 OFFCURVE",
"224 363 OFFCURVE",
"243 363 CURVE SMOOTH",
"271 363 OFFCURVE",
"331 363 OFFCURVE",
"362 363 CURVE SMOOTH",
"379 363 OFFCURVE",
"389 374 OFFCURVE",
"392 400 CURVE SMOOTH"
);
},
{
closed = 1;
nodes = (
"425 208 OFFCURVE",
"471 162 OFFCURVE",
"579 159 CURVE",
"590 284 LINE",
"529 250 OFFCURVE",
"461 273 OFFCURVE",
"423 295 CURVE",
"376 246 LINE"
);
}
);
};
layerId = "B0B60A8F-2DEB-4A58-A43B-60A0DADABD8F";
paths = (
{
closed = 1;
nodes = (
"616 547 LINE",
"616 547 OFFCURVE",
"582 168 OFFCURVE",
"568 62 CURVE SMOOTH",
"562 20 OFFCURVE",
"557 -15 OFFCURVE",
"588 -15 CURVE SMOOTH",
"629 -15 OFFCURVE",
"691 113 OFFCURVE",
"695 180 CURVE SMOOTH",
"706 367 OFFCURVE",
"729 544 OFFCURVE",
"729 544 CURVE"
);
},
{
closed = 1;
nodes = (
"0 606 LINE",
"-29 606 OFFCURVE",
"-42 609 OFFCURVE",
"-49 587 CURVE SMOOTH",
"-65 534 LINE SMOOTH",
"-70 519 OFFCURVE",
"-63 512 OFFCURVE",
"-44 512 CURVE SMOOTH",
"793 512 LINE",
"822 512 OFFCURVE",
"835 509 OFFCURVE",
"842 531 CURVE SMOOTH",
"859 584 LINE SMOOTH",
"864 599 OFFCURVE",
"857 606 OFFCURVE",
"838 606 CURVE SMOOTH"
);
},
{
closed = 1;
nodes = (
"355 541 LINE",
"353 520 OFFCURVE",
"346 456 OFFCURVE",
"342 410 CURVE SMOOTH",
"339 379 OFFCURVE",
"337 373 OFFCURVE",
"358 373 CURVE SMOOTH",
"369 373 OFFCURVE",
"318 373 OFFCURVE",
"363 373 CURVE SMOOTH",
"409 373 OFFCURVE",
"452 416 OFFCURVE",
"456 451 CURVE SMOOTH",
"460 483 OFFCURVE",
"463 514 OFFCURVE",
"466 538 CURVE"
);
},
{
closed = 1;
nodes = (
"401 469 LINE",
"310 461 OFFCURVE",
"240 463 OFFCURVE",
"204 463 CURVE SMOOTH",
"138 463 OFFCURVE",
"75 378 OFFCURVE",
"76 319 CURVE SMOOTH",
"77 242 OFFCURVE",
"164 194 OFFCURVE",
"219 194 CURVE SMOOTH",
"256 194 OFFCURVE",
"306 223 OFFCURVE",
"320 223 CURVE SMOOTH",
"345 223 OFFCURVE",
"365 183 OFFCURVE",
"365 163 CURVE SMOOTH",
"365 125 OFFCURVE",
"202 101 OFFCURVE",
"158 101 CURVE SMOOTH",
"129 101 OFFCURVE",
"118 125 OFFCURVE",
"104 125 CURVE SMOOTH",
"88 125 OFFCURVE",
"61 59 OFFCURVE",
"61 38 CURVE SMOOTH",
"61 19 OFFCURVE",
"76 32 OFFCURVE",
"98 4 CURVE SMOOTH",
"176 -96 OFFCURVE",
"277 -165 OFFCURVE",
"308 -165 CURVE SMOOTH",
"332 -165 OFFCURVE",
"386 -97 OFFCURVE",
"386 -63 CURVE SMOOTH",
"386 -48 OFFCURVE",
"385 -28 OFFCURVE",
"375 -28 CURVE SMOOTH",
"366 -28 OFFCURVE",
"356 -60 OFFCURVE",
"347 -60 CURVE SMOOTH",
"327 -60 OFFCURVE",
"242 -14 OFFCURVE",
"210 21 CURVE",
"302 21 OFFCURVE",
"482 82 OFFCURVE",
"482 163 CURVE SMOOTH",
"482 226 OFFCURVE",
"421 306 OFFCURVE",
"358 306 CURVE SMOOTH",
"308 306 OFFCURVE",
"262 279 OFFCURVE",
"239 279 CURVE SMOOTH",
"224 279 OFFCURVE",
"192 299 OFFCURVE",
"192 322 CURVE SMOOTH",
"192 349 OFFCURVE",
"218 373 OFFCURVE",
"238 373 CURVE SMOOTH",
"271 373 OFFCURVE",
"331 373 OFFCURVE",
"362 373 CURVE SMOOTH",
"379 373 OFFCURVE",
"388 384 OFFCURVE",
"392 410 CURVE SMOOTH"
);
},
{
closed = 1;
nodes = (
"429 207 OFFCURVE",
"480 162 OFFCURVE",
"588 159 CURVE",
"600 268 LINE",
"539 234 OFFCURVE",
"456 261 OFFCURVE",
"418 283 CURVE",
"386 243 LINE"
);
}
);
width = 793;
}
);
unicode = 091D;
},
{
glyphname = "nya-deva";
lastChange = "2020-11-26 13:48:36 +0000";
layers = (
{
background = {
paths = (
{
closed = 1;
nodes = (
"786 538 OFFCURVE",
"765 361 OFFCURVE",
"753 174 CURVE SMOOTH",
"748 94 OFFCURVE",
"684 -21 OFFCURVE",
"621 -21 CURVE SMOOTH",
"585 -21 OFFCURVE",
"597 27 OFFCURVE",
"602 63 CURVE SMOOTH",
"609 117 OFFCURVE",
"626 295 OFFCURVE",
"649 541 CURVE",
"786 538 LINE"
);
},
{
closed = 1;
nodes = (
"897 630 OFFCURVE",
"906 623 OFFCURVE",
"901 608 CURVE SMOOTH",
"876 530 LINE SMOOTH",
"869 509 OFFCURVE",
"859 511 OFFCURVE",
"842 511 CURVE",
"595 511 LINE SMOOTH",
"576 511 OFFCURVE",
"569 518 OFFCURVE",
"574 533 CURVE SMOOTH",
"599 611 LINE SMOOTH",
"606 632 OFFCURVE",
"616 630 OFFCURVE",
"648 630 CURVE",
"878 630 LINE SMOOTH"
);
},
{
closed = 1;
nodes = (
"472 395 LINE",
"510 373 OFFCURVE",
"578 350 OFFCURVE",
"639 384 CURVE",
"628 259 LINE",
"520 262 OFFCURVE",
"474 308 OFFCURVE",
"425 346 CURVE"
);
},
{
closed = 1;
nodes = (
"296 502 OFFCURVE",
"291 507 OFFCURVE",
"291 516 CURVE SMOOTH",
"291 541 OFFCURVE",
"370 608 OFFCURVE",
"426 608 CURVE SMOOTH",
"480 608 OFFCURVE",
"538 554 OFFCURVE",
"538 492 CURVE SMOOTH",
"538 419 OFFCURVE",
"457 361 OFFCURVE",
"425 346 CURVE",
"477 328 OFFCURVE",
"522 284 OFFCURVE",
"522 206 CURVE SMOOTH",
"522 121 OFFCURVE",
"441 17 OFFCURVE",
"262 17 CURVE SMOOTH",
"141 17 OFFCURVE",
"45 83 OFFCURVE",
"45 180 CURVE SMOOTH",
"45 278 OFFCURVE",
"149 337 OFFCURVE",
"182 337 CURVE SMOOTH",
"211 337 OFFCURVE",
"169 279 OFFCURVE",
"169 210 CURVE SMOOTH",
"169 168 OFFCURVE",
"175 119 OFFCURVE",
"253 119 CURVE SMOOTH",
"324 119 OFFCURVE",
"380 155 OFFCURVE",
"380 226 CURVE SMOOTH",
"380 269 OFFCURVE",
"365 290 OFFCURVE",
"342 290 CURVE SMOOTH",
"320 290 OFFCURVE",
"305 286 OFFCURVE",
"288 286 CURVE SMOOTH",
"269 286 OFFCURVE",
"264 298 OFFCURVE",
"264 320 CURVE SMOOTH",
"264 373 OFFCURVE",
"268 387 OFFCURVE",
"299 387 CURVE SMOOTH",
"346 387 OFFCURVE",
"403 384 OFFCURVE",
"403 440 CURVE SMOOTH",
"403 477 OFFCURVE",
"400 515 OFFCURVE",
"373 515 CURVE SMOOTH",
"359 515 OFFCURVE",
"320 502 OFFCURVE",
"307 502 CURVE SMOOTH"
);
}
);
};
layerId = "555B79C6-6D98-46E7-9307-77C37975E414";
paths = (
{
closed = 1;
nodes = (
"0 629 LINE",
"-15 629 OFFCURVE",
"-25 627 OFFCURVE",
"-30 610 CURVE SMOOTH",
"-55 532 LINE SMOOTH",
"-60 517 OFFCURVE",
"-53 510 OFFCURVE",
"-34 510 CURVE SMOOTH",
"869 510 LINE",
"901 510 OFFCURVE",
"911 508 OFFCURVE",
"918 529 CURVE SMOOTH",
"943 607 LINE SMOOTH",
"948 622 OFFCURVE",
"941 629 OFFCURVE",
"922 629 CURVE SMOOTH"
);
},
{
closed = 1;
nodes = (
"667 541 LINE",
"644 295 OFFCURVE",
"627 117 OFFCURVE",
"620 63 CURVE SMOOTH",
"615 27 OFFCURVE",
"606 -23 OFFCURVE",
"645 -23 CURVE SMOOTH",
"702 -23 OFFCURVE",
"766 95 OFFCURVE",
"771 174 CURVE SMOOTH",
"783 361 OFFCURVE",
"791 396 OFFCURVE",
"804 538 CURVE"
);
},
{
closed = 1;
nodes = (
"40 112 OFFCURVE",
"167 48 OFFCURVE",
"282 48 CURVE SMOOTH",
"421 48 OFFCURVE",
"566 139 OFFCURVE",
"566 262 CURVE SMOOTH",
"566 348 OFFCURVE",
"494 453 OFFCURVE",
"442 453 CURVE SMOOTH",
"397 453 OFFCURVE",
"313 373 OFFCURVE",
"313 325 CURVE SMOOTH",
"313 315 OFFCURVE",
"316 309 OFFCURVE",
"322 309 CURVE SMOOTH",
"333 309 OFFCURVE",
"345 325 OFFCURVE",
"354 325 CURVE SMOOTH",
"372 325 OFFCURVE",
"417 289 OFFCURVE",
"416 252 CURVE SMOOTH",
"415 205 OFFCURVE",
"335 161 OFFCURVE",
"276 161 CURVE SMOOTH",
"227 161 OFFCURVE",
"166 199 OFFCURVE",
"166 297 CURVE SMOOTH",
"166 361 OFFCURVE",
"188 423 OFFCURVE",
"157 423 CURVE SMOOTH",
"127 423 OFFCURVE",
"40 345 OFFCURVE",
"40 234 CURVE SMOOTH"
);
},
{
closed = 1;
nodes = (
"549 198 OFFCURVE",
"579 171 OFFCURVE",
"647 169 CURVE",
"658 294 LINE",
"621 276 OFFCURVE",
"584 279 OFFCURVE",
"553 293 CURVE",
"529 221 LINE"
);
}
);
width = 869;
},
{
background = {
paths = (
{
closed = 1;
nodes = (
"0 629 LINE",
"-15 629 OFFCURVE",
"-25 627 OFFCURVE",
"-30 610 CURVE SMOOTH",
"-55 532 LINE SMOOTH",
"-60 517 OFFCURVE",
"-53 510 OFFCURVE",
"-34 510 CURVE SMOOTH",
"869 510 LINE",
"901 510 OFFCURVE",
"911 508 OFFCURVE",
"918 529 CURVE SMOOTH",
"943 607 LINE SMOOTH",
"948 622 OFFCURVE",
"941 629 OFFCURVE",
"922 629 CURVE SMOOTH"
);
},
{
closed = 1;
nodes = (
"667 541 LINE",
"644 295 OFFCURVE",
"627 117 OFFCURVE",
"620 63 CURVE SMOOTH",
"615 27 OFFCURVE",
"606 -23 OFFCURVE",
"645 -23 CURVE SMOOTH",
"702 -23 OFFCURVE",
"766 95 OFFCURVE",
"771 174 CURVE SMOOTH",
"783 361 OFFCURVE",
"791 396 OFFCURVE",
"804 538 CURVE"
);
},
{
closed = 1;
nodes = (
"40 112 OFFCURVE",
"167 48 OFFCURVE",
"282 48 CURVE SMOOTH",
"421 48 OFFCURVE",
"566 139 OFFCURVE",
"566 262 CURVE SMOOTH",
"566 348 OFFCURVE",
"494 453 OFFCURVE",
"442 453 CURVE SMOOTH",
"397 453 OFFCURVE",
"313 373 OFFCURVE",
"313 325 CURVE SMOOTH",
"313 315 OFFCURVE",
"316 309 OFFCURVE",
"322 309 CURVE SMOOTH",
"333 309 OFFCURVE",
"345 325 OFFCURVE",
"354 325 CURVE SMOOTH",
"372 325 OFFCURVE",
"417 289 OFFCURVE",
"416 252 CURVE SMOOTH",
"415 205 OFFCURVE",
"335 161 OFFCURVE",
"276 161 CURVE SMOOTH",
"227 161 OFFCURVE",
"166 199 OFFCURVE",
"166 297 CURVE SMOOTH",
"166 361 OFFCURVE",
"188 423 OFFCURVE",
"157 423 CURVE SMOOTH",
"127 423 OFFCURVE",
"40 345 OFFCURVE",
"40 234 CURVE SMOOTH"
);
},
{
closed = 1;
nodes = (
"549 198 OFFCURVE",
"579 171 OFFCURVE",
"647 169 CURVE",
"658 294 LINE",
"621 276 OFFCURVE",
"584 279 OFFCURVE",
"553 293 CURVE",
"529 221 LINE"
);
}
);
};
layerId = "B0B60A8F-2DEB-4A58-A43B-60A0DADABD8F";
paths = (
{
closed = 1;
nodes = (
"0 606 LINE",
"-19 606 OFFCURVE",
"-32 609 OFFCURVE",
"-39 587 CURVE SMOOTH",
"-55 534 LINE SMOOTH",
"-60 519 OFFCURVE",
"-53 512 OFFCURVE",
"-34 512 CURVE SMOOTH",
"844 512 LINE",
"873 512 OFFCURVE",
"886 509 OFFCURVE",
"893 531 CURVE SMOOTH",
"910 584 LINE SMOOTH",
"915 599 OFFCURVE",
"908 606 OFFCURVE",
"889 606 CURVE SMOOTH"
);
},
{
closed = 1;
nodes = (
"680 541 LINE",
"680 541 OFFCURVE",
"646 162 OFFCURVE",
"632 56 CURVE SMOOTH",
"626 14 OFFCURVE",
"621 -21 OFFCURVE",
"652 -21 CURVE SMOOTH",
"693 -21 OFFCURVE",
"755 107 OFFCURVE",
"759 174 CURVE SMOOTH",
"770 361 OFFCURVE",
"793 538 OFFCURVE",
"793 538 CURVE"
);
},
{
closed = 1;
nodes = (
"53 130 OFFCURVE",
"167 60 OFFCURVE",
"274 60 CURVE SMOOTH",
"421 60 OFFCURVE",
"556 160 OFFCURVE",
"556 257 CURVE SMOOTH",
"556 345 OFFCURVE",
"475 439 OFFCURVE",
"433 439 CURVE SMOOTH",
"398 439 OFFCURVE",
"326 375 OFFCURVE",
"326 338 CURVE SMOOTH",
"326 330 OFFCURVE",
"329 322 OFFCURVE",
"335 322 CURVE SMOOTH",
"343 322 OFFCURVE",
"357 337 OFFCURVE",
"366 337 CURVE SMOOTH",
"384 337 OFFCURVE",
"430 298 OFFCURVE",
"429 252 CURVE SMOOTH",
"428 205 OFFCURVE",
"362 151 OFFCURVE",
"276 151 CURVE SMOOTH",
"208 151 OFFCURVE",
"156 199 OFFCURVE",
"156 297 CURVE SMOOTH",
"156 347 OFFCURVE",
"175 413 OFFCURVE",
"154 413 CURVE SMOOTH",
"135 413 OFFCURVE",
"53 331 OFFCURVE",
"53 237 CURVE SMOOTH"
);
},
{
closed = 1;
nodes = (
"551 201 OFFCURVE",
"590 177 OFFCURVE",
"658 175 CURVE",
"669 288 LINE",
"629 262 OFFCURVE",
"576 268 OFFCURVE",
"545 287 CURVE",
"525 233 LINE"
);
}
);
width = 844;
}
);
unicode = 091E;
},
{
glyphname = "tta-deva";
lastChange = "2020-11-23 13:52:04 +0000";
layers = (
{
guideLines = (
{
position = "{833, 473}";
}
);
layerId = "555B79C6-6D98-46E7-9307-77C37975E414";
paths = (
{
closed = 1;
nodes = (
"471 -21 OFFCURVE",
"556 115 OFFCURVE",
"556 153 CURVE SMOOTH",
"556 170 OFFCURVE",
"544 172 OFFCURVE",
"537 172 CURVE SMOOTH",
"514 172 OFFCURVE",
"442 124 OFFCURVE",
"330 124 CURVE SMOOTH",
"253 124 OFFCURVE",
"186 140 OFFCURVE",
"186 213 CURVE SMOOTH",
"186 260 OFFCURVE",
"213 317 OFFCURVE",
"271 317 CURVE SMOOTH",
"411 317 OFFCURVE",
"388 316 OFFCURVE",
"416 316 CURVE",
"468 440 LINE",
"429 439 OFFCURVE",
"371 441 OFFCURVE",
"311 441 CURVE SMOOTH",
"185 441 OFFCURVE",
"52 323 OFFCURVE",
"52 183 CURVE SMOOTH",
"52 68 OFFCURVE",
"151 -21 OFFCURVE",
"298 -21 CURVE SMOOTH"
);
},
{
closed = 1;
nodes = (
"0 629 LINE",
"-15 629 OFFCURVE",
"-25 627 OFFCURVE",
"-30 610 CURVE SMOOTH",
"-55 532 LINE SMOOTH",
"-60 517 OFFCURVE",
"-53 510 OFFCURVE",
"-34 510 CURVE SMOOTH",
"589 510 LINE",
"621 510 OFFCURVE",
"631 508 OFFCURVE",
"638 529 CURVE SMOOTH",
"663 607 LINE SMOOTH",
"668 622 OFFCURVE",
"661 629 OFFCURVE",
"642 629 CURVE SMOOTH"
);
},
{
closed = 1;
nodes = (
"398 547 LINE",
"393 491 OFFCURVE",
"383 389 OFFCURVE",
"380 358 CURVE SMOOTH",
"377 326 OFFCURVE",
"387 316 OFFCURVE",
"416 316 CURVE SMOOTH",
"461 316 OFFCURVE",
"517 373 OFFCURVE",
"522 419 CURVE SMOOTH",
"525 450 OFFCURVE",
"530 500 OFFCURVE",
"535 544 CURVE"
);
}
);
width = 589;
},
{
background = {
paths = (
{
closed = 1;
nodes = (
"471 -21 OFFCURVE",
"556 115 OFFCURVE",
"556 153 CURVE SMOOTH",
"556 170 OFFCURVE",
"544 172 OFFCURVE",
"537 172 CURVE SMOOTH",
"514 172 OFFCURVE",
"442 124 OFFCURVE",
"330 124 CURVE SMOOTH",
"253 124 OFFCURVE",
"186 140 OFFCURVE",
"186 213 CURVE SMOOTH",
"186 260 OFFCURVE",
"213 317 OFFCURVE",
"271 317 CURVE SMOOTH",
"411 317 OFFCURVE",
"388 316 OFFCURVE",
"416 316 CURVE",
"468 440 LINE",
"429 439 OFFCURVE",
"371 441 OFFCURVE",
"311 441 CURVE SMOOTH",
"185 441 OFFCURVE",
"52 323 OFFCURVE",
"52 183 CURVE SMOOTH",
"52 68 OFFCURVE",
"151 -21 OFFCURVE",
"298 -21 CURVE SMOOTH"
);
},
{
closed = 1;
nodes = (
"0 629 LINE",
"-15 629 OFFCURVE",
"-25 627 OFFCURVE",
"-30 610 CURVE SMOOTH",
"-55 532 LINE SMOOTH",
"-60 517 OFFCURVE",
"-53 510 OFFCURVE",
"-34 510 CURVE SMOOTH",
"589 510 LINE",
"621 510 OFFCURVE",
"631 508 OFFCURVE",
"638 529 CURVE SMOOTH",
"663 607 LINE SMOOTH",
"668 622 OFFCURVE",
"661 629 OFFCURVE",
"642 629 CURVE SMOOTH"
);
},
{
closed = 1;
nodes = (
"398 547 LINE",
"393 491 OFFCURVE",
"383 389 OFFCURVE",
"380 358 CURVE SMOOTH",
"377 326 OFFCURVE",
"387 316 OFFCURVE",
"416 316 CURVE SMOOTH",
"461 316 OFFCURVE",
"517 373 OFFCURVE",
"522 419 CURVE SMOOTH",
"525 450 OFFCURVE",
"530 500 OFFCURVE",
"535 544 CURVE"
);
}
);
};
layerId = "B0B60A8F-2DEB-4A58-A43B-60A0DADABD8F";
paths = (
{
closed = 1;
nodes = (
"0 606 LINE",
"-19 606 OFFCURVE",
"-32 609 OFFCURVE",
"-39 587 CURVE SMOOTH",
"-55 534 LINE SMOOTH",
"-60 519 OFFCURVE",
"-53 512 OFFCURVE",
"-34 512 CURVE SMOOTH",
"600 512 LINE",
"629 512 OFFCURVE",
"642 509 OFFCURVE",
"649 531 CURVE SMOOTH",
"666 584 LINE SMOOTH",
"671 599 OFFCURVE",
"664 606 OFFCURVE",
"645 606 CURVE SMOOTH"
);
},
{
closed = 1;
nodes = (
"439 -16 OFFCURVE",
"532 86 OFFCURVE",
"532 126 CURVE SMOOTH",
"532 138 OFFCURVE",
"525 143 OFFCURVE",
"516 143 CURVE SMOOTH",
"493 143 OFFCURVE",
"432 99 OFFCURVE",
"322 99 CURVE SMOOTH",
"239 99 OFFCURVE",
"166 127 OFFCURVE",
"166 202 CURVE SMOOTH",
"166 279 OFFCURVE",
"210 337 OFFCURVE",
"271 337 CURVE SMOOTH",
"299 337 OFFCURVE",
"378 336 OFFCURVE",
"406 336 CURVE",
"468 440 LINE",
"429 439 OFFCURVE",
"371 441 OFFCURVE",
"311 441 CURVE SMOOTH",
"185 441 OFFCURVE",
"52 323 OFFCURVE",
"52 183 CURVE SMOOTH",
"52 68 OFFCURVE",
"149 -16 OFFCURVE",
"292 -16 CURVE SMOOTH"
);
},
{
closed = 1;
nodes = (
"398 547 LINE",
"393 491 OFFCURVE",
"384 409 OFFCURVE",
"380 378 CURVE SMOOTH",
"378 361 OFFCURVE",
"377 336 OFFCURVE",
"406 336 CURVE SMOOTH",
"433 336 OFFCURVE",
"495 373 OFFCURVE",
"500 419 CURVE SMOOTH",
"503 450 OFFCURVE",
"508 500 OFFCURVE",
"513 544 CURVE"
);
}
);
width = 600;
}
);
unicode = 091F;
},
{
glyphname = "ttha-deva";
lastChange = "2020-11-23 13:53:08 +0000";
layers = (
{
background = {
paths = (
{
closed = 1;
nodes = (
"471 -21 OFFCURVE",
"556 115 OFFCURVE",
"556 153 CURVE SMOOTH",
"556 170 OFFCURVE",
"544 172 OFFCURVE",
"537 172 CURVE SMOOTH",
"514 172 OFFCURVE",
"442 124 OFFCURVE",
"330 124 CURVE SMOOTH",
"253 124 OFFCURVE",
"186 140 OFFCURVE",
"186 213 CURVE SMOOTH",
"186 260 OFFCURVE",
"213 317 OFFCURVE",
"271 317 CURVE SMOOTH",
"411 317 OFFCURVE",
"388 316 OFFCURVE",
"416 316 CURVE",
"468 440 LINE",
"429 439 OFFCURVE",
"371 441 OFFCURVE",
"311 441 CURVE SMOOTH",
"185 441 OFFCURVE",
"52 323 OFFCURVE",
"52 183 CURVE SMOOTH",
"52 68 OFFCURVE",
"151 -21 OFFCURVE",
"298 -21 CURVE SMOOTH"
);
}
);
};
layerId = "555B79C6-6D98-46E7-9307-77C37975E414";
paths = (
{
closed = 1;
nodes = (
"0 629 LINE",
"-15 629 OFFCURVE",
"-25 627 OFFCURVE",
"-30 610 CURVE SMOOTH",
"-55 532 LINE SMOOTH",
"-60 517 OFFCURVE",
"-53 510 OFFCURVE",
"-34 510 CURVE SMOOTH",
"679 510 LINE",
"711 510 OFFCURVE",
"721 508 OFFCURVE",
"728 529 CURVE SMOOTH",
"753 607 LINE SMOOTH",
"758 622 OFFCURVE",
"751 629 OFFCURVE",
"732 629 CURVE SMOOTH"
);
},
{
closed = 1;
nodes = (
"333 547 LINE",
"328 491 OFFCURVE",
"318 389 OFFCURVE",
"315 358 CURVE SMOOTH",
"312 326 OFFCURVE",
"322 316 OFFCURVE",
"351 316 CURVE SMOOTH",
"396 316 OFFCURVE",
"452 373 OFFCURVE",
"457 419 CURVE SMOOTH",
"460 450 OFFCURVE",
"465 500 OFFCURVE",
"470 544 CURVE"
);
},
{
closed = 1;
nodes = (
"52 68 OFFCURVE",
"145 -21 OFFCURVE",
"298 -21 CURVE SMOOTH",
"493 -21 OFFCURVE",
"631 145 OFFCURVE",
"631 248 CURVE SMOOTH",
"631 338 OFFCURVE",
"567 462 OFFCURVE",
"510 462 CURVE SMOOTH",
"488 462 OFFCURVE",
"470 436 OFFCURVE",
"457 419 CURVE",
"457 406 OFFCURVE",
"385 329 OFFCURVE",
"390 329 CURVE SMOOTH",
"394 329 OFFCURVE",
"406 341 OFFCURVE",
"413 341 CURVE SMOOTH",
"432 341 OFFCURVE",
"500 272 OFFCURVE",
"500 230 CURVE SMOOTH",
"500 183 OFFCURVE",
"423 122 OFFCURVE",
"299 122 CURVE SMOOTH",
"242 122 OFFCURVE",
"186 136 OFFCURVE",
"186 198 CURVE SMOOTH",
"186 260 OFFCURVE",
"213 317 OFFCURVE",
"271 317 CURVE SMOOTH",
"346 317 OFFCURVE",
"323 316 OFFCURVE",
"351 316 CURVE",
"403 440 LINE",
"364 439 OFFCURVE",
"332 441 OFFCURVE",
"311 441 CURVE SMOOTH",
"185 441 OFFCURVE",
"52 323 OFFCURVE",
"52 183 CURVE SMOOTH"
);
}
);
width = 679;
},
{
background = {
paths = (
{
closed = 1;
nodes = (
"333 547 LINE",
"328 491 OFFCURVE",
"318 389 OFFCURVE",
"315 358 CURVE SMOOTH",
"312 326 OFFCURVE",
"322 316 OFFCURVE",
"351 316 CURVE SMOOTH",
"396 316 OFFCURVE",
"452 373 OFFCURVE",
"457 419 CURVE SMOOTH",
"460 450 OFFCURVE",
"465 500 OFFCURVE",
"470 544 CURVE"
);
},
{
closed = 1;
nodes = (
"52 68 OFFCURVE",
"145 -21 OFFCURVE",
"298 -21 CURVE SMOOTH",
"493 -21 OFFCURVE",
"631 145 OFFCURVE",
"631 248 CURVE SMOOTH",
"631 338 OFFCURVE",
"567 462 OFFCURVE",
"510 462 CURVE SMOOTH",
"488 462 OFFCURVE",
"470 436 OFFCURVE",
"457 419 CURVE",
"457 406 OFFCURVE",
"385 329 OFFCURVE",
"390 329 CURVE SMOOTH",
"394 329 OFFCURVE",
"406 341 OFFCURVE",
"413 341 CURVE SMOOTH",
"432 341 OFFCURVE",
"500 272 OFFCURVE",
"500 230 CURVE SMOOTH",
"500 183 OFFCURVE",
"423 122 OFFCURVE",
"299 122 CURVE SMOOTH",
"242 122 OFFCURVE",
"186 136 OFFCURVE",
"186 198 CURVE SMOOTH",
"186 260 OFFCURVE",
"213 317 OFFCURVE",
"271 317 CURVE SMOOTH",
"346 317 OFFCURVE",
"323 316 OFFCURVE",
"351 316 CURVE",
"403 440 LINE",
"364 439 OFFCURVE",
"332 441 OFFCURVE",
"311 441 CURVE SMOOTH",
"185 441 OFFCURVE",
"52 323 OFFCURVE",
"52 183 CURVE SMOOTH"
);
}
);
};
layerId = "B0B60A8F-2DEB-4A58-A43B-60A0DADABD8F";
paths = (
{
closed = 1;
nodes = (
"0 606 LINE",
"-29 606 OFFCURVE",
"-42 609 OFFCURVE",
"-49 587 CURVE SMOOTH",
"-65 534 LINE SMOOTH",
"-70 519 OFFCURVE",
"-63 512 OFFCURVE",
"-44 512 CURVE SMOOTH",
"670 512 LINE",
"699 512 OFFCURVE",
"712 509 OFFCURVE",
"719 531 CURVE SMOOTH",
"736 584 LINE SMOOTH",
"741 599 OFFCURVE",
"734 606 OFFCURVE",
"715 606 CURVE SMOOTH"
);
},
{
closed = 1;
nodes = (
"52 68 OFFCURVE",
"145 -16 OFFCURVE",
"298 -16 CURVE SMOOTH",
"493 -16 OFFCURVE",
"626 145 OFFCURVE",
"626 248 CURVE SMOOTH",
"626 338 OFFCURVE",
"537 457 OFFCURVE",
"497 457 CURVE SMOOTH",
"477 457 OFFCURVE",
"459 435 OFFCURVE",
"445 419 CURVE",
"445 406 OFFCURVE",
"383 349 OFFCURVE",
"388 349 CURVE SMOOTH",
"392 349 OFFCURVE",
"412 365 OFFCURVE",
"417 365 CURVE SMOOTH",
"443 365 OFFCURVE",
"520 282 OFFCURVE",
"520 230 CURVE SMOOTH",
"520 166 OFFCURVE",
"436 96 OFFCURVE",
"290 96 CURVE SMOOTH",
"235 96 OFFCURVE",
"166 118 OFFCURVE",
"166 194 CURVE SMOOTH",
"166 260 OFFCURVE",
"199 337 OFFCURVE",
"271 337 CURVE SMOOTH",
"346 337 OFFCURVE",
"323 336 OFFCURVE",
"351 336 CURVE",
"403 440 LINE",
"364 439 OFFCURVE",
"332 441 OFFCURVE",
"311 441 CURVE SMOOTH",
"185 441 OFFCURVE",
"52 323 OFFCURVE",
"52 183 CURVE SMOOTH"
);
},
{
closed = 1;
nodes = (
"343 547 LINE",
"338 491 OFFCURVE",
"329 409 OFFCURVE",
"325 378 CURVE SMOOTH",
"323 361 OFFCURVE",
"322 336 OFFCURVE",
"351 336 CURVE SMOOTH",
"378 336 OFFCURVE",
"440 373 OFFCURVE",
"445 419 CURVE SMOOTH",
"448 450 OFFCURVE",
"453 500 OFFCURVE",
"458 544 CURVE"
);
}
);
width = 670;
}
);
unicode = 0920;
},
{
glyphname = "dda-deva";
lastChange = "2020-11-26 12:56:34 +0000";
layers = (
{
layerId = "555B79C6-6D98-46E7-9307-77C37975E414";
paths = (
{
closed = 1;
nodes = (
"0 629 LINE",
"-32 629 OFFCURVE",
"-42 631 OFFCURVE",
"-49 610 CURVE SMOOTH",
"-74 532 LINE SMOOTH",
"-79 517 OFFCURVE",
"-72 510 OFFCURVE",
"-53 510 CURVE SMOOTH",
"635 510 LINE",
"667 510 OFFCURVE",
"677 508 OFFCURVE",
"684 529 CURVE SMOOTH",
"709 607 LINE SMOOTH",
"714 622 OFFCURVE",
"707 629 OFFCURVE",
"688 629 CURVE SMOOTH"
);
},
{
closed = 1;
nodes = (
"415 541 LINE",
"413 520 OFFCURVE",
"406 451 OFFCURVE",
"402 405 CURVE SMOOTH",
"399 374 OFFCURVE",
"397 368 OFFCURVE",
"418 368 CURVE SMOOTH",
"445 368 OFFCURVE",
"398 368 OFFCURVE",
"443 368 CURVE SMOOTH",
"489 368 OFFCURVE",
"538 421 OFFCURVE",
"542 456 CURVE SMOOTH",
"546 488 OFFCURVE",
"549 514 OFFCURVE",
"552 538 CURVE"
);
},
{
closed = 1;
nodes = (
"123 213 OFFCURVE",
"56 160 OFFCURVE",
"56 91 CURVE SMOOTH",
"56 21 OFFCURVE",
"128 -11 OFFCURVE",
"227 -11 CURVE SMOOTH",
"401 -11 OFFCURVE",
"562 67 OFFCURVE",
"562 160 CURVE SMOOTH",
"562 228 OFFCURVE",
"510 321 OFFCURVE",
"428 321 CURVE SMOOTH",
"373 321 OFFCURVE",
"332 296 OFFCURVE",
"309 296 CURVE SMOOTH",
"294 296 OFFCURVE",
"274 314 OFFCURVE",
"274 327 CURVE SMOOTH",
"274 341 OFFCURVE",
"294 368 OFFCURVE",
"313 368 CURVE SMOOTH",
"341 368 OFFCURVE",
"401 368 OFFCURVE",
"432 368 CURVE SMOOTH",
"449 368 OFFCURVE",
"459 379 OFFCURVE",
"462 405 CURVE SMOOTH",
"471 479 LINE",
"380 471 OFFCURVE",
"311 473 OFFCURVE",
"269 473 CURVE SMOOTH",
"192 473 OFFCURVE",
"133 378 OFFCURVE",
"134 319 CURVE SMOOTH",
"135 229 OFFCURVE",
"235 187 OFFCURVE",
"290 187 CURVE SMOOTH",
"327 187 OFFCURVE",
"376 216 OFFCURVE",
"390 216 CURVE SMOOTH",
"404 216 OFFCURVE",
"428 184 OFFCURVE",
"428 165 CURVE SMOOTH",
"428 134 OFFCURVE",
"327 109 OFFCURVE",
"249 109 CURVE SMOOTH",
"170 109 OFFCURVE",
"154 121 OFFCURVE",
"154 166 CURVE SMOOTH",
"154 197 OFFCURVE",
"154 213 OFFCURVE",
"141 213 CURVE SMOOTH"
);
}
);
width = 635;
},
{
background = {
paths = (
{
closed = 1;
nodes = (
"0 629 LINE",
"-32 629 OFFCURVE",
"-42 631 OFFCURVE",
"-49 610 CURVE SMOOTH",
"-74 532 LINE SMOOTH",
"-79 517 OFFCURVE",
"-72 510 OFFCURVE",
"-53 510 CURVE SMOOTH",
"635 510 LINE",
"667 510 OFFCURVE",
"677 508 OFFCURVE",
"684 529 CURVE SMOOTH",
"709 607 LINE SMOOTH",
"714 622 OFFCURVE",
"707 629 OFFCURVE",
"688 629 CURVE SMOOTH"
);
},
{
closed = 1;
nodes = (
"415 541 LINE",
"413 520 OFFCURVE",
"406 451 OFFCURVE",
"402 405 CURVE SMOOTH",
"399 374 OFFCURVE",
"397 368 OFFCURVE",
"418 368 CURVE SMOOTH",
"445 368 OFFCURVE",
"398 368 OFFCURVE",
"443 368 CURVE SMOOTH",
"489 368 OFFCURVE",
"538 421 OFFCURVE",
"542 456 CURVE SMOOTH",
"546 488 OFFCURVE",
"549 514 OFFCURVE",
"552 538 CURVE"
);
},
{
closed = 1;
nodes = (
"123 213 OFFCURVE",
"56 160 OFFCURVE",
"56 91 CURVE SMOOTH",
"56 21 OFFCURVE",
"128 -11 OFFCURVE",
"227 -11 CURVE SMOOTH",
"401 -11 OFFCURVE",
"562 67 OFFCURVE",
"562 160 CURVE SMOOTH",
"562 228 OFFCURVE",
"510 321 OFFCURVE",
"428 321 CURVE SMOOTH",
"373 321 OFFCURVE",
"332 296 OFFCURVE",
"309 296 CURVE SMOOTH",
"294 296 OFFCURVE",
"274 314 OFFCURVE",
"274 327 CURVE SMOOTH",
"274 341 OFFCURVE",
"294 368 OFFCURVE",
"313 368 CURVE SMOOTH",
"341 368 OFFCURVE",
"401 368 OFFCURVE",
"432 368 CURVE SMOOTH",
"449 368 OFFCURVE",
"459 379 OFFCURVE",
"462 405 CURVE SMOOTH",
"471 479 LINE",
"380 471 OFFCURVE",
"311 473 OFFCURVE",
"269 473 CURVE SMOOTH",
"192 473 OFFCURVE",
"133 378 OFFCURVE",
"134 319 CURVE SMOOTH",
"135 229 OFFCURVE",
"235 187 OFFCURVE",
"290 187 CURVE SMOOTH",
"327 187 OFFCURVE",
"376 216 OFFCURVE",
"390 216 CURVE SMOOTH",
"404 216 OFFCURVE",
"428 184 OFFCURVE",
"428 165 CURVE SMOOTH",
"428 134 OFFCURVE",
"327 109 OFFCURVE",
"249 109 CURVE SMOOTH",
"170 109 OFFCURVE",
"154 121 OFFCURVE",
"154 166 CURVE SMOOTH",
"154 197 OFFCURVE",
"154 213 OFFCURVE",
"141 213 CURVE SMOOTH"
);
}
);
};
layerId = "B0B60A8F-2DEB-4A58-A43B-60A0DADABD8F";
paths = (
{
closed = 1;
nodes = (
"0 606 LINE",
"-29 606 OFFCURVE",
"-42 609 OFFCURVE",
"-49 587 CURVE SMOOTH",
"-65 534 LINE SMOOTH",
"-70 519 OFFCURVE",
"-63 512 OFFCURVE",
"-44 512 CURVE SMOOTH",
"600 512 LINE",
"629 512 OFFCURVE",
"642 509 OFFCURVE",
"649 531 CURVE SMOOTH",
"666 584 LINE SMOOTH",
"671 599 OFFCURVE",
"664 606 OFFCURVE",
"645 606 CURVE SMOOTH"
);
},
{
closed = 1;
nodes = (
"124 202 OFFCURVE",
"66 150 OFFCURVE",
"66 94 CURVE SMOOTH",
"66 31 OFFCURVE",
"125 0 OFFCURVE",
"224 0 CURVE SMOOTH",
"391 0 OFFCURVE",
"549 84 OFFCURVE",
"549 165 CURVE SMOOTH",
"549 228 OFFCURVE",
"491 311 OFFCURVE",
"428 311 CURVE SMOOTH",
"378 311 OFFCURVE",
"332 284 OFFCURVE",
"309 284 CURVE SMOOTH",
"294 284 OFFCURVE",
"262 302 OFFCURVE",
"262 325 CURVE SMOOTH",
"262 352 OFFCURVE",
"288 376 OFFCURVE",
"308 376 CURVE SMOOTH",
"336 376 OFFCURVE",
"401 376 OFFCURVE",
"432 376 CURVE SMOOTH",
"437 376 OFFCURVE",
"454 382 OFFCURVE",
"459 408 CURVE SMOOTH",
"471 472 LINE",
"380 464 OFFCURVE",
"310 466 OFFCURVE",
"274 466 CURVE SMOOTH",
"208 466 OFFCURVE",
"145 381 OFFCURVE",
"146 322 CURVE SMOOTH",
"147 245 OFFCURVE",
"234 199 OFFCURVE",
"289 199 CURVE SMOOTH",
"326 199 OFFCURVE",
"376 228 OFFCURVE",
"390 228 CURVE SMOOTH",
"415 228 OFFCURVE",
"440 186 OFFCURVE",
"440 166 CURVE SMOOTH",
"440 121 OFFCURVE",
"324 99 OFFCURVE",
"236 99 CURVE SMOOTH",
"159 99 OFFCURVE",
"145 119 OFFCURVE",
"145 164 CURVE SMOOTH",
"145 186 OFFCURVE",
"148 202 OFFCURVE",
"138 202 CURVE SMOOTH"
);
},
{
closed = 1;
nodes = (
"428 541 LINE",
"426 520 OFFCURVE",
"419 459 OFFCURVE",
"413 413 CURVE SMOOTH",
"410 388 OFFCURVE",
"407 376 OFFCURVE",
"428 376 CURVE SMOOTH",
"430 376 OFFCURVE",
"434 376 OFFCURVE",
"436 376 CURVE SMOOTH",
"482 376 OFFCURVE",
"525 414 OFFCURVE",
"529 449 CURVE SMOOTH",
"533 481 OFFCURVE",
"536 514 OFFCURVE",
"539 538 CURVE"
);
}
);
width = 600;
}
);
unicode = 0921;
},
